G75*
%MOIN*%
%OFA0B0*%
%FSLAX24Y24*%
%IPPOS*%
%LPD*%
%AMOC8*
5,1,8,0,0,1.08239X$1,22.5*
%
%ADD10C,0.0000*%
%ADD11C,0.0030*%
%ADD12C,0.0060*%
%ADD13C,0.0100*%
%ADD14C,0.0040*%
%ADD15C,0.0050*%
%ADD16C,0.0080*%
%ADD17R,0.0012X0.0001*%
%ADD18R,0.0015X0.0001*%
%ADD19R,0.0018X0.0001*%
%ADD20R,0.0021X0.0001*%
%ADD21R,0.0026X0.0002*%
%ADD22R,0.0030X0.0001*%
%ADD23R,0.0036X0.0001*%
%ADD24R,0.0039X0.0001*%
%ADD25R,0.0041X0.0001*%
%ADD26R,0.0042X0.0001*%
%ADD27R,0.0044X0.0001*%
%ADD28R,0.0045X0.0001*%
%ADD29R,0.0045X0.0002*%
%ADD30R,0.0007X0.0001*%
%ADD31R,0.0001X0.0001*%
%ADD32R,0.0006X0.0001*%
%ADD33R,0.0004X0.0001*%
%ADD34R,0.0006X0.0001*%
%ADD35R,0.0002X0.0001*%
%ADD36R,0.0003X0.0001*%
%ADD37R,0.0005X0.0001*%
%ADD38R,0.0049X0.0001*%
%ADD39R,0.0046X0.0001*%
%ADD40R,0.0003X0.0001*%
%ADD41R,0.0048X0.0001*%
%ADD42R,0.0022X0.0002*%
%ADD43R,0.0019X0.0002*%
%ADD44R,0.0025X0.0002*%
%ADD45R,0.0006X0.0002*%
%ADD46R,0.0009X0.0002*%
%ADD47R,0.0055X0.0002*%
%ADD48R,0.0048X0.0002*%
%ADD49R,0.0054X0.0002*%
%ADD50R,0.0056X0.0002*%
%ADD51R,0.0032X0.0001*%
%ADD52R,0.0031X0.0001*%
%ADD53R,0.0010X0.0001*%
%ADD54R,0.0059X0.0001*%
%ADD55R,0.0060X0.0001*%
%ADD56R,0.0051X0.0001*%
%ADD57R,0.0051X0.0001*%
%ADD58R,0.0014X0.0001*%
%ADD59R,0.0038X0.0001*%
%ADD60R,0.0013X0.0001*%
%ADD61R,0.0063X0.0001*%
%ADD62R,0.0016X0.0001*%
%ADD63R,0.0066X0.0001*%
%ADD64R,0.0056X0.0001*%
%ADD65R,0.0063X0.0001*%
%ADD66R,0.0066X0.0001*%
%ADD67R,0.0011X0.0001*%
%ADD68R,0.0012X0.0001*%
%ADD69R,0.0018X0.0001*%
%ADD70R,0.0065X0.0001*%
%ADD71R,0.0019X0.0001*%
%ADD72R,0.0071X0.0001*%
%ADD73R,0.0068X0.0001*%
%ADD74R,0.0062X0.0001*%
%ADD75R,0.0061X0.0001*%
%ADD76R,0.0023X0.0001*%
%ADD77R,0.0079X0.0001*%
%ADD78R,0.0064X0.0001*%
%ADD79R,0.0021X0.0001*%
%ADD80R,0.0076X0.0001*%
%ADD81R,0.0074X0.0001*%
%ADD82R,0.0123X0.0001*%
%ADD83R,0.0072X0.0001*%
%ADD84R,0.0024X0.0001*%
%ADD85R,0.0026X0.0001*%
%ADD86R,0.0025X0.0001*%
%ADD87R,0.0075X0.0001*%
%ADD88R,0.0086X0.0001*%
%ADD89R,0.0027X0.0001*%
%ADD90R,0.0081X0.0001*%
%ADD91R,0.0126X0.0001*%
%ADD92R,0.0029X0.0001*%
%ADD93R,0.0028X0.0001*%
%ADD94R,0.0033X0.0001*%
%ADD95R,0.0090X0.0001*%
%ADD96R,0.0157X0.0001*%
%ADD97R,0.0078X0.0001*%
%ADD98R,0.0091X0.0001*%
%ADD99R,0.0085X0.0001*%
%ADD100R,0.0129X0.0001*%
%ADD101R,0.0033X0.0001*%
%ADD102R,0.0081X0.0001*%
%ADD103R,0.0034X0.0001*%
%ADD104R,0.0094X0.0001*%
%ADD105R,0.0160X0.0001*%
%ADD106R,0.0088X0.0001*%
%ADD107R,0.0131X0.0001*%
%ADD108R,0.0089X0.0001*%
%ADD109R,0.0035X0.0001*%
%ADD110R,0.0083X0.0001*%
%ADD111R,0.0098X0.0001*%
%ADD112R,0.0164X0.0001*%
%ADD113R,0.0092X0.0001*%
%ADD114R,0.0132X0.0001*%
%ADD115R,0.0037X0.0001*%
%ADD116R,0.0084X0.0001*%
%ADD117R,0.0036X0.0001*%
%ADD118R,0.0101X0.0001*%
%ADD119R,0.0166X0.0001*%
%ADD120R,0.0099X0.0001*%
%ADD121R,0.0096X0.0002*%
%ADD122R,0.0134X0.0002*%
%ADD123R,0.0041X0.0002*%
%ADD124R,0.0031X0.0002*%
%ADD125R,0.0030X0.0002*%
%ADD126R,0.0084X0.0002*%
%ADD127R,0.0036X0.0002*%
%ADD128R,0.0033X0.0002*%
%ADD129R,0.0104X0.0002*%
%ADD130R,0.0170X0.0002*%
%ADD131R,0.0102X0.0001*%
%ADD132R,0.0136X0.0001*%
%ADD133R,0.0108X0.0001*%
%ADD134R,0.0173X0.0001*%
%ADD135R,0.0106X0.0001*%
%ADD136R,0.0141X0.0001*%
%ADD137R,0.0087X0.0001*%
%ADD138R,0.0111X0.0001*%
%ADD139R,0.0176X0.0001*%
%ADD140R,0.0109X0.0001*%
%ADD141R,0.0112X0.0001*%
%ADD142R,0.0142X0.0001*%
%ADD143R,0.0114X0.0001*%
%ADD144R,0.0177X0.0001*%
%ADD145R,0.0115X0.0001*%
%ADD146R,0.0144X0.0001*%
%ADD147R,0.0048X0.0001*%
%ADD148R,0.0117X0.0001*%
%ADD149R,0.0179X0.0001*%
%ADD150R,0.0118X0.0001*%
%ADD151R,0.0146X0.0001*%
%ADD152R,0.0120X0.0001*%
%ADD153R,0.0180X0.0001*%
%ADD154R,0.0119X0.0001*%
%ADD155R,0.0122X0.0001*%
%ADD156R,0.0181X0.0001*%
%ADD157R,0.0125X0.0001*%
%ADD158R,0.0147X0.0001*%
%ADD159R,0.0121X0.0001*%
%ADD160R,0.0126X0.0001*%
%ADD161R,0.0149X0.0001*%
%ADD162R,0.0093X0.0001*%
%ADD163R,0.0129X0.0001*%
%ADD164R,0.0184X0.0001*%
%ADD165R,0.0151X0.0001*%
%ADD166R,0.0128X0.0001*%
%ADD167R,0.0093X0.0001*%
%ADD168R,0.0187X0.0001*%
%ADD169R,0.0132X0.0002*%
%ADD170R,0.0153X0.0002*%
%ADD171R,0.0131X0.0002*%
%ADD172R,0.0046X0.0002*%
%ADD173R,0.0048X0.0002*%
%ADD174R,0.0094X0.0002*%
%ADD175R,0.0034X0.0002*%
%ADD176R,0.0189X0.0002*%
%ADD177R,0.0091X0.0002*%
%ADD178R,0.0134X0.0001*%
%ADD179R,0.0154X0.0001*%
%ADD180R,0.0057X0.0001*%
%ADD181R,0.0027X0.0001*%
%ADD182R,0.0190X0.0001*%
%ADD183R,0.0054X0.0001*%
%ADD184R,0.0053X0.0001*%
%ADD185R,0.0054X0.0001*%
%ADD186R,0.0139X0.0001*%
%ADD187R,0.0156X0.0001*%
%ADD188R,0.0052X0.0001*%
%ADD189R,0.0043X0.0001*%
%ADD190R,0.0039X0.0001*%
%ADD191R,0.0040X0.0001*%
%ADD192R,0.0147X0.0001*%
%ADD193R,0.0159X0.0001*%
%ADD194R,0.0145X0.0001*%
%ADD195R,0.0042X0.0001*%
%ADD196R,0.0047X0.0001*%
%ADD197R,0.0150X0.0001*%
%ADD198R,0.0161X0.0001*%
%ADD199R,0.0162X0.0001*%
%ADD200R,0.0153X0.0002*%
%ADD201R,0.0164X0.0002*%
%ADD202R,0.0151X0.0002*%
%ADD203R,0.0042X0.0002*%
%ADD204R,0.0038X0.0002*%
%ADD205R,0.0040X0.0002*%
%ADD206R,0.0069X0.0001*%
%ADD207R,0.0067X0.0001*%
%ADD208R,0.0069X0.0001*%
%ADD209R,0.0054X0.0002*%
%ADD210R,0.0051X0.0002*%
%ADD211R,0.0052X0.0002*%
%ADD212R,0.0035X0.0002*%
%ADD213R,0.0036X0.0002*%
%ADD214R,0.0032X0.0002*%
%ADD215R,0.0037X0.0002*%
%ADD216R,0.0039X0.0002*%
%ADD217R,0.0059X0.0002*%
%ADD218R,0.0042X0.0002*%
%ADD219R,0.0060X0.0002*%
%ADD220R,0.0061X0.0002*%
%ADD221R,0.0012X0.0002*%
%ADD222R,0.0008X0.0001*%
%ADD223R,0.0070X0.0001*%
%ADD224R,0.0072X0.0001*%
%ADD225R,0.0078X0.0001*%
%ADD226R,0.0082X0.0001*%
%ADD227R,0.0024X0.0001*%
%ADD228R,0.0089X0.0002*%
%ADD229R,0.0018X0.0002*%
%ADD230R,0.0079X0.0002*%
%ADD231R,0.0076X0.0002*%
%ADD232R,0.0096X0.0001*%
%ADD233R,0.0097X0.0001*%
%ADD234R,0.0087X0.0001*%
%ADD235R,0.0105X0.0001*%
%ADD236R,0.0108X0.0001*%
%ADD237R,0.0110X0.0001*%
%ADD238R,0.0113X0.0001*%
%ADD239R,0.0116X0.0001*%
%ADD240R,0.0117X0.0001*%
%ADD241R,0.0124X0.0002*%
%ADD242R,0.0114X0.0002*%
%ADD243R,0.0112X0.0002*%
%ADD244R,0.0129X0.0002*%
%ADD245R,0.0127X0.0001*%
%ADD246R,0.0084X0.0001*%
%ADD247R,0.0103X0.0001*%
%ADD248R,0.0096X0.0001*%
%ADD249R,0.0153X0.0001*%
%ADD250R,0.0156X0.0002*%
%ADD251R,0.0080X0.0002*%
%ADD252R,0.0081X0.0002*%
%ADD253R,0.0165X0.0001*%
%ADD254R,0.0055X0.0001*%
%ADD255R,0.0100X0.0001*%
%ADD256R,0.0009X0.0001*%
%ADD257R,0.0022X0.0001*%
%ADD258R,0.0044X0.0002*%
%ADD259R,0.0029X0.0002*%
%ADD260R,0.0057X0.0002*%
%ADD261R,0.0033X0.0002*%
%ADD262R,0.0049X0.0002*%
%ADD263R,0.0039X0.0002*%
%ADD264R,0.0053X0.0002*%
%ADD265R,0.0043X0.0002*%
%ADD266R,0.0058X0.0001*%
%ADD267R,0.0124X0.0001*%
%ADD268R,0.0144X0.0001*%
%ADD269R,0.0152X0.0001*%
%ADD270R,0.0155X0.0001*%
%ADD271R,0.0123X0.0001*%
%ADD272R,0.0153X0.0001*%
%ADD273R,0.0150X0.0002*%
%ADD274R,0.0139X0.0002*%
%ADD275R,0.0119X0.0002*%
%ADD276R,0.0120X0.0002*%
%ADD277R,0.0141X0.0002*%
%ADD278R,0.0118X0.0002*%
%ADD279R,0.0138X0.0001*%
%ADD280R,0.0114X0.0001*%
%ADD281R,0.0133X0.0001*%
%ADD282R,0.0132X0.0001*%
%ADD283R,0.0130X0.0001*%
%ADD284R,0.0104X0.0001*%
%ADD285R,0.0099X0.0001*%
%ADD286R,0.0135X0.0001*%
%ADD287R,0.0095X0.0001*%
%ADD288R,0.0126X0.0002*%
%ADD289R,0.0128X0.0002*%
%ADD290R,0.0082X0.0002*%
%ADD291R,0.0121X0.0002*%
%ADD292R,0.0024X0.0002*%
%ADD293R,0.0024X0.0002*%
%ADD294R,0.0081X0.0002*%
%ADD295R,0.0020X0.0001*%
%ADD296R,0.0017X0.0001*%
%ADD297R,0.0057X0.0001*%
%ADD298R,0.0090X0.0002*%
%ADD299R,0.0006X0.0002*%
%ADD300R,0.0050X0.0001*%
%ADD301R,0.0075X0.0002*%
%ADD302R,0.0158X0.0002*%
%ADD303R,0.0109X0.0002*%
%ADD304R,0.0168X0.0001*%
%ADD305R,0.0171X0.0001*%
%ADD306R,0.0172X0.0001*%
%ADD307R,0.0175X0.0001*%
%ADD308R,0.0186X0.0001*%
%ADD309R,0.0191X0.0001*%
%ADD310R,0.0194X0.0001*%
%ADD311R,0.0196X0.0002*%
%ADD312R,0.0149X0.0002*%
%ADD313R,0.0199X0.0001*%
%ADD314R,0.0204X0.0001*%
%ADD315R,0.0207X0.0001*%
%ADD316R,0.0158X0.0001*%
%ADD317R,0.0211X0.0001*%
%ADD318R,0.0216X0.0001*%
%ADD319R,0.0219X0.0001*%
%ADD320R,0.0169X0.0001*%
%ADD321R,0.0222X0.0001*%
%ADD322R,0.0224X0.0001*%
%ADD323R,0.0228X0.0001*%
%ADD324R,0.0234X0.0002*%
%ADD325R,0.0183X0.0002*%
%ADD326R,0.0239X0.0001*%
%ADD327R,0.0189X0.0001*%
%ADD328R,0.0241X0.0001*%
%ADD329R,0.0192X0.0001*%
%ADD330R,0.0243X0.0001*%
%ADD331R,0.0246X0.0001*%
%ADD332R,0.0196X0.0001*%
%ADD333R,0.0250X0.0001*%
%ADD334R,0.0201X0.0001*%
%ADD335R,0.0254X0.0001*%
%ADD336R,0.0258X0.0001*%
%ADD337R,0.0209X0.0001*%
%ADD338R,0.0263X0.0001*%
%ADD339R,0.0213X0.0001*%
%ADD340R,0.0267X0.0001*%
%ADD341R,0.0270X0.0002*%
%ADD342R,0.0066X0.0002*%
%ADD343R,0.0219X0.0002*%
%ADD344R,0.0271X0.0001*%
%ADD345R,0.0220X0.0001*%
%ADD346R,0.0274X0.0001*%
%ADD347R,0.0223X0.0001*%
%ADD348R,0.0278X0.0001*%
%ADD349R,0.0282X0.0001*%
%ADD350R,0.0231X0.0001*%
%ADD351R,0.0288X0.0001*%
%ADD352R,0.0236X0.0001*%
%ADD353R,0.0289X0.0001*%
%ADD354R,0.0292X0.0001*%
%ADD355R,0.0297X0.0001*%
%ADD356R,0.0300X0.0001*%
%ADD357R,0.0305X0.0002*%
%ADD358R,0.0101X0.0002*%
%ADD359R,0.0078X0.0002*%
%ADD360R,0.0251X0.0002*%
%ADD361R,0.0309X0.0001*%
%ADD362R,0.0255X0.0001*%
%ADD363R,0.0314X0.0001*%
%ADD364R,0.0316X0.0001*%
%ADD365R,0.0262X0.0001*%
%ADD366R,0.0319X0.0001*%
%ADD367R,0.0266X0.0001*%
%ADD368R,0.0321X0.0001*%
%ADD369R,0.0324X0.0001*%
%ADD370R,0.0270X0.0001*%
%ADD371R,0.0329X0.0001*%
%ADD372R,0.0275X0.0001*%
%ADD373R,0.0333X0.0001*%
%ADD374R,0.0279X0.0001*%
%ADD375R,0.0336X0.0001*%
%ADD376R,0.0284X0.0001*%
%ADD377R,0.0339X0.0002*%
%ADD378R,0.0286X0.0002*%
%ADD379R,0.0342X0.0001*%
%ADD380R,0.0491X0.0001*%
%ADD381R,0.0492X0.0001*%
%ADD382R,0.0294X0.0001*%
%ADD383R,0.0495X0.0001*%
%ADD384R,0.0299X0.0001*%
%ADD385R,0.0496X0.0001*%
%ADD386R,0.0301X0.0001*%
%ADD387R,0.0498X0.0001*%
%ADD388R,0.0304X0.0001*%
%ADD389R,0.0501X0.0001*%
%ADD390R,0.0308X0.0001*%
%ADD391R,0.0311X0.0001*%
%ADD392R,0.0504X0.0001*%
%ADD393R,0.0504X0.0002*%
%ADD394R,0.0318X0.0002*%
%ADD395R,0.0507X0.0001*%
%ADD396R,0.0323X0.0001*%
%ADD397R,0.0326X0.0001*%
%ADD398R,0.0508X0.0001*%
%ADD399R,0.0330X0.0001*%
%ADD400R,0.0510X0.0001*%
%ADD401R,0.0494X0.0001*%
%ADD402R,0.0512X0.0001*%
%ADD403R,0.0500X0.0001*%
%ADD404R,0.0513X0.0001*%
%ADD405R,0.0501X0.0001*%
%ADD406R,0.0513X0.0002*%
%ADD407R,0.0501X0.0002*%
%ADD408R,0.0503X0.0001*%
%ADD409R,0.0504X0.0001*%
%ADD410R,0.0506X0.0001*%
%ADD411R,0.0513X0.0001*%
%ADD412R,0.0509X0.0001*%
%ADD413R,0.0511X0.0001*%
%ADD414R,0.0514X0.0001*%
%ADD415R,0.0516X0.0001*%
%ADD416R,0.0513X0.0002*%
%ADD417R,0.0519X0.0002*%
%ADD418R,0.0519X0.0001*%
%ADD419R,0.0520X0.0001*%
%ADD420R,0.0522X0.0001*%
%ADD421R,0.0507X0.0001*%
%ADD422R,0.0509X0.0002*%
%ADD423R,0.0520X0.0002*%
%ADD424R,0.0522X0.0001*%
%ADD425R,0.0505X0.0001*%
%ADD426R,0.0502X0.0001*%
%ADD427R,0.0521X0.0001*%
%ADD428R,0.0503X0.0002*%
%ADD429R,0.0519X0.0002*%
%ADD430R,0.0519X0.0001*%
%ADD431R,0.0499X0.0001*%
%ADD432R,0.0517X0.0001*%
%ADD433R,0.0495X0.0002*%
%ADD434R,0.0514X0.0002*%
%ADD435R,0.0515X0.0001*%
%ADD436R,0.0492X0.0001*%
%ADD437R,0.0490X0.0001*%
%ADD438R,0.0490X0.0002*%
%ADD439R,0.0511X0.0002*%
%ADD440R,0.0489X0.0001*%
%ADD441R,0.0489X0.0001*%
%ADD442R,0.0488X0.0001*%
%ADD443R,0.0485X0.0001*%
%ADD444R,0.0483X0.0001*%
%ADD445R,0.0483X0.0002*%
%ADD446R,0.0507X0.0002*%
%ADD447R,0.0483X0.0001*%
%ADD448R,0.0481X0.0001*%
%ADD449R,0.0480X0.0001*%
%ADD450R,0.0480X0.0002*%
%ADD451R,0.0501X0.0002*%
%ADD452R,0.0479X0.0001*%
%ADD453R,0.0477X0.0001*%
%ADD454R,0.0477X0.0001*%
%ADD455R,0.0475X0.0001*%
%ADD456R,0.0474X0.0001*%
%ADD457R,0.0472X0.0001*%
%ADD458R,0.0472X0.0002*%
%ADD459R,0.0498X0.0002*%
%ADD460R,0.0471X0.0001*%
%ADD461R,0.0473X0.0001*%
%ADD462R,0.0471X0.0001*%
%ADD463R,0.0470X0.0001*%
%ADD464R,0.0468X0.0001*%
%ADD465R,0.0469X0.0001*%
%ADD466R,0.0468X0.0002*%
%ADD467R,0.0491X0.0002*%
%ADD468R,0.0466X0.0001*%
%ADD469R,0.0465X0.0001*%
%ADD470R,0.0464X0.0001*%
%ADD471R,0.0462X0.0001*%
%ADD472R,0.0462X0.0002*%
%ADD473R,0.0489X0.0002*%
%ADD474R,0.0461X0.0001*%
%ADD475R,0.0460X0.0001*%
%ADD476R,0.0459X0.0001*%
%ADD477R,0.0484X0.0001*%
%ADD478R,0.0457X0.0001*%
%ADD479R,0.0459X0.0001*%
%ADD480R,0.0458X0.0002*%
%ADD481R,0.0484X0.0002*%
%ADD482R,0.0456X0.0001*%
%ADD483R,0.0455X0.0001*%
%ADD484R,0.0453X0.0001*%
%ADD485R,0.0451X0.0001*%
%ADD486R,0.0453X0.0001*%
%ADD487R,0.0450X0.0001*%
%ADD488R,0.0451X0.0002*%
%ADD489R,0.0478X0.0001*%
%ADD490R,0.0449X0.0001*%
%ADD491R,0.0476X0.0001*%
%ADD492R,0.0447X0.0001*%
%ADD493R,0.0474X0.0001*%
%ADD494R,0.0449X0.0002*%
%ADD495R,0.0476X0.0002*%
%ADD496R,0.0454X0.0001*%
%ADD497R,0.0469X0.0002*%
%ADD498R,0.0468X0.0001*%
%ADD499R,0.0467X0.0001*%
%ADD500R,0.0473X0.0002*%
%ADD501R,0.0468X0.0002*%
%ADD502R,0.0486X0.0002*%
%ADD503R,0.0474X0.0002*%
%ADD504R,0.0487X0.0001*%
%ADD505R,0.0497X0.0001*%
%ADD506R,0.0486X0.0001*%
%ADD507R,0.0500X0.0002*%
%ADD508R,0.0487X0.0002*%
%ADD509R,0.0498X0.0001*%
%ADD510R,0.0524X0.0002*%
%ADD511R,0.0524X0.0001*%
%ADD512R,0.0525X0.0001*%
%ADD513R,0.0528X0.0001*%
%ADD514R,0.0529X0.0001*%
%ADD515R,0.0533X0.0001*%
%ADD516R,0.0534X0.0001*%
%ADD517R,0.0523X0.0001*%
%ADD518R,0.0536X0.0001*%
%ADD519R,0.0537X0.0002*%
%ADD520R,0.0527X0.0002*%
%ADD521R,0.0537X0.0001*%
%ADD522R,0.0528X0.0001*%
%ADD523R,0.0539X0.0001*%
%ADD524R,0.0530X0.0001*%
%ADD525R,0.0540X0.0001*%
%ADD526R,0.0541X0.0001*%
%ADD527R,0.0531X0.0001*%
%ADD528R,0.0543X0.0001*%
%ADD529R,0.0544X0.0001*%
%ADD530R,0.0546X0.0002*%
%ADD531R,0.0536X0.0002*%
%ADD532R,0.0547X0.0001*%
%ADD533R,0.0551X0.0001*%
%ADD534R,0.0552X0.0001*%
%ADD535R,0.0554X0.0001*%
%ADD536R,0.0555X0.0001*%
%ADD537R,0.0555X0.0002*%
%ADD538R,0.0547X0.0002*%
%ADD539R,0.0549X0.0001*%
%ADD540R,0.0548X0.0001*%
%ADD541R,0.0538X0.0001*%
%ADD542R,0.0537X0.0001*%
%ADD543R,0.0533X0.0002*%
%ADD544R,0.0531X0.0001*%
%ADD545R,0.0526X0.0001*%
%ADD546R,0.0518X0.0001*%
%ADD547R,0.0498X0.0002*%
%ADD548R,0.0496X0.0002*%
%ADD549R,0.0486X0.0001*%
%ADD550R,0.0485X0.0002*%
%ADD551R,0.0482X0.0001*%
%ADD552R,0.0477X0.0002*%
%ADD553R,0.0530X0.0002*%
%ADD554R,0.0464X0.0002*%
%ADD555R,0.0561X0.0001*%
%ADD556R,0.0570X0.0001*%
%ADD557R,0.0576X0.0001*%
%ADD558R,0.0581X0.0001*%
%ADD559R,0.0585X0.0001*%
%ADD560R,0.0589X0.0001*%
%ADD561R,0.0600X0.0002*%
%ADD562R,0.0614X0.0001*%
%ADD563R,0.0623X0.0001*%
%ADD564R,0.0630X0.0001*%
%ADD565R,0.0633X0.0001*%
%ADD566R,0.0638X0.0001*%
%ADD567R,0.0645X0.0001*%
%ADD568R,0.0657X0.0001*%
%ADD569R,0.0556X0.0001*%
%ADD570R,0.0669X0.0001*%
%ADD571R,0.0674X0.0001*%
%ADD572R,0.0579X0.0001*%
%ADD573R,0.0676X0.0002*%
%ADD574R,0.0585X0.0002*%
%ADD575R,0.0678X0.0001*%
%ADD576R,0.0590X0.0001*%
%ADD577R,0.0679X0.0001*%
%ADD578R,0.0596X0.0001*%
%ADD579R,0.0681X0.0001*%
%ADD580R,0.0606X0.0001*%
%ADD581R,0.0620X0.0001*%
%ADD582R,0.0682X0.0001*%
%ADD583R,0.0633X0.0001*%
%ADD584R,0.0684X0.0001*%
%ADD585R,0.0639X0.0001*%
%ADD586R,0.0649X0.0001*%
%ADD587R,0.0684X0.0001*%
%ADD588R,0.0655X0.0001*%
%ADD589R,0.0683X0.0002*%
%ADD590R,0.0664X0.0002*%
%ADD591R,0.0683X0.0001*%
%ADD592R,0.0670X0.0001*%
%ADD593R,0.0671X0.0001*%
%ADD594R,0.0681X0.0001*%
%ADD595R,0.0672X0.0001*%
%ADD596R,0.0680X0.0001*%
%ADD597R,0.0675X0.0001*%
%ADD598R,0.0676X0.0001*%
%ADD599R,0.0680X0.0002*%
%ADD600R,0.0678X0.0002*%
%ADD601R,0.0678X0.0001*%
%ADD602R,0.0675X0.0002*%
%ADD603R,0.0672X0.0002*%
%ADD604R,0.0672X0.0001*%
%ADD605R,0.0671X0.0002*%
%ADD606R,0.0670X0.0002*%
%ADD607R,0.0669X0.0001*%
%ADD608R,0.0667X0.0001*%
%ADD609R,0.0669X0.0002*%
%ADD610R,0.0667X0.0002*%
%ADD611R,0.0668X0.0001*%
%ADD612R,0.0666X0.0001*%
%ADD613R,0.0668X0.0002*%
%ADD614R,0.0666X0.0002*%
%ADD615R,0.0666X0.0001*%
%ADD616R,0.0664X0.0001*%
%ADD617R,0.0663X0.0001*%
%ADD618R,0.0666X0.0002*%
%ADD619R,0.0663X0.0002*%
%ADD620R,0.0665X0.0001*%
%ADD621R,0.0674X0.0002*%
%ADD622R,0.0677X0.0001*%
%ADD623R,0.0678X0.0002*%
%ADD624R,0.0682X0.0002*%
%ADD625R,0.0686X0.0001*%
%ADD626R,0.0686X0.0002*%
%ADD627R,0.0687X0.0001*%
%ADD628R,0.0689X0.0001*%
%ADD629R,0.0653X0.0001*%
%ADD630R,0.0641X0.0001*%
%ADD631R,0.0626X0.0001*%
%ADD632R,0.0616X0.0001*%
%ADD633R,0.0687X0.0001*%
%ADD634R,0.0612X0.0001*%
%ADD635R,0.0688X0.0001*%
%ADD636R,0.0606X0.0001*%
%ADD637R,0.0601X0.0001*%
%ADD638R,0.0591X0.0002*%
%ADD639R,0.0567X0.0001*%
%ADD640R,0.0560X0.0001*%
%ADD641R,0.0659X0.0001*%
%ADD642R,0.0516X0.0001*%
%ADD643R,0.0639X0.0001*%
%ADD644R,0.0502X0.0002*%
%ADD645R,0.0633X0.0002*%
%ADD646R,0.0608X0.0001*%
%ADD647R,0.0582X0.0001*%
%ADD648R,0.0577X0.0001*%
%ADD649R,0.0569X0.0002*%
%ADD650R,0.0546X0.0001*%
%ADD651R,0.0486X0.0002*%
%ADD652R,0.0493X0.0001*%
%ADD653R,0.0516X0.0002*%
%ADD654R,0.0532X0.0001*%
%ADD655R,0.0534X0.0002*%
%ADD656R,0.0535X0.0002*%
%ADD657R,0.0543X0.0001*%
%ADD658R,0.0553X0.0001*%
%ADD659R,0.0559X0.0001*%
%ADD660R,0.0564X0.0001*%
%ADD661R,0.0564X0.0001*%
%ADD662R,0.0567X0.0001*%
%ADD663R,0.0569X0.0001*%
%ADD664R,0.0570X0.0002*%
%ADD665R,0.0571X0.0002*%
%ADD666R,0.0571X0.0001*%
%ADD667R,0.0573X0.0001*%
%ADD668R,0.0574X0.0001*%
%ADD669R,0.0576X0.0001*%
%ADD670R,0.0600X0.0001*%
%ADD671R,0.0611X0.0001*%
%ADD672R,0.0618X0.0001*%
%ADD673R,0.0621X0.0001*%
%ADD674R,0.1269X0.0001*%
%ADD675R,0.1267X0.0001*%
%ADD676R,0.1266X0.0001*%
%ADD677R,0.1266X0.0002*%
%ADD678R,0.1264X0.0001*%
%ADD679R,0.1261X0.0001*%
%ADD680R,0.1260X0.0001*%
%ADD681R,0.1259X0.0001*%
%ADD682R,0.1256X0.0001*%
%ADD683R,0.1254X0.0001*%
%ADD684R,0.1253X0.0001*%
%ADD685R,0.1251X0.0001*%
%ADD686R,0.1251X0.0002*%
%ADD687R,0.1248X0.0001*%
%ADD688R,0.1245X0.0001*%
%ADD689R,0.1244X0.0001*%
%ADD690R,0.1242X0.0001*%
%ADD691R,0.1239X0.0001*%
%ADD692R,0.1237X0.0001*%
%ADD693R,0.1236X0.0002*%
%ADD694R,0.1233X0.0001*%
%ADD695R,0.1230X0.0001*%
%ADD696R,0.1229X0.0001*%
%ADD697R,0.1227X0.0001*%
%ADD698R,0.1226X0.0001*%
%ADD699R,0.1224X0.0001*%
%ADD700R,0.1223X0.0002*%
%ADD701R,0.1219X0.0001*%
%ADD702R,0.1216X0.0001*%
%ADD703R,0.1215X0.0001*%
%ADD704R,0.1214X0.0001*%
%ADD705R,0.1212X0.0001*%
%ADD706R,0.1209X0.0001*%
%ADD707R,0.1207X0.0002*%
%ADD708R,0.1206X0.0001*%
%ADD709R,0.1204X0.0001*%
%ADD710R,0.1201X0.0001*%
%ADD711R,0.1200X0.0001*%
%ADD712R,0.1199X0.0001*%
%ADD713R,0.1196X0.0001*%
%ADD714R,0.1194X0.0001*%
%ADD715R,0.1193X0.0001*%
%ADD716R,0.1191X0.0001*%
%ADD717R,0.1191X0.0002*%
%ADD718R,0.1188X0.0001*%
%ADD719R,0.1185X0.0001*%
%ADD720R,0.1184X0.0001*%
%ADD721R,0.1181X0.0001*%
%ADD722R,0.1177X0.0001*%
%ADD723R,0.1176X0.0001*%
%ADD724R,0.1174X0.0001*%
%ADD725R,0.1173X0.0001*%
%ADD726R,0.1170X0.0002*%
%ADD727R,0.1170X0.0001*%
%ADD728R,0.1169X0.0001*%
%ADD729R,0.1166X0.0001*%
%ADD730R,0.1164X0.0001*%
%ADD731R,0.1163X0.0001*%
%ADD732R,0.1163X0.0002*%
%ADD733R,0.1167X0.0001*%
%ADD734R,0.1171X0.0001*%
%ADD735R,0.1179X0.0001*%
%ADD736R,0.1182X0.0001*%
%ADD737R,0.1182X0.0002*%
%ADD738R,0.1188X0.0001*%
%ADD739R,0.1190X0.0001*%
%ADD740R,0.1197X0.0001*%
%ADD741R,0.1204X0.0002*%
%ADD742R,0.1207X0.0001*%
%ADD743R,0.1210X0.0001*%
%ADD744R,0.1213X0.0001*%
%ADD745R,0.1217X0.0001*%
%ADD746R,0.1218X0.0001*%
%ADD747R,0.1220X0.0001*%
%ADD748R,0.1221X0.0001*%
%ADD749R,0.1223X0.0001*%
%ADD750R,0.1226X0.0002*%
%ADD751R,0.1236X0.0001*%
%ADD752R,0.1239X0.0001*%
%ADD753R,0.1240X0.0001*%
%ADD754R,0.1243X0.0001*%
%ADD755R,0.1248X0.0002*%
%ADD756R,0.1248X0.0001*%
%ADD757R,0.1251X0.0001*%
%ADD758R,0.1257X0.0001*%
%ADD759R,0.1263X0.0001*%
%ADD760R,0.1267X0.0002*%
%ADD761R,0.1270X0.0001*%
%ADD762R,0.1274X0.0001*%
%ADD763R,0.1275X0.0001*%
%ADD764R,0.1278X0.0001*%
%ADD765R,0.1280X0.0001*%
%ADD766R,0.1281X0.0001*%
%ADD767R,0.1284X0.0001*%
%ADD768R,0.1286X0.0001*%
%ADD769R,0.1289X0.0001*%
%ADD770R,0.1290X0.0002*%
%ADD771R,0.1291X0.0001*%
%ADD772R,0.1294X0.0001*%
%ADD773R,0.1296X0.0001*%
%ADD774R,0.1299X0.0001*%
%ADD775R,0.1300X0.0001*%
%ADD776R,0.1302X0.0001*%
%ADD777R,0.1304X0.0001*%
%ADD778R,0.1306X0.0001*%
%ADD779R,0.1308X0.0001*%
%ADD780R,0.1311X0.0002*%
%ADD781R,0.1313X0.0001*%
%ADD782R,0.1316X0.0001*%
%ADD783R,0.1317X0.0001*%
%ADD784R,0.1320X0.0001*%
%ADD785R,0.1323X0.0001*%
%ADD786R,0.1326X0.0001*%
%ADD787R,0.1329X0.0001*%
%ADD788R,0.1332X0.0002*%
%ADD789R,0.1335X0.0001*%
%ADD790R,0.1336X0.0001*%
%ADD791R,0.1340X0.0001*%
%ADD792R,0.1343X0.0001*%
%ADD793R,0.1346X0.0001*%
%ADD794R,0.1347X0.0001*%
%ADD795R,0.1350X0.0001*%
%ADD796R,0.1353X0.0002*%
%ADD797R,0.1356X0.0001*%
%ADD798R,0.1357X0.0001*%
%ADD799R,0.1360X0.0001*%
%ADD800R,0.1364X0.0001*%
%ADD801R,0.1365X0.0001*%
%ADD802R,0.1368X0.0001*%
%ADD803R,0.1369X0.0001*%
%ADD804R,0.1373X0.0001*%
%ADD805R,0.1374X0.0002*%
%ADD806R,0.1377X0.0001*%
%ADD807R,0.1379X0.0001*%
%ADD808R,0.1380X0.0001*%
%ADD809R,0.1383X0.0001*%
%ADD810R,0.1386X0.0001*%
%ADD811R,0.1387X0.0001*%
%ADD812R,0.1391X0.0001*%
%ADD813R,0.1394X0.0001*%
%ADD814R,0.1395X0.0002*%
%ADD815R,0.1398X0.0001*%
%ADD816R,0.1401X0.0001*%
%ADD817R,0.1403X0.0001*%
%ADD818R,0.1406X0.0001*%
%ADD819R,0.1407X0.0001*%
%ADD820R,0.1409X0.0001*%
%ADD821R,0.1411X0.0001*%
%ADD822R,0.1414X0.0001*%
%ADD823R,0.1416X0.0002*%
%ADD824R,0.1419X0.0001*%
%ADD825R,0.1421X0.0001*%
%ADD826R,0.1422X0.0001*%
%ADD827R,0.1424X0.0001*%
%ADD828R,0.1426X0.0001*%
%ADD829R,0.1428X0.0001*%
%ADD830R,0.1429X0.0002*%
%ADD831R,0.1429X0.0001*%
%ADD832R,0.1425X0.0001*%
%ADD833R,0.1421X0.0002*%
%ADD834R,0.1418X0.0001*%
%ADD835R,0.1416X0.0001*%
%ADD836R,0.1413X0.0001*%
%ADD837R,0.1410X0.0001*%
%ADD838R,0.1404X0.0001*%
%ADD839R,0.1401X0.0001*%
%ADD840R,0.0346X0.0001*%
%ADD841R,0.1044X0.0001*%
%ADD842R,0.0342X0.0002*%
%ADD843R,0.1040X0.0002*%
%ADD844R,0.0337X0.0001*%
%ADD845R,0.1034X0.0001*%
%ADD846R,0.0357X0.0001*%
%ADD847R,0.0660X0.0001*%
%ADD848R,0.0353X0.0001*%
%ADD849R,0.0327X0.0001*%
%ADD850R,0.0349X0.0001*%
%ADD851R,0.0321X0.0001*%
%ADD852R,0.0648X0.0001*%
%ADD853R,0.0344X0.0001*%
%ADD854R,0.0317X0.0001*%
%ADD855R,0.0339X0.0001*%
%ADD856R,0.0312X0.0001*%
%ADD857R,0.0631X0.0001*%
%ADD858R,0.0334X0.0001*%
%ADD859R,0.0309X0.0001*%
%ADD860R,0.0307X0.0002*%
%ADD861R,0.0623X0.0002*%
%ADD862R,0.0327X0.0002*%
%ADD863R,0.0618X0.0001*%
%ADD864R,0.0297X0.0001*%
%ADD865R,0.0607X0.0001*%
%ADD866R,0.0320X0.0001*%
%ADD867R,0.0293X0.0001*%
%ADD868R,0.0599X0.0001*%
%ADD869R,0.0313X0.0001*%
%ADD870R,0.0285X0.0001*%
%ADD871R,0.0584X0.0001*%
%ADD872R,0.0303X0.0001*%
%ADD873R,0.0281X0.0001*%
%ADD874R,0.0273X0.0002*%
%ADD875R,0.0563X0.0002*%
%ADD876R,0.0293X0.0002*%
%ADD877R,0.0264X0.0001*%
%ADD878R,0.0259X0.0001*%
%ADD879R,0.0256X0.0001*%
%ADD880R,0.0276X0.0001*%
%ADD881R,0.0252X0.0001*%
%ADD882R,0.0273X0.0001*%
%ADD883R,0.0248X0.0001*%
%ADD884R,0.0269X0.0001*%
%ADD885R,0.0245X0.0001*%
%ADD886R,0.0240X0.0001*%
%ADD887R,0.0237X0.0002*%
%ADD888R,0.0256X0.0002*%
%ADD889R,0.0234X0.0001*%
%ADD890R,0.0232X0.0001*%
%ADD891R,0.0251X0.0001*%
%ADD892R,0.0228X0.0001*%
%ADD893R,0.0246X0.0001*%
%ADD894R,0.0456X0.0001*%
%ADD895R,0.0219X0.0001*%
%ADD896R,0.0444X0.0001*%
%ADD897R,0.0237X0.0001*%
%ADD898R,0.0214X0.0001*%
%ADD899R,0.0436X0.0001*%
%ADD900R,0.0432X0.0001*%
%ADD901R,0.0231X0.0001*%
%ADD902R,0.0210X0.0001*%
%ADD903R,0.0426X0.0001*%
%ADD904R,0.0420X0.0001*%
%ADD905R,0.0226X0.0001*%
%ADD906R,0.0204X0.0002*%
%ADD907R,0.0409X0.0002*%
%ADD908R,0.0222X0.0002*%
%ADD909R,0.0391X0.0001*%
%ADD910R,0.0217X0.0001*%
%ADD911R,0.0376X0.0001*%
%ADD912R,0.0368X0.0001*%
%ADD913R,0.0189X0.0001*%
%ADD914R,0.0361X0.0001*%
%ADD915R,0.0206X0.0001*%
%ADD916R,0.0186X0.0001*%
%ADD917R,0.0356X0.0001*%
%ADD918R,0.0345X0.0001*%
%ADD919R,0.0331X0.0001*%
%ADD920R,0.0168X0.0001*%
%ADD921R,0.0165X0.0002*%
%ADD922R,0.0162X0.0001*%
%ADD923R,0.0324X0.0001*%
%ADD924R,0.0174X0.0001*%
%ADD925R,0.0167X0.0001*%
%ADD926R,0.0163X0.0001*%
%ADD927R,0.0141X0.0001*%
%ADD928R,0.0140X0.0001*%
%ADD929R,0.0137X0.0001*%
%ADD930R,0.0129X0.0002*%
%ADD931R,0.0321X0.0002*%
%ADD932R,0.0146X0.0002*%
%ADD933R,0.0111X0.0001*%
%ADD934R,0.0318X0.0001*%
%ADD935R,0.0315X0.0001*%
%ADD936R,0.0315X0.0002*%
%ADD937R,0.0105X0.0002*%
%ADD938R,0.0311X0.0002*%
%ADD939R,0.0066X0.0002*%
%ADD940R,0.0307X0.0001*%
%ADD941R,0.0306X0.0001*%
%ADD942R,0.0300X0.0002*%
%ADD943R,0.0296X0.0001*%
%ADD944R,0.0294X0.0002*%
%ADD945R,0.0294X0.0001*%
%ADD946R,0.0291X0.0001*%
%ADD947R,0.0291X0.0002*%
%ADD948R,0.0286X0.0001*%
%ADD949R,0.0281X0.0002*%
%ADD950R,0.0277X0.0001*%
%ADD951R,0.0276X0.0001*%
%ADD952R,0.0266X0.0002*%
%ADD953R,0.0264X0.0001*%
%ADD954R,0.0261X0.0001*%
%ADD955R,0.0259X0.0002*%
%ADD956R,0.0254X0.0002*%
%ADD957R,0.0248X0.0002*%
%ADD958R,0.0218X0.0002*%
D10*
X000180Y002280D02*
X000180Y017280D01*
X019680Y017280D01*
X019680Y002280D01*
X000180Y002280D01*
X002130Y004922D02*
X002132Y004925D01*
X002133Y004925D01*
X002133Y004925D01*
X002133Y004927D01*
X002132Y004927D02*
X002132Y004925D01*
X002132Y004925D01*
X002133Y004925D02*
X002133Y004923D01*
X002133Y004922D01*
X002134Y004922D01*
X002135Y004923D01*
X002135Y004925D01*
X002135Y004926D01*
X002134Y004926D01*
X002134Y004926D01*
X002134Y004926D01*
X002135Y004926D01*
X002136Y004926D01*
X002136Y004926D01*
X002137Y004926D01*
X002137Y004926D01*
X002137Y004925D01*
X002136Y004925D02*
X002136Y004925D01*
X002135Y004925D01*
X002135Y004925D01*
X002134Y004925D01*
X002135Y004925D02*
X002135Y004926D01*
X002137Y004926D01*
X002138Y004926D01*
X002138Y004926D01*
X002139Y004926D02*
X002139Y004926D01*
X002139Y004926D01*
X002140Y004926D01*
X002139Y004926D01*
X002140Y004925D02*
X002140Y004926D01*
X002140Y004925D02*
X002140Y004925D01*
X002139Y004925D01*
X002139Y004924D02*
X002140Y004924D01*
X002140Y004923D01*
X002138Y004923D01*
X002138Y004924D01*
X002139Y004924D01*
X002140Y004924D02*
X002140Y004924D01*
X002141Y004925D02*
X002142Y004927D01*
X002143Y004926D02*
X002142Y004926D01*
X002142Y004925D01*
X002143Y004925D01*
X002144Y004925D01*
X002144Y004926D01*
X002145Y004926D01*
X002146Y004926D01*
X002146Y004925D01*
X002146Y004925D01*
X002147Y004925D01*
X002147Y004925D01*
X002147Y004926D01*
X002146Y004926D01*
X002146Y004926D01*
X002146Y004926D01*
X002144Y004926D01*
X002143Y004926D01*
X002144Y004925D02*
X002144Y004926D01*
X002145Y004926D02*
X002145Y004926D01*
X002145Y004925D02*
X002145Y004925D01*
X002144Y004925D01*
X002143Y004924D01*
X002143Y004924D01*
X002144Y004924D01*
X002145Y004924D01*
X002145Y004923D02*
X002144Y004923D01*
X002143Y004924D01*
X002142Y004924D01*
X002141Y004923D01*
X002141Y004922D02*
X002141Y004924D01*
X002140Y004922D02*
X002139Y004922D01*
X002138Y004923D01*
X002137Y004923D01*
X002136Y004923D01*
X002136Y004924D01*
X002138Y004924D01*
X002138Y004923D02*
X002137Y004922D01*
X002136Y004922D01*
X002136Y004924D02*
X002136Y004924D01*
X002131Y004927D02*
X002130Y004925D01*
X002143Y004922D02*
X002145Y004922D01*
X002145Y004923D01*
X002145Y004923D01*
X002146Y004922D02*
X002148Y004925D01*
X002148Y004926D01*
X002148Y004926D01*
X002149Y004926D01*
X002149Y004925D01*
X002150Y004925D01*
X002151Y004925D01*
X002151Y004926D01*
X002151Y004926D01*
X002150Y004926D01*
X002149Y004926D01*
X002149Y004924D02*
X002149Y004924D01*
X002149Y004923D01*
X002149Y004922D01*
X002151Y004922D01*
X002151Y004924D01*
X002149Y004924D01*
X002150Y004924D02*
X002150Y004924D01*
X002151Y004925D01*
X002151Y004925D01*
X002152Y004925D01*
X002152Y004924D02*
X002153Y004924D01*
X002154Y004924D01*
X002154Y004923D01*
X002155Y004922D01*
X002156Y004922D01*
X002156Y004923D01*
X002156Y004924D01*
X002156Y004924D01*
X002155Y004924D01*
X002154Y004924D01*
X002154Y004923D01*
X002152Y004923D01*
X002152Y004924D01*
X002152Y004924D01*
X002152Y004923D02*
X002152Y004922D01*
X002153Y004922D01*
X002151Y004922D02*
X002150Y004921D01*
X002150Y004921D01*
X002151Y004925D02*
X002151Y004926D01*
X002152Y004926D01*
X002152Y004926D01*
X002151Y004926D01*
X002152Y004926D02*
X002152Y004926D01*
X002153Y004926D02*
X002153Y004926D01*
X002154Y004926D01*
X002154Y004926D01*
X002154Y004925D01*
X002155Y004925D02*
X002155Y004926D01*
X002156Y004926D01*
X002156Y004925D01*
X002155Y004925D01*
X002155Y004925D01*
X002155Y004926D02*
X002156Y004926D01*
X002156Y004926D01*
X002157Y004926D02*
X002157Y004926D01*
X002158Y004926D01*
X002158Y004927D02*
X002158Y004925D01*
X002157Y004925D01*
X002157Y004925D01*
X002157Y004926D01*
X002157Y004924D02*
X002157Y004922D01*
X002157Y004923D02*
X002158Y004924D01*
X002159Y004924D01*
X002159Y004923D01*
X002160Y004922D01*
X002161Y004922D01*
X002161Y004924D01*
X002160Y004924D01*
X002159Y004924D01*
X002158Y004925D02*
X002159Y004925D01*
X002159Y004927D01*
X002158Y004927D01*
X002160Y004926D02*
X002160Y004926D01*
X002161Y004926D01*
X002161Y004926D01*
X002161Y004926D01*
X002160Y004926D01*
X002160Y004925D01*
X002160Y004925D01*
X002161Y004925D01*
X002162Y004925D01*
X002163Y004925D01*
X002165Y004927D01*
X002166Y004927D01*
X002166Y004927D01*
X002166Y004925D01*
X002166Y004925D01*
X002165Y004925D01*
X002165Y004927D01*
X002165Y004925D02*
X002165Y004922D01*
X002164Y004922D02*
X002163Y004922D01*
X002162Y004923D01*
X002162Y004924D01*
X002163Y004924D01*
X002164Y004924D01*
X002164Y004923D01*
X002162Y004923D01*
X002161Y004922D02*
X002161Y004921D01*
X002160Y004921D01*
X002162Y004924D02*
X002162Y004924D01*
X002163Y004925D01*
X002163Y004926D01*
X002161Y004926D02*
X002161Y004925D01*
X002164Y004924D02*
X002164Y004924D01*
X002165Y004924D02*
X002165Y004924D01*
X002166Y004924D01*
X002167Y004924D01*
X002167Y004922D01*
X002168Y004923D02*
X002168Y004923D01*
X002168Y004922D01*
X002170Y004922D01*
X002170Y004924D01*
X002169Y004924D01*
X002168Y004924D01*
X002168Y004923D02*
X002170Y004923D01*
X002170Y004924D01*
X002171Y004924D01*
X002172Y004924D01*
X002172Y004925D02*
X002172Y004926D01*
X002173Y004926D01*
X002173Y004926D01*
X002173Y004925D01*
X002174Y004925D01*
X002174Y004926D01*
X002174Y004926D01*
X002174Y004925D01*
X002174Y004925D01*
X002175Y004925D01*
X002175Y004926D02*
X002174Y004926D01*
X002173Y004926D01*
X002173Y004926D01*
X002172Y004925D02*
X002172Y004926D01*
X002172Y004925D02*
X002172Y004922D01*
X002171Y004922D01*
X002170Y004923D01*
X002169Y004925D02*
X002170Y004925D01*
X002171Y004925D01*
X002172Y004925D01*
X002170Y004926D02*
X002170Y004925D01*
X002169Y004925D02*
X002169Y004925D01*
X002169Y004926D01*
X002169Y004926D01*
X002170Y004926D01*
X002168Y004926D02*
X002168Y004926D01*
X002168Y004925D01*
X002168Y004925D01*
X002167Y004925D01*
X002167Y004925D01*
X002167Y004926D01*
X002167Y004926D01*
X002168Y004926D01*
X002174Y004925D02*
X002174Y004922D01*
X002173Y004922D01*
X002175Y004923D02*
X002175Y004924D01*
X002175Y004924D01*
X002175Y004923D02*
X002177Y004923D01*
X002177Y004924D01*
X002176Y004924D01*
X002175Y004924D01*
X002175Y004923D02*
X002175Y004922D01*
X002176Y004922D01*
X002178Y004923D02*
X002178Y004922D01*
X002180Y004922D01*
X002179Y004921D01*
X002179Y004921D01*
X002180Y004922D02*
X002180Y004924D01*
X002180Y004925D02*
X002180Y004925D01*
X002179Y004925D01*
X002178Y004925D02*
X002178Y004925D01*
X002178Y004927D01*
X002178Y004926D02*
X002178Y004926D01*
X002177Y004926D02*
X002177Y004925D01*
X002177Y004926D02*
X002177Y004926D01*
X002176Y004926D01*
X002176Y004925D01*
X002175Y004926D02*
X002175Y004926D01*
X002175Y004926D01*
X002174Y004926D01*
X002178Y004924D02*
X002178Y004923D01*
X002181Y004922D02*
X002182Y004925D01*
X002183Y004925D02*
X002183Y004927D01*
X002184Y004925D01*
X002184Y004927D01*
X002185Y004927D01*
X002186Y004927D01*
X002187Y004927D02*
X002187Y004927D01*
X002188Y004927D02*
X002188Y004925D01*
X002188Y004925D01*
X002189Y004925D02*
X002189Y004926D01*
X002190Y004925D01*
X002190Y004927D01*
X002191Y004926D02*
X002190Y004926D01*
X002190Y004925D01*
X002191Y004925D01*
X002191Y004925D01*
X002192Y004925D01*
X002192Y004926D01*
X002191Y004926D01*
X002191Y004926D01*
X002192Y004925D02*
X002192Y004926D01*
X002193Y004926D01*
X002194Y004926D01*
X002194Y004926D01*
X002194Y004925D01*
X002194Y004925D01*
X002195Y004925D01*
X002195Y004927D01*
X002194Y004926D02*
X002195Y004926D01*
X002196Y004926D02*
X002196Y004926D01*
X002196Y004925D01*
X002196Y004925D01*
X002197Y004925D01*
X002197Y004926D02*
X002196Y004926D01*
X002197Y004926D01*
X002197Y004926D01*
X002197Y004926D01*
X002198Y004925D02*
X002198Y004926D01*
X002199Y004926D01*
X002198Y004926D02*
X002198Y004926D01*
X002199Y004925D02*
X002200Y004927D01*
X002201Y004927D02*
X002202Y004926D01*
X002202Y004927D01*
X002202Y004925D01*
X002203Y004924D02*
X002204Y004924D01*
X002205Y004924D01*
X002206Y004924D01*
X002206Y004923D02*
X002205Y004923D01*
X002204Y004924D01*
X002204Y004925D02*
X002203Y004925D01*
X002203Y004923D01*
X002204Y004922D01*
X002206Y004922D01*
X002206Y004923D01*
X002206Y004923D01*
X002207Y004922D02*
X002209Y004925D01*
X002208Y004925D01*
X002208Y004925D01*
X002208Y004926D01*
X002209Y004926D01*
X002209Y004925D01*
X002211Y004927D01*
X002211Y004925D01*
X002213Y004925D01*
X002213Y004926D01*
X002214Y004926D01*
X002214Y004926D01*
X002214Y004925D01*
X002213Y004925D01*
X002213Y004925D01*
X002214Y004925D01*
X002215Y004925D01*
X002216Y004925D01*
X002216Y004926D01*
X002215Y004926D01*
X002215Y004925D01*
X002215Y004925D01*
X002215Y004924D01*
X002214Y004924D01*
X002213Y004924D01*
X002214Y004924D02*
X002215Y004923D01*
X002214Y004922D01*
X002213Y004922D01*
X002213Y004925D01*
X002213Y004926D02*
X002214Y004926D01*
X002215Y004926D02*
X002215Y004926D01*
X002216Y004925D02*
X002216Y004926D01*
X002217Y004927D02*
X002217Y004927D01*
X002217Y004925D01*
X002217Y004925D01*
X002217Y004924D02*
X002218Y004924D01*
X002218Y004925D02*
X002218Y004923D01*
X002218Y004922D01*
X002219Y004922D02*
X002220Y004923D01*
X002221Y004922D01*
X002221Y004925D01*
X002222Y004925D02*
X002222Y004925D01*
X002223Y004925D01*
X002223Y004927D01*
X002223Y004927D01*
X002222Y004927D01*
X002222Y004927D01*
X002222Y004925D01*
X002223Y004925D02*
X002223Y004925D01*
X002224Y004925D01*
X002224Y004925D01*
X002225Y004925D01*
X002225Y004927D01*
X002224Y004927D01*
X002224Y004927D01*
X002223Y004927D01*
X002223Y004926D01*
X002224Y004926D01*
X002225Y004926D01*
X002226Y004926D01*
X002226Y004927D02*
X002226Y004925D01*
X002226Y004924D02*
X002227Y004924D01*
X002228Y004924D01*
X002229Y004924D01*
X002229Y004925D02*
X002230Y004925D01*
X002231Y004925D02*
X002231Y004925D01*
X002232Y004925D01*
X002232Y004926D01*
X002232Y004926D01*
X002232Y004925D01*
X002232Y004925D01*
X002233Y004925D01*
X002234Y004925D01*
X002235Y004925D01*
X002236Y004925D01*
X002236Y004925D01*
X002236Y004925D01*
X002236Y004925D01*
X002236Y004925D01*
X002236Y004926D01*
X002235Y004926D01*
X002235Y004926D01*
X002234Y004926D01*
X002234Y004925D01*
X002234Y004926D01*
X002233Y004926D01*
X002232Y004926D01*
X002231Y004926D01*
X002231Y004926D01*
X002231Y004925D01*
X002231Y004924D02*
X002232Y004924D01*
X002232Y004923D01*
X002230Y004923D01*
X002230Y004924D01*
X002231Y004924D01*
X002232Y004924D02*
X002232Y004924D01*
X002233Y004924D02*
X002233Y004922D01*
X002233Y004923D02*
X002234Y004924D01*
X002234Y004924D01*
X002233Y004924D02*
X002234Y004925D01*
X002235Y004925D02*
X002235Y004925D01*
X002233Y004924D02*
X002233Y004924D01*
X002232Y004922D02*
X002231Y004922D01*
X002230Y004923D01*
X002229Y004922D02*
X002228Y004922D01*
X002227Y004923D01*
X002227Y004924D01*
X002227Y004922D01*
X002229Y004922D02*
X002229Y004925D01*
X002229Y004927D01*
X002228Y004927D02*
X002228Y004925D01*
X002228Y004926D01*
X002227Y004925D01*
X002227Y004927D01*
X002225Y004926D02*
X002225Y004925D01*
X002225Y004924D02*
X002226Y004924D01*
X002225Y004924D02*
X002225Y004922D01*
X002224Y004923D02*
X002224Y004924D01*
X002223Y004924D01*
X002222Y004924D01*
X002222Y004923D01*
X002222Y004922D01*
X002223Y004922D01*
X002224Y004923D01*
X002222Y004924D02*
X002222Y004924D01*
X002220Y004925D02*
X002221Y004927D01*
X002219Y004926D02*
X002219Y004926D01*
X002219Y004926D01*
X002218Y004926D01*
X002218Y004926D01*
X002218Y004925D01*
X002218Y004925D01*
X002219Y004925D01*
X002219Y004922D01*
X002216Y004922D02*
X002215Y004922D01*
X002215Y004923D02*
X002215Y004923D01*
X002216Y004924D02*
X002216Y004922D01*
X002216Y004924D02*
X002216Y004925D01*
X002215Y004924D02*
X002216Y004924D01*
X002216Y004924D01*
X002218Y004926D02*
X002219Y004926D01*
X002224Y004926D02*
X002224Y004926D01*
X002213Y004927D02*
X002211Y004927D01*
X002211Y004926D02*
X002212Y004926D01*
X002212Y004925D02*
X002212Y004922D01*
X002210Y004925D01*
X002210Y004922D01*
X002208Y004926D02*
X002209Y004926D01*
X002209Y004926D01*
X002207Y004925D02*
X002206Y004925D01*
X002205Y004925D01*
X002205Y004925D01*
X002205Y004926D01*
X002206Y004926D01*
X002207Y004926D01*
X002207Y004925D01*
X002206Y004925D02*
X002206Y004927D01*
X002207Y004927D02*
X002207Y004927D01*
X002205Y004926D02*
X002205Y004926D01*
X002204Y004926D02*
X002204Y004926D01*
X002204Y004926D01*
X002203Y004926D01*
X002203Y004926D01*
X002203Y004925D01*
X002203Y004925D01*
X002204Y004926D02*
X002203Y004926D01*
X002201Y004925D02*
X002201Y004927D01*
X002201Y004924D02*
X002202Y004924D01*
X002202Y004922D01*
X002200Y004922D02*
X002200Y004924D01*
X002201Y004924D01*
X002199Y004924D02*
X002199Y004923D01*
X002197Y004923D01*
X002197Y004924D01*
X002198Y004924D01*
X002199Y004924D01*
X002199Y004924D01*
X002199Y004922D02*
X002198Y004922D01*
X002197Y004923D01*
X002196Y004924D02*
X002196Y004922D01*
X002195Y004922D02*
X002195Y004924D01*
X002196Y004924D01*
X002196Y004924D01*
X002195Y004924D02*
X002195Y004924D01*
X002194Y004924D01*
X002194Y004922D01*
X002194Y004924D01*
X002194Y004925D02*
X002194Y004926D01*
X002192Y004924D02*
X002192Y004923D01*
X002192Y004922D01*
X002194Y004922D01*
X002191Y004922D02*
X002189Y004922D01*
X002189Y004923D01*
X002189Y004924D01*
X002189Y004924D01*
X002191Y004924D01*
X002189Y004925D02*
X002189Y004927D01*
X002188Y004926D02*
X002187Y004926D01*
X002187Y004925D01*
X002186Y004925D01*
X002185Y004925D01*
X002185Y004925D01*
X002185Y004923D01*
X002185Y004922D01*
X002183Y004922D01*
X002183Y004925D01*
X002185Y004925D01*
X002184Y004925D01*
X002184Y004927D01*
X002184Y004926D02*
X002185Y004926D01*
X002186Y004926D01*
X002187Y004926D01*
X002186Y004926D02*
X002185Y004926D01*
X002186Y004927D02*
X002186Y004926D01*
X002186Y004925D01*
X002187Y004924D02*
X002186Y004924D01*
X002186Y004923D01*
X002187Y004922D01*
X002188Y004922D01*
X002188Y004923D01*
X002188Y004924D01*
X002188Y004924D01*
X002187Y004924D01*
X002182Y004927D02*
X002181Y004925D01*
X002180Y004925D02*
X002180Y004926D01*
X002179Y004926D01*
X002179Y004926D01*
X002179Y004926D01*
X002180Y004926D01*
X002153Y004927D02*
X002153Y004925D01*
X002147Y004926D02*
X002147Y004926D01*
X002235Y004922D02*
X002237Y004925D01*
X002238Y004925D01*
X002238Y004925D01*
X002238Y004926D01*
X002238Y004926D01*
X002237Y004926D01*
X002237Y004927D02*
X002237Y004925D01*
X002238Y004925D02*
X002239Y004924D01*
X002240Y004925D01*
X002240Y004926D01*
X002240Y004926D01*
X002239Y004926D01*
X002239Y004926D01*
X002239Y004926D01*
X002239Y004925D01*
X002239Y004926D01*
X002240Y004925D02*
X002240Y004922D01*
X002241Y004923D02*
X002241Y004924D01*
X002241Y004924D01*
X002242Y004924D01*
X002243Y004924D01*
X002243Y004923D01*
X002243Y004924D01*
X002244Y004924D01*
X002245Y004924D01*
X002246Y004924D02*
X002247Y004924D01*
X002247Y004922D01*
X002246Y004922D01*
X002245Y004922D02*
X002244Y004922D01*
X002243Y004923D01*
X002241Y004923D01*
X002241Y004922D01*
X002242Y004922D01*
X002241Y004924D02*
X002241Y004926D01*
X002242Y004926D01*
X002242Y004925D01*
X002242Y004925D01*
X002241Y004925D01*
X002242Y004926D02*
X002242Y004926D01*
X002245Y004925D02*
X002245Y004922D01*
X002248Y004923D02*
X002248Y004923D01*
X002248Y004922D01*
X002250Y004922D01*
X002250Y004924D01*
X002249Y004924D01*
X002248Y004924D01*
X002248Y004923D02*
X002250Y004923D01*
X002251Y004922D02*
X002253Y004925D01*
X002253Y004922D01*
X002255Y004922D01*
X002256Y004923D02*
X002257Y004923D01*
X002258Y004923D01*
X002258Y004922D02*
X002257Y004922D01*
X002256Y004923D01*
X002257Y004924D02*
X002258Y004924D01*
X002258Y004922D01*
X002259Y004923D02*
X002260Y004922D01*
X002260Y004921D02*
X002261Y004921D01*
X002261Y004922D01*
X002261Y004924D01*
X002260Y004924D01*
X002259Y004924D01*
X002259Y004923D01*
X002260Y004922D02*
X002261Y004922D01*
X002262Y004922D02*
X002263Y004922D01*
X002262Y004922D02*
X002262Y004925D01*
X002262Y004925D01*
X002264Y004924D02*
X002264Y004924D01*
X002264Y004923D01*
X002264Y004922D01*
X002265Y004922D01*
X002266Y004922D02*
X002268Y004925D01*
X002269Y004925D02*
X002269Y004923D01*
X002270Y004922D01*
X002271Y004922D01*
X002271Y004923D01*
X002271Y004925D01*
X002271Y004925D01*
X002270Y004925D01*
X002269Y004925D01*
X002272Y004925D02*
X002272Y004924D01*
X002273Y004924D01*
X002274Y004923D01*
X002273Y004922D01*
X002272Y004922D01*
X002272Y004923D01*
X002272Y004924D02*
X002272Y004924D01*
X002272Y004925D02*
X002272Y004925D01*
X002273Y004925D01*
X002274Y004925D01*
X002275Y004925D02*
X002275Y004922D01*
X002274Y004923D02*
X002274Y004923D01*
X002275Y004924D02*
X002277Y004924D01*
X002277Y004925D02*
X002277Y004922D01*
X002278Y004923D01*
X002279Y004922D01*
X002279Y004925D01*
X002280Y004925D02*
X002280Y004922D01*
X002282Y004922D01*
X002283Y004923D02*
X002283Y004922D01*
X002284Y004922D01*
X002285Y004923D01*
X002285Y004924D01*
X002284Y004924D01*
X002283Y004924D01*
X002283Y004923D01*
X002283Y004924D02*
X002283Y004924D01*
X002286Y004924D02*
X002286Y004923D01*
X002286Y004922D01*
X002288Y004922D01*
X002288Y004924D01*
X002288Y004923D01*
X002289Y004922D01*
X002290Y004922D01*
X002290Y004923D01*
X002290Y004924D01*
X002290Y004924D01*
X002289Y004924D01*
X002288Y004924D01*
X002286Y004924D01*
X002286Y004924D01*
X002288Y004922D02*
X002287Y004921D01*
X002287Y004921D01*
X002291Y004922D02*
X002292Y004922D01*
X002292Y004923D01*
X002291Y004923D01*
X002291Y004922D01*
X002293Y004922D02*
X002294Y004922D01*
X002295Y004923D01*
X002295Y004924D01*
X002296Y004924D01*
X002297Y004924D01*
X002297Y004922D01*
X002296Y004922D02*
X002296Y004924D01*
X002296Y004924D01*
X002295Y004924D02*
X002295Y004922D01*
X002295Y004924D02*
X002294Y004924D01*
X002293Y004924D01*
X002293Y004925D02*
X002293Y004922D01*
X002297Y004924D02*
X002297Y004924D01*
X002298Y004924D02*
X002300Y004924D01*
X002300Y004923D01*
X002300Y004922D01*
X002298Y004922D01*
X002298Y004921D02*
X002298Y004924D01*
X002300Y004924D02*
X002300Y004924D01*
X002277Y004925D02*
X002277Y004922D01*
X002266Y004923D02*
X002264Y004923D01*
X002264Y004924D02*
X002265Y004924D01*
X002266Y004924D01*
X002266Y004923D01*
X002258Y004924D02*
X002258Y004924D01*
X002255Y004925D02*
X002253Y004925D01*
X002253Y004924D02*
X002254Y004924D01*
X002247Y004926D02*
X002247Y004925D01*
X002238Y004922D02*
X002238Y004925D01*
D11*
X001695Y004944D02*
X001695Y004799D01*
X001647Y004751D01*
X001598Y004799D01*
X001598Y004944D01*
X001550Y004944D02*
X001695Y004944D01*
X001695Y005045D02*
X001502Y005045D01*
X001598Y005045D02*
X001502Y005142D01*
X001502Y005190D01*
X001598Y005291D02*
X001502Y005436D01*
X001502Y005536D02*
X001647Y005536D01*
X001695Y005585D01*
X001695Y005730D01*
X001502Y005730D01*
X001550Y005831D02*
X001502Y005879D01*
X001502Y006025D01*
X001598Y005976D02*
X001598Y005879D01*
X001550Y005831D01*
X001695Y005831D02*
X001695Y005976D01*
X001647Y006025D01*
X001598Y005976D01*
X001215Y005978D02*
X001167Y005929D01*
X001070Y005929D01*
X001022Y005978D01*
X001022Y006123D01*
X000925Y006123D02*
X001215Y006123D01*
X001215Y005978D01*
X001118Y005828D02*
X001118Y005635D01*
X001070Y005635D02*
X001022Y005683D01*
X001022Y005780D01*
X001070Y005828D01*
X001118Y005828D01*
X001215Y005780D02*
X001215Y005683D01*
X001167Y005635D01*
X001070Y005635D01*
X001070Y005533D02*
X001215Y005533D01*
X001070Y005533D02*
X001022Y005485D01*
X001022Y005340D01*
X001215Y005340D01*
X001215Y005239D02*
X001215Y005094D01*
X001167Y005045D01*
X001070Y005045D01*
X001022Y005094D01*
X001022Y005239D01*
X001263Y005239D01*
X001312Y005190D01*
X001312Y005142D01*
X001405Y005291D02*
X001695Y005291D01*
X001598Y005291D02*
X001695Y005436D01*
X001550Y004944D02*
X001502Y004896D01*
X001502Y004799D01*
X001405Y004650D02*
X001695Y004650D01*
X001695Y004456D02*
X001405Y004456D01*
X001502Y004553D01*
X001405Y004650D01*
X001215Y004699D02*
X001167Y004748D01*
X001118Y004699D01*
X001118Y004603D01*
X001070Y004554D01*
X001022Y004603D01*
X001022Y004748D01*
X001022Y004849D02*
X001022Y004897D01*
X001215Y004897D01*
X001215Y004849D02*
X001215Y004946D01*
X001215Y004699D02*
X001215Y004554D01*
X001118Y004453D02*
X001118Y004260D01*
X001070Y004260D02*
X001022Y004308D01*
X001022Y004405D01*
X001070Y004453D01*
X001118Y004453D01*
X001215Y004405D02*
X001215Y004308D01*
X001167Y004260D01*
X001070Y004260D01*
X001167Y004158D02*
X000973Y004158D01*
X000925Y004110D01*
X000925Y003965D01*
X001215Y003965D01*
X001215Y004110D01*
X001167Y004158D01*
X001550Y004062D02*
X001550Y003965D01*
X001598Y003965D02*
X001598Y004062D01*
X001550Y004062D02*
X001743Y004062D01*
X000925Y004897D02*
X000876Y004897D01*
X001405Y006420D02*
X001405Y006565D01*
X001453Y006614D01*
X001502Y006614D01*
X001550Y006565D01*
X001550Y006420D01*
X001695Y006420D02*
X001405Y006420D01*
X001550Y006565D02*
X001598Y006614D01*
X001647Y006614D01*
X001695Y006565D01*
X001695Y006420D01*
X001647Y006715D02*
X001598Y006763D01*
X001598Y006909D01*
X001550Y006909D02*
X001695Y006909D01*
X001695Y006763D01*
X001647Y006715D01*
X001502Y006763D02*
X001502Y006860D01*
X001550Y006909D01*
X001550Y007010D02*
X001502Y007058D01*
X001502Y007203D01*
X001405Y007203D02*
X001695Y007203D01*
X001695Y007058D01*
X001647Y007010D01*
X001550Y007010D01*
X001550Y007304D02*
X001502Y007353D01*
X001502Y007449D01*
X001550Y007498D01*
X001598Y007498D01*
X001598Y007304D01*
X001550Y007304D02*
X001647Y007304D01*
X001695Y007353D01*
X001695Y007449D01*
X001695Y007599D02*
X001502Y007599D01*
X001502Y007744D01*
X001550Y007792D01*
X001695Y007792D01*
X001695Y008188D02*
X001502Y008188D01*
X001405Y008285D01*
X001502Y008382D01*
X001695Y008382D01*
X001695Y008483D02*
X001695Y008628D01*
X001647Y008676D01*
X001550Y008676D01*
X001502Y008628D01*
X001502Y008483D01*
X001792Y008483D01*
X001647Y008778D02*
X001598Y008826D01*
X001598Y008971D01*
X001550Y008971D02*
X001695Y008971D01*
X001695Y008826D01*
X001647Y008778D01*
X001502Y008826D02*
X001502Y008923D01*
X001550Y008971D01*
X001550Y009072D02*
X001647Y009072D01*
X001695Y009121D01*
X001695Y009266D01*
X001695Y009367D02*
X001405Y009367D01*
X001502Y009415D02*
X001502Y009512D01*
X001550Y009560D01*
X001695Y009560D01*
X001647Y009662D02*
X001550Y009662D01*
X001502Y009710D01*
X001502Y009807D01*
X001550Y009855D01*
X001598Y009855D01*
X001598Y009662D01*
X001647Y009662D02*
X001695Y009710D01*
X001695Y009807D01*
X001502Y009415D02*
X001550Y009367D01*
X001502Y009266D02*
X001502Y009121D01*
X001550Y009072D01*
X001215Y009119D02*
X001167Y009168D01*
X001070Y009168D01*
X001022Y009119D01*
X001022Y009022D01*
X001070Y008974D01*
X001167Y008974D01*
X001215Y009022D01*
X001215Y009119D01*
X001215Y009269D02*
X001022Y009269D01*
X001118Y009269D02*
X001022Y009365D01*
X001022Y009414D01*
X001070Y009514D02*
X001022Y009563D01*
X001022Y009659D01*
X001070Y009708D01*
X001118Y009708D01*
X001118Y009514D01*
X001070Y009514D02*
X001167Y009514D01*
X001215Y009563D01*
X001215Y009659D01*
X001167Y010104D02*
X000973Y010104D01*
X000925Y010152D01*
X000925Y010249D01*
X000973Y010297D01*
X001167Y010104D01*
X001215Y010152D01*
X001215Y010249D01*
X001167Y010297D01*
X000973Y010297D01*
X000925Y010398D02*
X001070Y010398D01*
X001022Y010495D01*
X001022Y010543D01*
X001070Y010592D01*
X001167Y010592D01*
X001215Y010543D01*
X001215Y010447D01*
X001167Y010398D01*
X000925Y010398D02*
X000925Y010592D01*
X000925Y010886D02*
X001215Y010693D01*
X001405Y010741D02*
X001405Y010838D01*
X001453Y010886D01*
X001647Y010693D01*
X001695Y010741D01*
X001695Y010838D01*
X001647Y010886D01*
X001453Y010886D01*
X001405Y010741D02*
X001453Y010693D01*
X001647Y010693D01*
X001647Y010594D02*
X001695Y010594D01*
X001695Y010545D01*
X001647Y010545D01*
X001647Y010594D01*
X001695Y010444D02*
X001695Y010251D01*
X001502Y010444D01*
X001453Y010444D01*
X001405Y010396D01*
X001405Y010299D01*
X001453Y010251D01*
X001215Y010987D02*
X001215Y011181D01*
X001215Y011084D02*
X000925Y011084D01*
X001022Y010987D01*
X001070Y011282D02*
X000925Y011427D01*
X001215Y011427D01*
X001070Y011476D02*
X001070Y011282D01*
X001356Y011625D02*
X001405Y011625D01*
X001502Y011625D02*
X001695Y011625D01*
X001695Y011577D02*
X001695Y011674D01*
X001647Y011773D02*
X001695Y011822D01*
X001695Y011967D01*
X001647Y012068D02*
X001550Y012068D01*
X001502Y012116D01*
X001502Y012213D01*
X001550Y012261D01*
X001598Y012261D01*
X001598Y012068D01*
X001647Y012068D02*
X001695Y012116D01*
X001695Y012213D01*
X001695Y012363D02*
X001502Y012363D01*
X001502Y012508D01*
X001550Y012556D01*
X001695Y012556D01*
X001695Y012657D02*
X001695Y012802D01*
X001647Y012851D01*
X001598Y012802D01*
X001598Y012706D01*
X001550Y012657D01*
X001502Y012706D01*
X001502Y012851D01*
X001550Y012952D02*
X001502Y013000D01*
X001502Y013097D01*
X001550Y013145D01*
X001598Y013145D01*
X001598Y012952D01*
X001550Y012952D02*
X001647Y012952D01*
X001695Y013000D01*
X001695Y013097D01*
X001502Y011967D02*
X001502Y011822D01*
X001550Y011773D01*
X001647Y011773D01*
X001502Y011625D02*
X001502Y011577D01*
X001695Y011476D02*
X001695Y011282D01*
X001405Y011282D01*
X001167Y008873D02*
X001215Y008824D01*
X001215Y008679D01*
X001312Y008679D02*
X001022Y008679D01*
X001022Y008824D01*
X001070Y008873D01*
X001167Y008873D01*
X001215Y008578D02*
X001070Y008578D01*
X001022Y008530D01*
X001022Y008433D01*
X001118Y008433D02*
X001118Y008578D01*
X001215Y008578D02*
X001215Y008433D01*
X001167Y008385D01*
X001118Y008433D01*
X001022Y008284D02*
X001022Y008138D01*
X001070Y008090D01*
X001167Y008090D01*
X001215Y008138D01*
X001215Y008284D01*
X001263Y008284D02*
X001022Y008284D01*
X001263Y008284D02*
X001312Y008235D01*
X001312Y008187D01*
X001215Y007989D02*
X001070Y007989D01*
X001022Y007941D01*
X001022Y007795D01*
X001215Y007795D01*
X001215Y007696D02*
X001215Y007599D01*
X001215Y007647D02*
X001022Y007647D01*
X001022Y007599D01*
X000925Y007647D02*
X000876Y007647D01*
X000973Y007498D02*
X000925Y007449D01*
X000925Y007353D01*
X000973Y007304D01*
X001022Y007304D01*
X001070Y007353D01*
X001070Y007449D01*
X001118Y007498D01*
X001167Y007498D01*
X001215Y007449D01*
X001215Y007353D01*
X001167Y007304D01*
X001215Y006909D02*
X001070Y006909D01*
X001022Y006860D01*
X001022Y006715D01*
X001215Y006715D01*
X001215Y006615D02*
X001215Y006519D01*
X001215Y006567D02*
X001022Y006567D01*
X001022Y006519D01*
X000925Y006567D02*
X000876Y006567D01*
X001550Y008188D02*
X001550Y008382D01*
X004545Y012455D02*
X004738Y012455D01*
X004642Y012455D02*
X004642Y012745D01*
X004545Y012648D01*
X004840Y012697D02*
X004888Y012745D01*
X004985Y012745D01*
X005033Y012697D01*
X005033Y012648D01*
X004840Y012455D01*
X005033Y012455D01*
X005134Y012552D02*
X005231Y012455D01*
X005328Y012552D01*
X005328Y012745D01*
X005134Y012745D02*
X005134Y012552D01*
X005084Y016195D02*
X005229Y016195D01*
X005278Y016243D01*
X005278Y016437D01*
X005229Y016485D01*
X005084Y016485D01*
X005084Y016195D01*
X004983Y016195D02*
X004983Y016485D01*
X004790Y016485D02*
X004790Y016195D01*
X004688Y016243D02*
X004688Y016340D01*
X004592Y016340D01*
X004688Y016243D02*
X004640Y016195D01*
X004543Y016195D01*
X004495Y016243D01*
X004495Y016437D01*
X004543Y016485D01*
X004640Y016485D01*
X004688Y016437D01*
X004790Y016485D02*
X004983Y016195D01*
X016965Y016108D02*
X017062Y016205D01*
X017062Y015915D01*
X017158Y015915D02*
X016965Y015915D01*
X017260Y015915D02*
X017453Y016108D01*
X017453Y016157D01*
X017405Y016205D01*
X017308Y016205D01*
X017260Y016157D01*
X017260Y015915D02*
X017453Y015915D01*
X017554Y016012D02*
X017554Y016205D01*
X017554Y016012D02*
X017651Y015915D01*
X017748Y016012D01*
X017748Y016205D01*
X017443Y015175D02*
X017443Y014982D01*
X017346Y014885D01*
X017250Y014982D01*
X017250Y015175D01*
X017148Y015175D02*
X016955Y015175D01*
X016955Y015030D01*
X017052Y015078D01*
X017100Y015078D01*
X017148Y015030D01*
X017148Y014933D01*
X017100Y014885D01*
X017003Y014885D01*
X016955Y014933D01*
X017033Y014245D02*
X016985Y014197D01*
X016985Y014003D01*
X017033Y013955D01*
X017130Y013955D01*
X017178Y014003D01*
X017178Y014100D01*
X017082Y014100D01*
X017178Y014197D02*
X017130Y014245D01*
X017033Y014245D01*
X017280Y014245D02*
X017473Y013955D01*
X017473Y014245D01*
X017574Y014245D02*
X017719Y014245D01*
X017768Y014197D01*
X017768Y014003D01*
X017719Y013955D01*
X017574Y013955D01*
X017574Y014245D01*
X017280Y014245D02*
X017280Y013955D01*
D12*
X011210Y011010D02*
X011210Y008390D01*
X008450Y008390D01*
X008450Y011150D01*
X011070Y011150D01*
X011210Y011010D01*
X011476Y006367D02*
X013444Y006367D01*
X013444Y004793D01*
X011597Y004793D01*
X011476Y004914D01*
X011476Y006367D01*
X000790Y013553D02*
X000790Y013627D01*
X000717Y013700D01*
X000350Y013700D01*
X000350Y013627D02*
X000350Y013774D01*
X000570Y013940D02*
X000570Y014234D01*
X000790Y014161D02*
X000350Y014161D01*
X000570Y013940D01*
X000790Y013553D02*
X000717Y013480D01*
D13*
X011210Y011300D02*
X011212Y011324D01*
X011218Y011348D01*
X011227Y011370D01*
X011240Y011390D01*
X011256Y011408D01*
X011275Y011423D01*
X011296Y011436D01*
X011318Y011444D01*
X011342Y011449D01*
X011366Y011450D01*
X011390Y011447D01*
X011413Y011440D01*
X011435Y011430D01*
X011455Y011416D01*
X011472Y011399D01*
X011487Y011380D01*
X011498Y011359D01*
X011506Y011336D01*
X011510Y011312D01*
X011510Y011288D01*
X011506Y011264D01*
X011498Y011241D01*
X011487Y011220D01*
X011472Y011201D01*
X011455Y011184D01*
X011435Y011170D01*
X011413Y011160D01*
X011390Y011153D01*
X011366Y011150D01*
X011342Y011151D01*
X011318Y011156D01*
X011296Y011164D01*
X011275Y011177D01*
X011256Y011192D01*
X011240Y011210D01*
X011227Y011230D01*
X011218Y011252D01*
X011212Y011276D01*
X011210Y011300D01*
D14*
X011850Y010421D02*
X012160Y010421D01*
X012160Y010318D02*
X012160Y010524D01*
X011953Y010318D02*
X011850Y010421D01*
X011850Y010202D02*
X012108Y010202D01*
X012160Y010151D01*
X012160Y010047D01*
X012108Y009995D01*
X011850Y009995D01*
X012590Y009923D02*
X012590Y009819D01*
X012641Y009768D01*
X012641Y009652D02*
X012745Y009652D01*
X012797Y009601D01*
X012797Y009445D01*
X012900Y009445D02*
X012590Y009445D01*
X012590Y009601D01*
X012641Y009652D01*
X012797Y009549D02*
X012900Y009652D01*
X012900Y009768D02*
X012693Y009974D01*
X012641Y009974D01*
X012590Y009923D01*
X012900Y009974D02*
X012900Y009768D01*
X015830Y009313D02*
X015881Y009364D01*
X015933Y009364D01*
X015985Y009313D01*
X016037Y009364D01*
X016088Y009364D01*
X016140Y009313D01*
X016140Y009209D01*
X016088Y009158D01*
X015985Y009261D02*
X015985Y009313D01*
X015830Y009313D02*
X015830Y009209D01*
X015881Y009158D01*
X015830Y009042D02*
X015830Y008939D01*
X015830Y008991D02*
X016088Y008991D01*
X016140Y008939D01*
X016140Y008887D01*
X016088Y008835D01*
X016370Y008778D02*
X016370Y008984D01*
X016473Y008933D02*
X016525Y008984D01*
X016628Y008984D01*
X016680Y008933D01*
X016680Y008829D01*
X016628Y008778D01*
X016525Y008778D02*
X016473Y008881D01*
X016473Y008933D01*
X016525Y008778D02*
X016370Y008778D01*
X016421Y008662D02*
X016370Y008611D01*
X016370Y008507D01*
X016421Y008455D01*
X016628Y008455D01*
X016680Y008507D01*
X016680Y008611D01*
X016628Y008662D01*
X016403Y006600D02*
X016248Y006445D01*
X016455Y006445D01*
X016403Y006290D02*
X016403Y006600D01*
X016132Y006548D02*
X016132Y006445D01*
X016081Y006393D01*
X015925Y006393D01*
X015925Y006290D02*
X015925Y006600D01*
X016081Y006600D01*
X016132Y006548D01*
X016029Y006393D02*
X016132Y006290D01*
X013600Y003209D02*
X013600Y003002D01*
X013600Y003106D02*
X013290Y003106D01*
X013393Y003002D01*
X013341Y002887D02*
X013290Y002835D01*
X013290Y002680D01*
X013600Y002680D01*
X013600Y002835D01*
X013548Y002887D01*
X013341Y002887D01*
X011960Y002887D02*
X011857Y002783D01*
X011857Y002835D02*
X011857Y002680D01*
X011960Y002680D02*
X011650Y002680D01*
X011650Y002835D01*
X011701Y002887D01*
X011805Y002887D01*
X011857Y002835D01*
X011908Y003002D02*
X011960Y003054D01*
X011960Y003157D01*
X011908Y003209D01*
X011857Y003209D01*
X011805Y003157D01*
X011805Y003106D01*
X011805Y003157D02*
X011753Y003209D01*
X011701Y003209D01*
X011650Y003157D01*
X011650Y003054D01*
X011701Y003002D01*
X011438Y004850D02*
X011180Y004850D01*
X011180Y005057D02*
X011438Y005057D01*
X011490Y005005D01*
X011490Y004902D01*
X011438Y004850D01*
X011490Y005172D02*
X011283Y005379D01*
X011231Y005379D01*
X011180Y005327D01*
X011180Y005224D01*
X011231Y005172D01*
X011490Y005172D02*
X011490Y005379D01*
X008577Y006830D02*
X008577Y007140D01*
X008422Y006985D01*
X008629Y006985D01*
X008307Y006882D02*
X008255Y006830D01*
X008152Y006830D01*
X008100Y006882D01*
X008100Y007088D01*
X008152Y007140D01*
X008255Y007140D01*
X008307Y007088D01*
X006740Y009020D02*
X006430Y009020D01*
X006430Y009175D01*
X006481Y009227D01*
X006585Y009227D01*
X006637Y009175D01*
X006637Y009020D01*
X006637Y009123D02*
X006740Y009227D01*
X006740Y009342D02*
X006740Y009549D01*
X006740Y009446D02*
X006430Y009446D01*
X006533Y009342D01*
X004610Y009307D02*
X004300Y009100D01*
X004300Y009307D02*
X004610Y009100D01*
X004610Y009422D02*
X004610Y009629D01*
X004610Y009526D02*
X004300Y009526D01*
X004403Y009422D01*
X003469Y009740D02*
X003262Y009740D01*
X003469Y009947D01*
X003469Y009998D01*
X003417Y010050D01*
X003314Y010050D01*
X003262Y009998D01*
X003147Y009998D02*
X003095Y010050D01*
X002992Y010050D01*
X002940Y009998D01*
X002940Y009792D01*
X002992Y009740D01*
X003095Y009740D01*
X003147Y009792D01*
X003105Y010660D02*
X003157Y010712D01*
X003105Y010660D02*
X003002Y010660D01*
X002950Y010712D01*
X002950Y010918D01*
X003002Y010970D01*
X003105Y010970D01*
X003157Y010918D01*
X003272Y010867D02*
X003376Y010970D01*
X003376Y010660D01*
X003479Y010660D02*
X003272Y010660D01*
X005681Y013560D02*
X005888Y013560D01*
X005940Y013612D01*
X005940Y013715D01*
X005888Y013767D01*
X005888Y013882D02*
X005940Y013934D01*
X005940Y014037D01*
X005888Y014089D01*
X005837Y014089D01*
X005785Y014037D01*
X005785Y013882D01*
X005888Y013882D01*
X005785Y013882D02*
X005681Y013986D01*
X005630Y014089D01*
X005681Y013767D02*
X005630Y013715D01*
X005630Y013612D01*
X005681Y013560D01*
X008320Y013098D02*
X008320Y012892D01*
X008372Y012840D01*
X008475Y012840D01*
X008527Y012892D01*
X008642Y012892D02*
X008694Y012840D01*
X008797Y012840D01*
X008849Y012892D01*
X008849Y012943D01*
X008797Y012995D01*
X008746Y012995D01*
X008797Y012995D02*
X008849Y013047D01*
X008849Y013098D01*
X008797Y013150D01*
X008694Y013150D01*
X008642Y013098D01*
X008527Y013098D02*
X008475Y013150D01*
X008372Y013150D01*
X008320Y013098D01*
X012070Y014525D02*
X012328Y014525D01*
X012380Y014577D01*
X012380Y014681D01*
X012328Y014732D01*
X012070Y014732D01*
X012121Y014848D02*
X012070Y014899D01*
X012070Y015003D01*
X012121Y015054D01*
X012173Y015054D01*
X012225Y015003D01*
X012277Y015054D01*
X012328Y015054D01*
X012380Y015003D01*
X012380Y014899D01*
X012328Y014848D01*
X012225Y014951D02*
X012225Y015003D01*
X012780Y014715D02*
X013880Y014715D01*
X013880Y012965D01*
X012780Y012965D01*
X012780Y014715D01*
X014100Y014494D02*
X014100Y014288D01*
X014151Y014172D02*
X014100Y014121D01*
X014100Y014017D01*
X014151Y013965D01*
X014358Y013965D01*
X014410Y014017D01*
X014410Y014121D01*
X014358Y014172D01*
X014358Y014288D02*
X014410Y014288D01*
X014358Y014288D02*
X014151Y014494D01*
X014100Y014494D01*
X014932Y016670D02*
X014880Y016722D01*
X014932Y016670D02*
X014983Y016670D01*
X015035Y016722D01*
X015035Y016980D01*
X014983Y016980D02*
X015087Y016980D01*
X015202Y016980D02*
X015202Y016825D01*
X015306Y016877D01*
X015357Y016877D01*
X015409Y016825D01*
X015409Y016722D01*
X015357Y016670D01*
X015254Y016670D01*
X015202Y016722D01*
X015202Y016980D02*
X015409Y016980D01*
X017263Y013470D02*
X017367Y013470D01*
X017315Y013470D02*
X017315Y013212D01*
X017263Y013160D01*
X017212Y013160D01*
X017160Y013212D01*
X017482Y013160D02*
X017689Y013367D01*
X017689Y013418D01*
X017637Y013470D01*
X017534Y013470D01*
X017482Y013418D01*
X017482Y013160D02*
X017689Y013160D01*
X007171Y004530D02*
X007171Y004220D01*
X007068Y004220D02*
X007275Y004220D01*
X007068Y004427D02*
X007171Y004530D01*
X006952Y004530D02*
X006849Y004530D01*
X006901Y004530D02*
X006901Y004272D01*
X006849Y004220D01*
X006797Y004220D01*
X006745Y004272D01*
D15*
X006620Y004800D02*
X006620Y007800D01*
X007620Y007800D01*
X007620Y004800D01*
X006620Y004800D01*
X005620Y004800D01*
X005620Y007800D01*
X006620Y007800D01*
X006010Y008846D02*
X005852Y008846D01*
X006010Y008846D02*
X006010Y010814D01*
X005852Y010814D01*
X005380Y010280D02*
X005380Y010080D01*
X005880Y010080D01*
X005780Y009930D02*
X004980Y009930D01*
X004980Y009730D01*
X005780Y009730D01*
X005780Y009930D01*
X005880Y009580D02*
X005380Y009580D01*
X005380Y009380D01*
X005380Y009580D02*
X004880Y009580D01*
X004880Y010080D02*
X005380Y010080D01*
X004908Y010814D02*
X004750Y010814D01*
X004750Y008846D01*
X004908Y008846D01*
X004220Y009220D02*
X003120Y009220D01*
X003120Y009720D01*
X004220Y009720D01*
X004220Y009220D01*
X004230Y010140D02*
X003130Y010140D01*
X003130Y010640D01*
X004230Y010640D01*
X004230Y010140D01*
X004170Y012400D02*
X004170Y016500D01*
X000970Y016500D01*
X000970Y012400D01*
X004170Y012400D01*
X003570Y012500D02*
X003570Y016400D01*
X001570Y016400D01*
X001570Y012500D01*
X003570Y012500D01*
X001669Y013450D02*
X001671Y013510D01*
X001677Y013569D01*
X001687Y013628D01*
X001700Y013686D01*
X001718Y013743D01*
X001739Y013798D01*
X001764Y013852D01*
X001792Y013905D01*
X001824Y013955D01*
X001859Y014003D01*
X001897Y014049D01*
X001938Y014092D01*
X001982Y014133D01*
X002028Y014170D01*
X002077Y014204D01*
X002128Y014235D01*
X002181Y014263D01*
X002236Y014287D01*
X002292Y014307D01*
X002349Y014323D01*
X002407Y014336D01*
X002466Y014345D01*
X002525Y014350D01*
X002585Y014351D01*
X002644Y014348D01*
X002704Y014341D01*
X002762Y014330D01*
X002820Y014316D01*
X002877Y014297D01*
X002932Y014275D01*
X002986Y014249D01*
X003038Y014220D01*
X003087Y014188D01*
X003135Y014152D01*
X003180Y014113D01*
X003223Y014071D01*
X003262Y014027D01*
X003299Y013980D01*
X003332Y013930D01*
X003362Y013879D01*
X003389Y013826D01*
X003412Y013771D01*
X003431Y013714D01*
X003447Y013657D01*
X003459Y013598D01*
X003467Y013539D01*
X003471Y013480D01*
X003471Y013420D01*
X003467Y013361D01*
X003459Y013302D01*
X003447Y013243D01*
X003431Y013186D01*
X003412Y013129D01*
X003389Y013074D01*
X003362Y013021D01*
X003332Y012970D01*
X003299Y012920D01*
X003262Y012873D01*
X003223Y012829D01*
X003180Y012787D01*
X003135Y012748D01*
X003087Y012712D01*
X003038Y012680D01*
X002986Y012651D01*
X002932Y012625D01*
X002877Y012603D01*
X002820Y012584D01*
X002762Y012570D01*
X002704Y012559D01*
X002644Y012552D01*
X002585Y012549D01*
X002525Y012550D01*
X002466Y012555D01*
X002407Y012564D01*
X002349Y012577D01*
X002292Y012593D01*
X002236Y012613D01*
X002181Y012637D01*
X002128Y012665D01*
X002077Y012696D01*
X002028Y012730D01*
X001982Y012767D01*
X001938Y012808D01*
X001897Y012851D01*
X001859Y012897D01*
X001824Y012945D01*
X001792Y012995D01*
X001764Y013048D01*
X001739Y013102D01*
X001718Y013157D01*
X001700Y013214D01*
X001687Y013272D01*
X001677Y013331D01*
X001671Y013390D01*
X001669Y013450D01*
X001669Y015450D02*
X001671Y015510D01*
X001677Y015569D01*
X001687Y015628D01*
X001700Y015686D01*
X001718Y015743D01*
X001739Y015798D01*
X001764Y015852D01*
X001792Y015905D01*
X001824Y015955D01*
X001859Y016003D01*
X001897Y016049D01*
X001938Y016092D01*
X001982Y016133D01*
X002028Y016170D01*
X002077Y016204D01*
X002128Y016235D01*
X002181Y016263D01*
X002236Y016287D01*
X002292Y016307D01*
X002349Y016323D01*
X002407Y016336D01*
X002466Y016345D01*
X002525Y016350D01*
X002585Y016351D01*
X002644Y016348D01*
X002704Y016341D01*
X002762Y016330D01*
X002820Y016316D01*
X002877Y016297D01*
X002932Y016275D01*
X002986Y016249D01*
X003038Y016220D01*
X003087Y016188D01*
X003135Y016152D01*
X003180Y016113D01*
X003223Y016071D01*
X003262Y016027D01*
X003299Y015980D01*
X003332Y015930D01*
X003362Y015879D01*
X003389Y015826D01*
X003412Y015771D01*
X003431Y015714D01*
X003447Y015657D01*
X003459Y015598D01*
X003467Y015539D01*
X003471Y015480D01*
X003471Y015420D01*
X003467Y015361D01*
X003459Y015302D01*
X003447Y015243D01*
X003431Y015186D01*
X003412Y015129D01*
X003389Y015074D01*
X003362Y015021D01*
X003332Y014970D01*
X003299Y014920D01*
X003262Y014873D01*
X003223Y014829D01*
X003180Y014787D01*
X003135Y014748D01*
X003087Y014712D01*
X003038Y014680D01*
X002986Y014651D01*
X002932Y014625D01*
X002877Y014603D01*
X002820Y014584D01*
X002762Y014570D01*
X002704Y014559D01*
X002644Y014552D01*
X002585Y014549D01*
X002525Y014550D01*
X002466Y014555D01*
X002407Y014564D01*
X002349Y014577D01*
X002292Y014593D01*
X002236Y014613D01*
X002181Y014637D01*
X002128Y014665D01*
X002077Y014696D01*
X002028Y014730D01*
X001982Y014767D01*
X001938Y014808D01*
X001897Y014851D01*
X001859Y014897D01*
X001824Y014945D01*
X001792Y014995D01*
X001764Y015048D01*
X001739Y015102D01*
X001718Y015157D01*
X001700Y015214D01*
X001687Y015272D01*
X001677Y015331D01*
X001671Y015390D01*
X001669Y015450D01*
X006060Y015765D02*
X006060Y012815D01*
X007360Y012815D01*
X007360Y015765D01*
X006060Y015765D01*
X006710Y013915D02*
X006710Y013615D01*
X006860Y013765D02*
X006560Y013765D01*
X008500Y012820D02*
X008500Y012320D01*
X009600Y012320D01*
X009600Y012820D01*
X008500Y012820D01*
X007260Y010300D02*
X006760Y010300D01*
X006760Y009200D01*
X007260Y009200D01*
X007260Y010300D01*
X008280Y006810D02*
X008280Y006310D01*
X009380Y006310D01*
X009380Y006810D01*
X008280Y006810D01*
X011280Y004580D02*
X011282Y004597D01*
X011287Y004614D01*
X011296Y004628D01*
X011308Y004641D01*
X011323Y004651D01*
X011339Y004657D01*
X011356Y004660D01*
X011373Y004659D01*
X011390Y004654D01*
X011405Y004646D01*
X011418Y004635D01*
X011429Y004621D01*
X011436Y004606D01*
X011440Y004589D01*
X011440Y004571D01*
X011436Y004554D01*
X011429Y004539D01*
X011418Y004525D01*
X011405Y004514D01*
X011390Y004506D01*
X011373Y004501D01*
X011356Y004500D01*
X011339Y004503D01*
X011323Y004509D01*
X011308Y004519D01*
X011296Y004532D01*
X011287Y004546D01*
X011282Y004563D01*
X011280Y004580D01*
X011980Y003960D02*
X012480Y003960D01*
X012480Y002860D01*
X011980Y002860D01*
X011980Y003960D01*
X013620Y003935D02*
X013620Y002885D01*
X014120Y002885D01*
X014120Y003935D01*
X013620Y003935D01*
X013870Y003460D02*
X013795Y003410D01*
X013945Y003410D01*
X013870Y003460D01*
X013795Y003410D02*
X013720Y003360D01*
X014020Y003360D01*
X013945Y003410D01*
X013970Y003385D02*
X013770Y003385D01*
X015250Y006620D02*
X015250Y007120D01*
X016350Y007120D01*
X016350Y006620D01*
X015250Y006620D01*
X015137Y007332D02*
X015137Y010088D01*
X015688Y010088D01*
X015688Y007332D01*
X015137Y007332D01*
X013483Y007332D01*
X013483Y010088D01*
X015137Y010088D01*
X013719Y009391D02*
X013721Y009439D01*
X013727Y009487D01*
X013737Y009534D01*
X013750Y009580D01*
X013768Y009625D01*
X013788Y009669D01*
X013813Y009711D01*
X013841Y009750D01*
X013871Y009787D01*
X013905Y009821D01*
X013942Y009853D01*
X013980Y009882D01*
X014021Y009907D01*
X014064Y009929D01*
X014109Y009947D01*
X014155Y009961D01*
X014202Y009972D01*
X014250Y009979D01*
X014298Y009982D01*
X014346Y009981D01*
X014394Y009976D01*
X014442Y009967D01*
X014488Y009955D01*
X014533Y009938D01*
X014577Y009918D01*
X014619Y009895D01*
X014659Y009868D01*
X014697Y009838D01*
X014732Y009805D01*
X014764Y009769D01*
X014794Y009731D01*
X014820Y009690D01*
X014842Y009647D01*
X014862Y009603D01*
X014877Y009558D01*
X014889Y009511D01*
X014897Y009463D01*
X014901Y009415D01*
X014901Y009367D01*
X014897Y009319D01*
X014889Y009271D01*
X014877Y009224D01*
X014862Y009179D01*
X014842Y009135D01*
X014820Y009092D01*
X014794Y009051D01*
X014764Y009013D01*
X014732Y008977D01*
X014697Y008944D01*
X014659Y008914D01*
X014619Y008887D01*
X014577Y008864D01*
X014533Y008844D01*
X014488Y008827D01*
X014442Y008815D01*
X014394Y008806D01*
X014346Y008801D01*
X014298Y008800D01*
X014250Y008803D01*
X014202Y008810D01*
X014155Y008821D01*
X014109Y008835D01*
X014064Y008853D01*
X014021Y008875D01*
X013980Y008900D01*
X013942Y008929D01*
X013905Y008961D01*
X013871Y008995D01*
X013841Y009032D01*
X013813Y009071D01*
X013788Y009113D01*
X013768Y009157D01*
X013750Y009202D01*
X013737Y009248D01*
X013727Y009295D01*
X013721Y009343D01*
X013719Y009391D01*
X013483Y010088D02*
X012932Y010088D01*
X012932Y007332D01*
X013483Y007332D01*
X013719Y008029D02*
X013721Y008077D01*
X013727Y008125D01*
X013737Y008172D01*
X013750Y008218D01*
X013768Y008263D01*
X013788Y008307D01*
X013813Y008349D01*
X013841Y008388D01*
X013871Y008425D01*
X013905Y008459D01*
X013942Y008491D01*
X013980Y008520D01*
X014021Y008545D01*
X014064Y008567D01*
X014109Y008585D01*
X014155Y008599D01*
X014202Y008610D01*
X014250Y008617D01*
X014298Y008620D01*
X014346Y008619D01*
X014394Y008614D01*
X014442Y008605D01*
X014488Y008593D01*
X014533Y008576D01*
X014577Y008556D01*
X014619Y008533D01*
X014659Y008506D01*
X014697Y008476D01*
X014732Y008443D01*
X014764Y008407D01*
X014794Y008369D01*
X014820Y008328D01*
X014842Y008285D01*
X014862Y008241D01*
X014877Y008196D01*
X014889Y008149D01*
X014897Y008101D01*
X014901Y008053D01*
X014901Y008005D01*
X014897Y007957D01*
X014889Y007909D01*
X014877Y007862D01*
X014862Y007817D01*
X014842Y007773D01*
X014820Y007730D01*
X014794Y007689D01*
X014764Y007651D01*
X014732Y007615D01*
X014697Y007582D01*
X014659Y007552D01*
X014619Y007525D01*
X014577Y007502D01*
X014533Y007482D01*
X014488Y007465D01*
X014442Y007453D01*
X014394Y007444D01*
X014346Y007439D01*
X014298Y007438D01*
X014250Y007441D01*
X014202Y007448D01*
X014155Y007459D01*
X014109Y007473D01*
X014064Y007491D01*
X014021Y007513D01*
X013980Y007538D01*
X013942Y007567D01*
X013905Y007599D01*
X013871Y007633D01*
X013841Y007670D01*
X013813Y007709D01*
X013788Y007751D01*
X013768Y007795D01*
X013750Y007840D01*
X013737Y007886D01*
X013727Y007933D01*
X013721Y007981D01*
X013719Y008029D01*
X012570Y008770D02*
X012070Y008770D01*
X012070Y009870D01*
X012570Y009870D01*
X012570Y008770D01*
X015850Y008880D02*
X015850Y007780D01*
X016350Y007780D01*
X016350Y008880D01*
X015850Y008880D01*
X017390Y007140D02*
X017390Y013140D01*
X018390Y013140D01*
X018390Y007140D01*
X017390Y007140D01*
X016610Y013400D02*
X015610Y013400D01*
X015610Y016400D01*
X016610Y016400D01*
X016610Y013400D01*
X015610Y013400D02*
X014610Y013400D01*
X014610Y016400D01*
X015610Y016400D01*
X013330Y014115D02*
X013330Y013915D01*
X013230Y014015D02*
X013430Y014015D01*
D16*
X011000Y013110D02*
X011000Y015690D01*
X009600Y015690D01*
X009600Y013110D01*
X011000Y013110D01*
D17*
X003895Y005975D03*
X003757Y005419D03*
X003670Y005419D03*
X003457Y005419D03*
X002891Y005524D03*
X002513Y005336D03*
X003085Y007334D03*
D18*
X003895Y005977D03*
X004117Y005731D03*
X004184Y005645D03*
X004268Y005647D03*
X004351Y005647D03*
X004400Y005561D03*
X004528Y005420D03*
X004615Y005420D03*
X004688Y005653D03*
X004900Y005653D03*
X004214Y005905D03*
X003619Y005653D03*
X003758Y005420D03*
X002513Y005338D03*
D19*
X002513Y005339D03*
X003545Y005563D03*
X003760Y005422D03*
X004183Y005644D03*
X004402Y005563D03*
X004480Y005450D03*
X004973Y005504D03*
X004178Y007340D03*
D20*
X003896Y005980D03*
X004115Y005729D03*
X003761Y005423D03*
X003461Y005423D03*
X002515Y005341D03*
X004972Y005503D03*
D21*
X002516Y005342D03*
D22*
X002518Y005344D03*
X002884Y005518D03*
X003338Y005428D03*
X003466Y005429D03*
X003466Y005431D03*
X003466Y005434D03*
X003466Y005435D03*
X003466Y005437D03*
X003677Y005425D03*
X003766Y005428D03*
X003893Y005573D03*
X004111Y005723D03*
X004177Y005639D03*
X004261Y005639D03*
X004343Y005638D03*
X004408Y005570D03*
X004408Y005569D03*
X004535Y005431D03*
X004535Y005429D03*
X004535Y005428D03*
X004622Y005428D03*
X004622Y005426D03*
X004967Y005500D03*
X004214Y005911D03*
X003388Y005974D03*
X003341Y005722D03*
X004177Y007336D03*
D23*
X004108Y005716D03*
X004108Y005714D03*
X004108Y005713D03*
X004108Y005711D03*
X004108Y005710D03*
X004108Y005708D03*
X004108Y005699D03*
X004108Y005696D03*
X004108Y005690D03*
X004108Y005684D03*
X004108Y005680D03*
X004108Y005678D03*
X004108Y005675D03*
X004108Y005671D03*
X004108Y005666D03*
X004108Y005659D03*
X004108Y005656D03*
X004108Y005654D03*
X004108Y005653D03*
X004108Y005651D03*
X004108Y005650D03*
X004108Y005648D03*
X004108Y005590D03*
X004108Y005588D03*
X004108Y005587D03*
X004108Y005585D03*
X004108Y005584D03*
X004108Y005581D03*
X004108Y005579D03*
X004108Y005578D03*
X004108Y005576D03*
X004108Y005569D03*
X004108Y005560D03*
X004108Y005549D03*
X004108Y005546D03*
X004108Y005542D03*
X004108Y005539D03*
X004108Y005531D03*
X004108Y005521D03*
X004108Y005518D03*
X004108Y005510D03*
X004108Y005509D03*
X004108Y005506D03*
X004108Y005503D03*
X004108Y005498D03*
X004108Y005489D03*
X004108Y005488D03*
X004108Y005486D03*
X004108Y005485D03*
X004108Y005483D03*
X004108Y005482D03*
X004108Y005480D03*
X004106Y005476D03*
X003986Y005473D03*
X003986Y005593D03*
X004258Y005525D03*
X004258Y005524D03*
X004258Y005519D03*
X004258Y005518D03*
X004258Y005512D03*
X004258Y005504D03*
X004258Y005503D03*
X004258Y005500D03*
X004258Y005494D03*
X004258Y005489D03*
X004258Y005488D03*
X004258Y005476D03*
X004411Y005584D03*
X004411Y005585D03*
X004532Y005593D03*
X004532Y005594D03*
X004534Y005591D03*
X004534Y005570D03*
X004534Y005531D03*
X004961Y005476D03*
X004964Y005576D03*
X004961Y005590D03*
X004961Y005591D03*
X003769Y005587D03*
X003769Y005585D03*
X003769Y005584D03*
X003769Y005581D03*
X003769Y005579D03*
X003679Y005585D03*
X003679Y005587D03*
X003679Y005588D03*
X003557Y005591D03*
X003557Y005593D03*
X003463Y005591D03*
X003461Y005594D03*
X003341Y005591D03*
X003341Y005590D03*
X003341Y005588D03*
X003341Y005645D03*
X003554Y005486D03*
X003554Y005485D03*
X003554Y005471D03*
X003554Y005470D03*
X002971Y005429D03*
X002881Y005513D03*
X002521Y005345D03*
D24*
X002522Y005347D03*
X003343Y005596D03*
X003557Y005464D03*
X003674Y005599D03*
X003673Y005600D03*
X003887Y005602D03*
X003989Y005602D03*
X003989Y005600D03*
X003988Y005470D03*
X003988Y005468D03*
X003989Y005467D03*
X003989Y005465D03*
X004259Y005465D03*
X004259Y005467D03*
X004259Y005468D03*
X004411Y005467D03*
X004412Y005464D03*
X004411Y005489D03*
X004411Y005491D03*
X004529Y005600D03*
X004529Y005602D03*
X004742Y005602D03*
X004844Y005600D03*
X004846Y005602D03*
X004847Y005603D03*
X004963Y005573D03*
X004843Y005470D03*
D25*
X004840Y005497D03*
X004840Y005498D03*
X004848Y005605D03*
X004850Y005606D03*
X004900Y005651D03*
X004958Y005602D03*
X004953Y005461D03*
X004630Y005602D03*
X004420Y005605D03*
X004338Y005456D03*
X004300Y005416D03*
X004182Y005453D03*
X004100Y005464D03*
X004105Y005596D03*
X004105Y005644D03*
X003888Y005600D03*
X003777Y005603D03*
X003775Y005602D03*
X003678Y005570D03*
X003672Y005602D03*
X003670Y005603D03*
X003563Y005603D03*
X003561Y005602D03*
X003458Y005603D03*
X003558Y005494D03*
X003558Y005461D03*
X003560Y005459D03*
X003560Y005458D03*
X003385Y005978D03*
X002814Y005666D03*
X002589Y005420D03*
X002523Y005348D03*
X002363Y005420D03*
D26*
X002524Y005350D03*
X002750Y005566D03*
X002750Y005569D03*
X002750Y005570D03*
X002750Y005572D03*
X002750Y005573D03*
X002750Y005575D03*
X002750Y005576D03*
X002750Y005578D03*
X002878Y005506D03*
X002878Y005504D03*
X002878Y005503D03*
X002878Y005501D03*
X002878Y005500D03*
X003403Y005651D03*
X003457Y005605D03*
X003563Y005605D03*
X003565Y005606D03*
X003566Y005608D03*
X003668Y005606D03*
X003670Y005605D03*
X003677Y005569D03*
X003677Y005530D03*
X003560Y005498D03*
X003560Y005497D03*
X003559Y005495D03*
X003560Y005456D03*
X003778Y005605D03*
X003830Y005651D03*
X003992Y005605D03*
X003992Y005461D03*
X004097Y005461D03*
X004217Y005416D03*
X004414Y005461D03*
X004415Y005459D03*
X004415Y005458D03*
X004417Y005456D03*
X004418Y005455D03*
X004414Y005494D03*
X004421Y005606D03*
X004526Y005605D03*
X004633Y005603D03*
X004738Y005608D03*
X004850Y005608D03*
X004841Y005539D03*
X004849Y005461D03*
X004952Y005459D03*
X004957Y005603D03*
X003085Y007325D03*
D27*
X003384Y005980D03*
X003455Y005608D03*
X003456Y005606D03*
X003567Y005609D03*
X003568Y005611D03*
X003617Y005651D03*
X003668Y005608D03*
X003561Y005500D03*
X003561Y005455D03*
X003563Y005453D03*
X003879Y005611D03*
X003880Y005609D03*
X003882Y005608D03*
X003883Y005606D03*
X003993Y005606D03*
X004104Y005599D03*
X004097Y005459D03*
X004258Y005459D03*
X004415Y005495D03*
X004416Y005497D03*
X004418Y005500D03*
X004419Y005501D03*
X004422Y005608D03*
X004423Y005609D03*
X004473Y005651D03*
X004525Y005606D03*
X004633Y005605D03*
X004737Y005609D03*
X004851Y005609D03*
X004853Y005611D03*
X004842Y005500D03*
X004851Y005459D03*
X004947Y005453D03*
X004948Y005455D03*
X004960Y005572D03*
X004213Y005914D03*
X003903Y005986D03*
X003040Y005666D03*
X002877Y005498D03*
X002877Y005497D03*
X002975Y005434D03*
X003102Y005434D03*
X002751Y005561D03*
X002751Y005563D03*
X002751Y005564D03*
X002751Y005579D03*
X002751Y005581D03*
X002751Y005584D03*
X002589Y005666D03*
X002525Y005353D03*
X002525Y005351D03*
X002363Y005666D03*
D28*
X002300Y005591D03*
X002300Y005590D03*
X002299Y005588D03*
X002299Y005587D03*
X002299Y005585D03*
X002299Y005584D03*
X002299Y005581D03*
X002299Y005579D03*
X002299Y005578D03*
X002299Y005576D03*
X002299Y005575D03*
X002299Y005573D03*
X002299Y005572D03*
X002299Y005570D03*
X002299Y005569D03*
X002299Y005566D03*
X002299Y005564D03*
X002299Y005563D03*
X002299Y005561D03*
X002299Y005560D03*
X002299Y005558D03*
X002299Y005557D03*
X002299Y005555D03*
X002299Y005554D03*
X002299Y005551D03*
X002299Y005549D03*
X002299Y005548D03*
X002299Y005546D03*
X002299Y005545D03*
X002299Y005543D03*
X002299Y005542D03*
X002299Y005540D03*
X002299Y005539D03*
X002299Y005536D03*
X002299Y005534D03*
X002299Y005533D03*
X002299Y005531D03*
X002299Y005530D03*
X002299Y005528D03*
X002299Y005527D03*
X002299Y005525D03*
X002299Y005524D03*
X002299Y005521D03*
X002299Y005519D03*
X002299Y005518D03*
X002299Y005516D03*
X002299Y005515D03*
X002299Y005513D03*
X002299Y005512D03*
X002299Y005510D03*
X002299Y005509D03*
X002299Y005506D03*
X002299Y005504D03*
X002299Y005503D03*
X002299Y005501D03*
X002299Y005500D03*
X002299Y005498D03*
X002300Y005497D03*
X002300Y005495D03*
X002525Y005497D03*
X002525Y005498D03*
X002525Y005500D03*
X002525Y005501D03*
X002525Y005503D03*
X002525Y005504D03*
X002525Y005506D03*
X002525Y005509D03*
X002525Y005510D03*
X002525Y005512D03*
X002525Y005513D03*
X002525Y005515D03*
X002525Y005516D03*
X002525Y005518D03*
X002525Y005519D03*
X002525Y005521D03*
X002525Y005524D03*
X002525Y005525D03*
X002525Y005527D03*
X002525Y005528D03*
X002525Y005530D03*
X002525Y005531D03*
X002525Y005533D03*
X002525Y005534D03*
X002525Y005536D03*
X002525Y005539D03*
X002525Y005540D03*
X002525Y005542D03*
X002525Y005543D03*
X002525Y005545D03*
X002525Y005546D03*
X002525Y005548D03*
X002525Y005549D03*
X002525Y005551D03*
X002525Y005554D03*
X002525Y005555D03*
X002525Y005557D03*
X002525Y005558D03*
X002525Y005560D03*
X002525Y005561D03*
X002525Y005563D03*
X002525Y005564D03*
X002525Y005566D03*
X002525Y005569D03*
X002525Y005570D03*
X002525Y005572D03*
X002525Y005573D03*
X002525Y005575D03*
X002525Y005576D03*
X002525Y005578D03*
X002525Y005579D03*
X002525Y005581D03*
X002525Y005584D03*
X002525Y005585D03*
X002525Y005587D03*
X002525Y005588D03*
X002525Y005590D03*
X002653Y005585D03*
X002653Y005584D03*
X002653Y005581D03*
X002653Y005579D03*
X002653Y005578D03*
X002653Y005576D03*
X002653Y005575D03*
X002653Y005573D03*
X002653Y005572D03*
X002653Y005570D03*
X002653Y005569D03*
X002653Y005566D03*
X002653Y005564D03*
X002653Y005563D03*
X002653Y005561D03*
X002653Y005560D03*
X002653Y005558D03*
X002653Y005557D03*
X002653Y005555D03*
X002653Y005554D03*
X002653Y005551D03*
X002653Y005549D03*
X002653Y005548D03*
X002653Y005546D03*
X002653Y005545D03*
X002653Y005543D03*
X002653Y005542D03*
X002653Y005540D03*
X002653Y005539D03*
X002653Y005536D03*
X002653Y005534D03*
X002653Y005533D03*
X002653Y005531D03*
X002653Y005530D03*
X002653Y005528D03*
X002653Y005527D03*
X002653Y005525D03*
X002653Y005524D03*
X002653Y005521D03*
X002653Y005519D03*
X002653Y005518D03*
X002653Y005516D03*
X002653Y005515D03*
X002653Y005513D03*
X002653Y005512D03*
X002653Y005510D03*
X002653Y005509D03*
X002653Y005506D03*
X002653Y005504D03*
X002653Y005503D03*
X002653Y005501D03*
X002653Y005500D03*
X002752Y005560D03*
X002752Y005585D03*
X002752Y005587D03*
X002876Y005495D03*
X002876Y005494D03*
X002975Y005437D03*
X002975Y005435D03*
X002977Y005591D03*
X003346Y005603D03*
X003452Y005611D03*
X003454Y005609D03*
X003572Y005614D03*
X003665Y005611D03*
X003667Y005609D03*
X003676Y005566D03*
X003781Y005609D03*
X003782Y005611D03*
X003994Y005608D03*
X003995Y005609D03*
X004045Y005651D03*
X004103Y005602D03*
X004103Y005600D03*
X004094Y005456D03*
X004184Y005452D03*
X003994Y005459D03*
X004417Y005498D03*
X004420Y005453D03*
X004529Y005564D03*
X004525Y005608D03*
X004523Y005609D03*
X004424Y005611D03*
X004636Y005608D03*
X004637Y005609D03*
X004639Y005611D03*
X004687Y005651D03*
X004736Y005611D03*
X004843Y005501D03*
X004852Y005458D03*
X004955Y005605D03*
X004954Y005606D03*
X004951Y005611D03*
X004177Y007331D03*
X002525Y005416D03*
X002525Y005414D03*
X002525Y005413D03*
X002525Y005411D03*
X002525Y005410D03*
X002525Y005408D03*
X002525Y005407D03*
X002525Y005405D03*
X002525Y005404D03*
X002525Y005401D03*
X002525Y005399D03*
X002525Y005398D03*
X002525Y005396D03*
X002525Y005395D03*
X002525Y005393D03*
X002525Y005392D03*
X002525Y005390D03*
X002525Y005389D03*
X002525Y005386D03*
X002525Y005384D03*
X002525Y005383D03*
X002525Y005381D03*
X002525Y005380D03*
X002525Y005378D03*
X002525Y005377D03*
X002525Y005375D03*
X002525Y005374D03*
X002525Y005371D03*
X002525Y005369D03*
X002525Y005368D03*
X002525Y005366D03*
X002525Y005365D03*
X002525Y005363D03*
X002525Y005362D03*
X002525Y005360D03*
X002525Y005359D03*
X002525Y005356D03*
X002525Y005354D03*
D29*
X002525Y005357D03*
X002525Y005372D03*
X002525Y005387D03*
X002525Y005402D03*
X002525Y005417D03*
X002525Y005507D03*
X002525Y005522D03*
X002525Y005537D03*
X002525Y005552D03*
X002525Y005567D03*
X002525Y005582D03*
X002653Y005582D03*
X002653Y005567D03*
X002653Y005552D03*
X002653Y005537D03*
X002653Y005522D03*
X002653Y005507D03*
X002299Y005507D03*
X002299Y005522D03*
X002299Y005537D03*
X002299Y005552D03*
X002299Y005567D03*
X002299Y005582D03*
X003451Y005612D03*
X003878Y005612D03*
X003904Y005987D03*
X004426Y005612D03*
X004640Y005612D03*
X004735Y005612D03*
D30*
X004185Y005650D03*
X003599Y005414D03*
X003543Y005558D03*
X003393Y005966D03*
D31*
X003606Y005414D03*
X004038Y005414D03*
X004044Y005414D03*
D32*
X004309Y005414D03*
X004397Y005558D03*
X004483Y005452D03*
X004526Y005416D03*
X004889Y005414D03*
X003626Y005452D03*
X003613Y005414D03*
D33*
X003619Y005414D03*
X004051Y005414D03*
X004459Y005414D03*
X004902Y005414D03*
X004909Y005414D03*
X004214Y005903D03*
X003896Y005974D03*
X003075Y005887D03*
X002892Y005525D03*
D34*
X002965Y005420D03*
X004210Y005414D03*
X004270Y005650D03*
D35*
X004223Y005414D03*
X004898Y005414D03*
D36*
X004471Y005414D03*
X004465Y005414D03*
D37*
X003756Y005416D03*
X003456Y005416D03*
D38*
X003609Y005416D03*
X003348Y005608D03*
X003102Y005600D03*
X003100Y005602D03*
X002982Y005603D03*
X002980Y005600D03*
X002874Y005600D03*
X002874Y005599D03*
X002874Y005602D03*
X002874Y005588D03*
X002874Y005587D03*
X002814Y005665D03*
X002755Y005605D03*
X002755Y005603D03*
X002754Y005600D03*
X002754Y005599D03*
X002754Y005503D03*
X002754Y005486D03*
X002755Y005483D03*
X002755Y005482D03*
X002650Y005488D03*
X002649Y005485D03*
X002648Y005483D03*
X002650Y005599D03*
X002649Y005602D03*
X002648Y005603D03*
X002646Y005606D03*
X002589Y005665D03*
X002529Y005602D03*
X002528Y005600D03*
X002423Y005603D03*
X002304Y005605D03*
X002304Y005606D03*
X002304Y005485D03*
X002304Y005483D03*
X002363Y005422D03*
X002423Y005483D03*
X002528Y005486D03*
X002873Y005480D03*
X002874Y005483D03*
X003999Y005453D03*
X004044Y005416D03*
X004101Y005606D03*
X004330Y005450D03*
X004422Y005452D03*
X004527Y005563D03*
X004518Y005614D03*
X004643Y005614D03*
X004855Y005614D03*
X004958Y005569D03*
X004855Y005453D03*
X004176Y007328D03*
D39*
X003085Y007324D03*
X004213Y005915D03*
X004103Y005603D03*
X003996Y005611D03*
X003995Y005458D03*
X003996Y005456D03*
X004187Y005450D03*
X004258Y005458D03*
X004333Y005452D03*
X004420Y005503D03*
X004465Y005416D03*
X004523Y005611D03*
X004853Y005456D03*
X004854Y005455D03*
X004959Y005570D03*
X004953Y005608D03*
X004952Y005609D03*
X003563Y005501D03*
X003347Y005605D03*
X003103Y005594D03*
X003103Y005593D03*
X002978Y005593D03*
X002978Y005594D03*
X002978Y005596D03*
X002976Y005590D03*
X002976Y005588D03*
X002976Y005587D03*
X002976Y005585D03*
X002976Y005584D03*
X002976Y005581D03*
X002976Y005579D03*
X002976Y005578D03*
X002976Y005576D03*
X002976Y005575D03*
X002976Y005573D03*
X002976Y005572D03*
X002976Y005570D03*
X002976Y005569D03*
X002976Y005566D03*
X002976Y005564D03*
X002976Y005563D03*
X002976Y005561D03*
X002976Y005560D03*
X002976Y005558D03*
X002976Y005557D03*
X002976Y005555D03*
X002976Y005554D03*
X002976Y005551D03*
X002976Y005549D03*
X002976Y005548D03*
X002976Y005546D03*
X002976Y005545D03*
X002976Y005543D03*
X002976Y005542D03*
X002976Y005540D03*
X002976Y005539D03*
X002976Y005536D03*
X002976Y005534D03*
X002976Y005533D03*
X002976Y005531D03*
X002976Y005530D03*
X002976Y005528D03*
X002976Y005527D03*
X002976Y005525D03*
X002976Y005524D03*
X002976Y005521D03*
X002976Y005519D03*
X002976Y005518D03*
X002976Y005516D03*
X002976Y005515D03*
X002976Y005513D03*
X002976Y005512D03*
X002976Y005510D03*
X002976Y005509D03*
X002976Y005506D03*
X002976Y005504D03*
X002976Y005503D03*
X002976Y005501D03*
X002976Y005500D03*
X002976Y005498D03*
X002976Y005497D03*
X002976Y005495D03*
X002976Y005494D03*
X002976Y005491D03*
X002976Y005489D03*
X002976Y005488D03*
X002976Y005486D03*
X002976Y005485D03*
X002976Y005483D03*
X002976Y005482D03*
X002976Y005480D03*
X002976Y005479D03*
X002976Y005476D03*
X002976Y005474D03*
X002976Y005473D03*
X002976Y005471D03*
X002976Y005470D03*
X002976Y005468D03*
X002976Y005467D03*
X002976Y005465D03*
X002976Y005464D03*
X002976Y005461D03*
X002976Y005459D03*
X002976Y005458D03*
X002976Y005456D03*
X002976Y005455D03*
X002976Y005453D03*
X002976Y005452D03*
X002976Y005450D03*
X002976Y005449D03*
X002976Y005446D03*
X002976Y005444D03*
X002976Y005443D03*
X002976Y005441D03*
X002976Y005440D03*
X002976Y005438D03*
X002875Y005489D03*
X002875Y005491D03*
X002753Y005494D03*
X002753Y005495D03*
X002753Y005497D03*
X002753Y005498D03*
X002753Y005558D03*
X002753Y005588D03*
X002753Y005590D03*
X002753Y005591D03*
X002652Y005591D03*
X002652Y005590D03*
X002652Y005588D03*
X002652Y005587D03*
X002652Y005593D03*
X002652Y005594D03*
X002652Y005498D03*
X002652Y005497D03*
X002652Y005495D03*
X002652Y005494D03*
X002526Y005494D03*
X002526Y005495D03*
X002526Y005491D03*
X002526Y005420D03*
X002526Y005419D03*
X002425Y005494D03*
X002425Y005495D03*
X002425Y005497D03*
X002425Y005498D03*
X002425Y005500D03*
X002425Y005501D03*
X002425Y005503D03*
X002425Y005504D03*
X002425Y005506D03*
X002425Y005509D03*
X002425Y005510D03*
X002425Y005512D03*
X002425Y005513D03*
X002425Y005515D03*
X002425Y005516D03*
X002425Y005518D03*
X002425Y005519D03*
X002425Y005521D03*
X002425Y005524D03*
X002425Y005525D03*
X002425Y005527D03*
X002425Y005528D03*
X002425Y005530D03*
X002425Y005531D03*
X002425Y005533D03*
X002425Y005534D03*
X002425Y005536D03*
X002425Y005539D03*
X002425Y005540D03*
X002425Y005542D03*
X002425Y005543D03*
X002425Y005545D03*
X002425Y005546D03*
X002425Y005548D03*
X002425Y005549D03*
X002425Y005551D03*
X002425Y005554D03*
X002425Y005555D03*
X002425Y005557D03*
X002425Y005558D03*
X002425Y005560D03*
X002425Y005561D03*
X002425Y005563D03*
X002425Y005564D03*
X002425Y005566D03*
X002425Y005569D03*
X002425Y005570D03*
X002425Y005572D03*
X002425Y005573D03*
X002425Y005575D03*
X002425Y005576D03*
X002425Y005578D03*
X002425Y005579D03*
X002425Y005581D03*
X002425Y005584D03*
X002425Y005585D03*
X002425Y005587D03*
X002425Y005588D03*
X002425Y005590D03*
X002425Y005591D03*
X002526Y005591D03*
X002526Y005593D03*
X002526Y005594D03*
X002526Y005596D03*
X002301Y005596D03*
X002301Y005594D03*
X002301Y005593D03*
X002301Y005494D03*
X003103Y005437D03*
X003103Y005435D03*
D40*
X004613Y005416D03*
D41*
X004733Y005614D03*
X004946Y005614D03*
X004945Y005452D03*
X004903Y005416D03*
X004429Y005614D03*
X004258Y005456D03*
X004093Y005455D03*
X004091Y005453D03*
X003997Y005455D03*
X004000Y005614D03*
X004102Y005605D03*
X003875Y005614D03*
X003785Y005614D03*
X003565Y005503D03*
X003565Y005452D03*
X003448Y005614D03*
X003347Y005606D03*
X003103Y005599D03*
X003103Y005596D03*
X002981Y005602D03*
X002980Y005599D03*
X002875Y005596D03*
X002875Y005594D03*
X002875Y005593D03*
X002875Y005591D03*
X002875Y005590D03*
X002875Y005488D03*
X002875Y005486D03*
X002875Y005485D03*
X002815Y005422D03*
X002755Y005485D03*
X002753Y005488D03*
X002753Y005489D03*
X002753Y005491D03*
X002753Y005500D03*
X002753Y005501D03*
X002753Y005593D03*
X002753Y005594D03*
X002753Y005596D03*
X002755Y005602D03*
X002651Y005596D03*
X002650Y005600D03*
X002651Y005491D03*
X002651Y005489D03*
X002650Y005486D03*
X002527Y005488D03*
X002527Y005489D03*
X002527Y005422D03*
X002423Y005485D03*
X002423Y005486D03*
X002423Y005488D03*
X002425Y005489D03*
X002425Y005491D03*
X002425Y005593D03*
X002425Y005594D03*
X002425Y005596D03*
X002423Y005599D03*
X002423Y005600D03*
X002423Y005602D03*
X002527Y005599D03*
X002303Y005600D03*
X002302Y005599D03*
X002303Y005602D03*
X002303Y005603D03*
X002302Y005491D03*
X002303Y005489D03*
X002303Y005488D03*
X002303Y005486D03*
X003383Y005981D03*
X003904Y005989D03*
X004177Y007330D03*
D42*
X003891Y005567D03*
X002363Y005417D03*
D43*
X002589Y005417D03*
D44*
X002814Y005417D03*
X004746Y005567D03*
X004178Y007337D03*
D45*
X003349Y005732D03*
X003328Y005417D03*
D46*
X003457Y005417D03*
X003668Y005417D03*
X003757Y005417D03*
X004526Y005417D03*
X004613Y005417D03*
D47*
X004044Y005417D03*
X003609Y005417D03*
X003351Y005612D03*
D48*
X003103Y005597D03*
X002753Y005597D03*
X002651Y005597D03*
X002527Y005597D03*
X002425Y005597D03*
X002425Y005492D03*
X002302Y005492D03*
X002302Y005597D03*
X002753Y005492D03*
X004217Y005417D03*
X004300Y005417D03*
D49*
X004465Y005417D03*
D50*
X004902Y005417D03*
X002986Y005612D03*
X002760Y005612D03*
X002531Y005477D03*
X002418Y005612D03*
D51*
X002363Y005419D03*
X004343Y005479D03*
X004343Y005480D03*
X004343Y005482D03*
X004343Y005483D03*
X004343Y005485D03*
X004343Y005486D03*
X004343Y005488D03*
X004343Y005489D03*
X004343Y005491D03*
X004343Y005494D03*
X004343Y005495D03*
X004343Y005497D03*
X004343Y005498D03*
X004343Y005500D03*
X004343Y005501D03*
X004343Y005503D03*
X004343Y005504D03*
X004343Y005506D03*
X004343Y005509D03*
X004343Y005510D03*
X004343Y005512D03*
X004343Y005513D03*
X004343Y005515D03*
X004343Y005516D03*
X004343Y005518D03*
X004343Y005519D03*
X004343Y005521D03*
X004343Y005524D03*
X004343Y005525D03*
X004343Y005527D03*
X004343Y005528D03*
X004343Y005530D03*
X004343Y005531D03*
X004343Y005533D03*
X004343Y005534D03*
X004343Y005536D03*
X004343Y005539D03*
X004343Y005540D03*
X004343Y005542D03*
X004343Y005543D03*
X004343Y005545D03*
X004343Y005546D03*
X004343Y005548D03*
X004343Y005549D03*
X004343Y005551D03*
X004343Y005554D03*
X004343Y005555D03*
X004343Y005557D03*
X004343Y005558D03*
X004343Y005560D03*
X004343Y005561D03*
X004343Y005563D03*
X004343Y005564D03*
X004343Y005566D03*
X004343Y005569D03*
X004343Y005570D03*
X004343Y005572D03*
X004343Y005573D03*
X004343Y005575D03*
X004343Y005576D03*
X004343Y005578D03*
X004343Y005579D03*
X004343Y005581D03*
X004343Y005584D03*
X004343Y005585D03*
X004343Y005587D03*
X004343Y005588D03*
X004343Y005590D03*
X004343Y005591D03*
X004343Y005593D03*
X004343Y005594D03*
X004343Y005596D03*
X004343Y005599D03*
X004343Y005600D03*
X004343Y005602D03*
X004343Y005603D03*
X004343Y005605D03*
X004343Y005606D03*
X004343Y005608D03*
X004343Y005609D03*
X004343Y005611D03*
X004343Y005614D03*
X004343Y005615D03*
X004343Y005617D03*
X004343Y005618D03*
X004343Y005620D03*
X004343Y005621D03*
X004343Y005623D03*
X004343Y005624D03*
X004343Y005626D03*
X004343Y005629D03*
X004343Y005630D03*
X004343Y005632D03*
X004343Y005633D03*
X004343Y005635D03*
X004343Y005636D03*
D52*
X004260Y005638D03*
X004176Y005638D03*
X004176Y005636D03*
X004176Y005635D03*
X004409Y005572D03*
X004536Y005576D03*
X004536Y005578D03*
X004536Y005579D03*
X004536Y005581D03*
X004536Y005524D03*
X004536Y005521D03*
X004536Y005519D03*
X004536Y005518D03*
X004536Y005516D03*
X004536Y005515D03*
X004536Y005513D03*
X004536Y005512D03*
X004536Y005510D03*
X004536Y005509D03*
X004536Y005506D03*
X004536Y005504D03*
X004536Y005503D03*
X004536Y005501D03*
X004536Y005500D03*
X004536Y005498D03*
X004536Y005497D03*
X004536Y005495D03*
X004536Y005494D03*
X004536Y005491D03*
X004536Y005489D03*
X004536Y005488D03*
X004536Y005486D03*
X004536Y005485D03*
X004536Y005483D03*
X004536Y005482D03*
X004536Y005480D03*
X004536Y005479D03*
X004536Y005476D03*
X004536Y005474D03*
X004536Y005473D03*
X004536Y005471D03*
X004536Y005470D03*
X004536Y005468D03*
X004536Y005467D03*
X004536Y005465D03*
X004536Y005464D03*
X004536Y005461D03*
X004536Y005459D03*
X004536Y005458D03*
X004536Y005456D03*
X004536Y005455D03*
X004536Y005453D03*
X004536Y005452D03*
X004536Y005450D03*
X004536Y005449D03*
X004536Y005446D03*
X004536Y005444D03*
X004536Y005443D03*
X004536Y005441D03*
X004536Y005440D03*
X004536Y005438D03*
X004536Y005437D03*
X004536Y005435D03*
X004536Y005434D03*
X004623Y005434D03*
X004623Y005435D03*
X004623Y005437D03*
X004623Y005438D03*
X004623Y005440D03*
X004623Y005441D03*
X004623Y005443D03*
X004623Y005444D03*
X004623Y005446D03*
X004623Y005449D03*
X004623Y005450D03*
X004623Y005452D03*
X004623Y005453D03*
X004623Y005455D03*
X004623Y005456D03*
X004623Y005458D03*
X004623Y005459D03*
X004623Y005461D03*
X004623Y005464D03*
X004623Y005465D03*
X004623Y005467D03*
X004623Y005468D03*
X004623Y005470D03*
X004623Y005471D03*
X004623Y005473D03*
X004623Y005474D03*
X004623Y005476D03*
X004623Y005479D03*
X004623Y005480D03*
X004623Y005482D03*
X004623Y005483D03*
X004623Y005485D03*
X004623Y005486D03*
X004623Y005488D03*
X004623Y005489D03*
X004623Y005491D03*
X004623Y005494D03*
X004623Y005495D03*
X004623Y005497D03*
X004623Y005498D03*
X004623Y005500D03*
X004623Y005501D03*
X004623Y005503D03*
X004623Y005504D03*
X004623Y005506D03*
X004623Y005509D03*
X004623Y005510D03*
X004623Y005512D03*
X004623Y005513D03*
X004623Y005515D03*
X004623Y005516D03*
X004623Y005518D03*
X004623Y005519D03*
X004623Y005521D03*
X004623Y005524D03*
X004623Y005525D03*
X004623Y005527D03*
X004623Y005528D03*
X004623Y005530D03*
X004623Y005531D03*
X004623Y005533D03*
X004623Y005534D03*
X004623Y005536D03*
X004623Y005539D03*
X004623Y005540D03*
X004623Y005542D03*
X004623Y005543D03*
X004623Y005545D03*
X004623Y005546D03*
X004623Y005548D03*
X004623Y005549D03*
X004623Y005551D03*
X004623Y005554D03*
X004623Y005555D03*
X004623Y005557D03*
X004623Y005558D03*
X004623Y005560D03*
X004623Y005561D03*
X004623Y005563D03*
X004623Y005564D03*
X004623Y005566D03*
X004623Y005569D03*
X004623Y005570D03*
X004623Y005572D03*
X004623Y005573D03*
X004623Y005575D03*
X004623Y005576D03*
X004623Y005578D03*
X004624Y005584D03*
X004749Y005572D03*
X004623Y005431D03*
X004623Y005429D03*
X004966Y005497D03*
X004966Y005498D03*
X003894Y005575D03*
X003894Y005576D03*
X003894Y005578D03*
X003766Y005429D03*
X003552Y005569D03*
X003552Y005570D03*
X003552Y005572D03*
X003554Y005579D03*
X003554Y005581D03*
X003466Y005572D03*
X003466Y005570D03*
X003466Y005569D03*
X003466Y005566D03*
X003466Y005564D03*
X003466Y005563D03*
X003466Y005561D03*
X003466Y005560D03*
X003466Y005558D03*
X003466Y005557D03*
X003466Y005555D03*
X003466Y005554D03*
X003466Y005551D03*
X003466Y005549D03*
X003466Y005548D03*
X003466Y005546D03*
X003466Y005545D03*
X003466Y005543D03*
X003466Y005542D03*
X003466Y005540D03*
X003466Y005539D03*
X003466Y005536D03*
X003466Y005534D03*
X003466Y005533D03*
X003466Y005531D03*
X003466Y005530D03*
X003466Y005528D03*
X003466Y005527D03*
X003466Y005525D03*
X003466Y005524D03*
X003466Y005521D03*
X003466Y005519D03*
X003466Y005518D03*
X003466Y005516D03*
X003466Y005515D03*
X003466Y005513D03*
X003466Y005512D03*
X003466Y005510D03*
X003466Y005509D03*
X003466Y005506D03*
X003466Y005504D03*
X003466Y005503D03*
X003466Y005501D03*
X003466Y005500D03*
X003466Y005498D03*
X003466Y005497D03*
X003466Y005495D03*
X003466Y005494D03*
X003466Y005491D03*
X003466Y005489D03*
X003466Y005488D03*
X003466Y005486D03*
X003466Y005485D03*
X003466Y005483D03*
X003466Y005482D03*
X003466Y005480D03*
X003466Y005479D03*
X003466Y005476D03*
X003466Y005474D03*
X003466Y005473D03*
X003466Y005471D03*
X003466Y005470D03*
X003466Y005468D03*
X003466Y005467D03*
X003466Y005465D03*
X003466Y005464D03*
X003466Y005461D03*
X003466Y005459D03*
X003466Y005458D03*
X003466Y005456D03*
X003466Y005455D03*
X003466Y005453D03*
X003466Y005452D03*
X003466Y005450D03*
X003466Y005449D03*
X003466Y005446D03*
X003466Y005444D03*
X003466Y005443D03*
X003466Y005441D03*
X003466Y005440D03*
X003466Y005438D03*
X003339Y005435D03*
X003339Y005434D03*
X003339Y005431D03*
X003339Y005429D03*
X003341Y005720D03*
X002883Y005516D03*
X002814Y005419D03*
X002589Y005419D03*
D53*
X003075Y005888D03*
X003329Y005419D03*
X004185Y005648D03*
D54*
X004008Y005618D03*
X003869Y005618D03*
X003669Y005561D03*
X003657Y005617D03*
X003609Y005419D03*
X003404Y005648D03*
X003091Y005615D03*
X003090Y005617D03*
X002989Y005615D03*
X002868Y005614D03*
X002866Y005615D03*
X002763Y005615D03*
X002864Y005470D03*
X002862Y005468D03*
X002640Y005471D03*
X002532Y005474D03*
X002311Y005471D03*
X002310Y005473D03*
X002310Y005615D03*
X003076Y005903D03*
X003378Y005984D03*
X003909Y005993D03*
X004429Y005509D03*
X004466Y005419D03*
X004849Y005506D03*
X004861Y005450D03*
X004938Y005449D03*
X004863Y005618D03*
X004901Y005648D03*
D55*
X004865Y005620D03*
X004939Y005618D03*
X004901Y005419D03*
X004649Y005618D03*
X004510Y005618D03*
X004474Y005648D03*
X004439Y005620D03*
X004522Y005560D03*
X004430Y005510D03*
X004300Y005422D03*
X004217Y005422D03*
X004045Y005419D03*
X004096Y005614D03*
X004045Y005648D03*
X004010Y005620D03*
X004213Y005921D03*
X003655Y005618D03*
X003617Y005648D03*
X003572Y005509D03*
X003089Y005618D03*
X003040Y005663D03*
X002990Y005617D03*
X002815Y005423D03*
X002762Y005471D03*
X002759Y005509D03*
X002639Y005470D03*
X002639Y005617D03*
X002638Y005618D03*
X002590Y005663D03*
X002540Y005618D03*
X002539Y005617D03*
X002413Y005617D03*
X002312Y005617D03*
X002414Y005471D03*
X003086Y007319D03*
D56*
X002984Y005609D03*
X002984Y005608D03*
X002983Y005606D03*
X002983Y005605D03*
X003662Y005614D03*
X004003Y005615D03*
X004217Y005419D03*
X004423Y005504D03*
X004858Y005452D03*
D57*
X004432Y005615D03*
X004300Y005419D03*
X004100Y005608D03*
X003905Y005990D03*
X003575Y005615D03*
X003445Y005615D03*
X003349Y005609D03*
X003100Y005603D03*
X003098Y005606D03*
X003040Y005665D03*
X002873Y005603D03*
X002873Y005585D03*
X002873Y005482D03*
X002872Y005479D03*
X002756Y005480D03*
X002647Y005480D03*
X002647Y005482D03*
X002645Y005479D03*
X002588Y005422D03*
X002528Y005423D03*
X002528Y005485D03*
X002422Y005482D03*
X002305Y005482D03*
X002305Y005608D03*
X002306Y005609D03*
X002422Y005605D03*
X002530Y005603D03*
X002531Y005606D03*
X002645Y005608D03*
X002645Y005609D03*
X002647Y005605D03*
X002756Y005606D03*
D58*
X003458Y005420D03*
X003545Y005561D03*
X003830Y005653D03*
X003888Y005564D03*
X004044Y005653D03*
X004269Y005648D03*
X004527Y005419D03*
X004614Y005419D03*
X004974Y005506D03*
X003393Y005969D03*
D59*
X003385Y005977D03*
X003459Y005600D03*
X003460Y005596D03*
X003560Y005599D03*
X003680Y005584D03*
X003680Y005573D03*
X003680Y005525D03*
X003680Y005524D03*
X003770Y005588D03*
X003770Y005590D03*
X003770Y005591D03*
X003771Y005594D03*
X003771Y005596D03*
X003890Y005596D03*
X003890Y005594D03*
X004103Y005470D03*
X004104Y005471D03*
X004179Y005464D03*
X004179Y005461D03*
X004179Y005459D03*
X004340Y005464D03*
X004340Y005465D03*
X004340Y005467D03*
X004418Y005600D03*
X004629Y005596D03*
X004748Y005596D03*
X004748Y005594D03*
X004748Y005593D03*
X004749Y005590D03*
X004749Y005588D03*
X004749Y005587D03*
X004839Y005587D03*
X004839Y005585D03*
X004840Y005593D03*
X004840Y005594D03*
X004839Y005543D03*
X004839Y005542D03*
X004839Y005494D03*
X004839Y005482D03*
X004839Y005480D03*
X004839Y005479D03*
X004840Y005476D03*
X004840Y005474D03*
X004958Y005465D03*
X004959Y005468D03*
X004959Y005470D03*
X004959Y005471D03*
X004960Y005474D03*
X004960Y005593D03*
X004960Y005594D03*
X003099Y005431D03*
X003040Y005668D03*
X002814Y005420D03*
D60*
X003330Y005420D03*
X004185Y005647D03*
D61*
X004687Y005648D03*
X003667Y005560D03*
X003652Y005620D03*
X003577Y005512D03*
X003608Y005420D03*
X002993Y005620D03*
X002992Y005618D03*
X002767Y005468D03*
X002542Y005621D03*
X002408Y005465D03*
X002317Y005621D03*
D62*
X002965Y005423D03*
X003347Y005731D03*
X003459Y005422D03*
X003670Y005420D03*
X004268Y005645D03*
X004615Y005422D03*
X004743Y005564D03*
D63*
X004687Y005647D03*
X004853Y005510D03*
X004435Y005513D03*
X004300Y005423D03*
X004045Y005420D03*
X004045Y005645D03*
X003665Y005558D03*
X003580Y005513D03*
X002995Y005621D03*
X002860Y005621D03*
X002635Y005621D03*
X002635Y005465D03*
X002318Y005465D03*
D64*
X002309Y005476D03*
X002418Y005476D03*
X002531Y005479D03*
X002536Y005614D03*
X002416Y005614D03*
X002757Y005506D03*
X002759Y005476D03*
X002760Y005474D03*
X002868Y005473D03*
X002869Y005611D03*
X002988Y005614D03*
X003093Y005614D03*
X004216Y005420D03*
X004259Y005453D03*
X004301Y005420D03*
X004426Y005506D03*
X004437Y005618D03*
X004214Y005920D03*
D65*
X004045Y005647D03*
X004474Y005647D03*
X004520Y005558D03*
X004465Y005420D03*
X003377Y005986D03*
X003355Y005615D03*
X003086Y005621D03*
X002863Y005618D03*
X002761Y005510D03*
X002636Y005467D03*
X002636Y005620D03*
X002410Y005620D03*
X002315Y005620D03*
X002410Y005467D03*
X003086Y007318D03*
D66*
X003086Y007316D03*
X003911Y005996D03*
X003617Y005647D03*
X004519Y005557D03*
X004901Y005420D03*
X004949Y005561D03*
D67*
X004473Y005653D03*
X004398Y005560D03*
X003543Y005560D03*
X003402Y005653D03*
X003393Y005968D03*
X002964Y005422D03*
D68*
X003091Y005422D03*
X004351Y005648D03*
X004741Y005563D03*
D69*
X004529Y005422D03*
X003391Y005971D03*
X003331Y005422D03*
D70*
X003608Y005422D03*
X003831Y005647D03*
X002858Y005464D03*
X002769Y005465D03*
X002768Y005467D03*
X002769Y005621D03*
X002408Y005621D03*
X002316Y005467D03*
X004853Y005509D03*
X004866Y005449D03*
D71*
X004266Y005644D03*
X003890Y005566D03*
X003672Y005422D03*
X003624Y005450D03*
X003093Y005423D03*
X003895Y005978D03*
D72*
X004090Y005617D03*
X004045Y005422D03*
X003663Y005555D03*
X003606Y005423D03*
X004463Y005423D03*
X004686Y005645D03*
X004947Y005560D03*
X004900Y005422D03*
X002631Y005623D03*
X002538Y005467D03*
D73*
X002406Y005464D03*
X002545Y005623D03*
X004464Y005422D03*
X004900Y005645D03*
D74*
X004508Y005620D03*
X004433Y005512D03*
X002768Y005620D03*
X002363Y005663D03*
X002363Y005423D03*
D75*
X002411Y005468D03*
X002412Y005470D03*
X002313Y005470D03*
X002313Y005618D03*
X002411Y005618D03*
X002541Y005620D03*
X002534Y005473D03*
X002589Y005423D03*
X002637Y005468D03*
X002764Y005470D03*
X002859Y005465D03*
X002861Y005467D03*
X002865Y005617D03*
X002814Y005663D03*
X002766Y005618D03*
X002764Y005617D03*
X003089Y005620D03*
X003438Y005620D03*
X003582Y005620D03*
X003574Y005510D03*
X003794Y005618D03*
X003831Y005648D03*
X003867Y005620D03*
X004009Y005449D03*
X004081Y005449D03*
X004259Y005452D03*
X004651Y005620D03*
X004725Y005618D03*
X004936Y005620D03*
X004951Y005563D03*
X004176Y007324D03*
D76*
X003345Y005728D03*
X003075Y005891D03*
X003333Y005423D03*
X003674Y005423D03*
X004531Y005423D03*
D77*
X004460Y005428D03*
X004045Y005423D03*
X003603Y005426D03*
X002769Y005516D03*
X003087Y007312D03*
D78*
X003911Y005995D03*
X004212Y005923D03*
X004094Y005615D03*
X004216Y005423D03*
X003796Y005620D03*
X003404Y005647D03*
X003076Y005905D03*
X002862Y005620D03*
X002866Y005581D03*
X002761Y005512D03*
X002535Y005471D03*
X002314Y005468D03*
X004722Y005620D03*
X004901Y005647D03*
D79*
X004618Y005423D03*
D80*
X004448Y005521D03*
X004446Y005519D03*
X004298Y005425D03*
X004900Y005423D03*
X004941Y005554D03*
X003591Y005521D03*
X003590Y005519D03*
X003372Y005992D03*
X003077Y005911D03*
X002860Y005573D03*
D81*
X002862Y005575D03*
X002814Y005662D03*
X003039Y005662D03*
X003077Y005909D03*
X002589Y005662D03*
X002540Y005465D03*
X002363Y005425D03*
X002363Y005662D03*
X003831Y005644D03*
X004044Y005644D03*
X004089Y005618D03*
X004218Y005425D03*
X004258Y005450D03*
X004473Y005644D03*
X004900Y005644D03*
X004944Y005557D03*
X004943Y005555D03*
D82*
X004045Y005441D03*
X003385Y005641D03*
X003040Y005644D03*
X003080Y005929D03*
X002564Y005425D03*
X003089Y007294D03*
X004172Y007301D03*
D83*
X004175Y007321D03*
X004211Y005926D03*
X004856Y005513D03*
X004945Y005558D03*
X002815Y005425D03*
X002404Y005623D03*
D84*
X002968Y005425D03*
X004214Y005908D03*
D85*
X004113Y005726D03*
X004406Y005566D03*
X004533Y005425D03*
X003764Y005425D03*
X003464Y005425D03*
X003344Y005726D03*
X003042Y005669D03*
X003094Y005425D03*
D86*
X003336Y005425D03*
X003893Y005570D03*
D87*
X003661Y005554D03*
X003587Y005518D03*
X003605Y005425D03*
X003617Y005644D03*
X003361Y005620D03*
X002767Y005515D03*
X003914Y006001D03*
X004442Y005516D03*
X004444Y005518D03*
X004460Y005425D03*
X004687Y005644D03*
X004175Y007319D03*
X003086Y007313D03*
D88*
X003078Y005914D03*
X003041Y005659D03*
X002772Y005521D03*
X003597Y005434D03*
X003604Y005527D03*
X004046Y005425D03*
X004455Y005434D03*
X004901Y005425D03*
X004909Y005539D03*
X004211Y005932D03*
D89*
X004214Y005909D03*
X004112Y005725D03*
X004262Y005641D03*
X004345Y005641D03*
X004621Y005425D03*
X004969Y005501D03*
X003898Y005981D03*
X003343Y005725D03*
X003464Y005426D03*
X002885Y005519D03*
D90*
X002770Y005518D03*
X002815Y005426D03*
X003040Y005660D03*
X002588Y005660D03*
X002363Y005426D03*
X003370Y005993D03*
X004211Y005930D03*
X004511Y005551D03*
X004459Y005429D03*
X004175Y007316D03*
D91*
X004172Y007300D03*
X004474Y005623D03*
X004901Y005444D03*
X003386Y005639D03*
X002566Y005426D03*
D92*
X002969Y005426D03*
X003096Y005426D03*
X003342Y005723D03*
X003551Y005566D03*
X003465Y005428D03*
X003765Y005426D03*
X004344Y005639D03*
X004534Y005426D03*
X003075Y005893D03*
X003084Y007331D03*
D93*
X003893Y005572D03*
X004178Y005641D03*
X004748Y005570D03*
X003338Y005426D03*
D94*
X003340Y005437D03*
X003340Y005438D03*
X003340Y005440D03*
X003340Y005441D03*
X003340Y005443D03*
X003340Y005444D03*
X003340Y005446D03*
X003340Y005449D03*
X003340Y005450D03*
X003340Y005452D03*
X003340Y005453D03*
X003340Y005455D03*
X003340Y005456D03*
X003340Y005458D03*
X003340Y005459D03*
X003340Y005461D03*
X003340Y005464D03*
X003340Y005465D03*
X003340Y005467D03*
X003340Y005468D03*
X003340Y005470D03*
X003340Y005471D03*
X003340Y005473D03*
X003340Y005474D03*
X003340Y005476D03*
X003340Y005479D03*
X003340Y005480D03*
X003340Y005482D03*
X003340Y005483D03*
X003340Y005485D03*
X003340Y005486D03*
X003340Y005488D03*
X003340Y005489D03*
X003340Y005491D03*
X003340Y005494D03*
X003340Y005495D03*
X003340Y005497D03*
X003340Y005498D03*
X003340Y005500D03*
X003340Y005501D03*
X003340Y005503D03*
X003340Y005504D03*
X003340Y005506D03*
X003340Y005509D03*
X003340Y005510D03*
X003340Y005512D03*
X003340Y005513D03*
X003340Y005515D03*
X003340Y005516D03*
X003340Y005518D03*
X003340Y005519D03*
X003340Y005521D03*
X003340Y005524D03*
X003340Y005525D03*
X003340Y005527D03*
X003340Y005528D03*
X003340Y005530D03*
X003340Y005531D03*
X003340Y005533D03*
X003340Y005534D03*
X003340Y005536D03*
X003340Y005539D03*
X003340Y005540D03*
X003340Y005542D03*
X003340Y005543D03*
X003340Y005545D03*
X003340Y005546D03*
X003340Y005548D03*
X003340Y005549D03*
X003340Y005551D03*
X003340Y005554D03*
X003340Y005555D03*
X003340Y005557D03*
X003340Y005558D03*
X003340Y005560D03*
X003340Y005561D03*
X003340Y005563D03*
X003340Y005564D03*
X003340Y005566D03*
X003340Y005569D03*
X003340Y005570D03*
X003340Y005572D03*
X003340Y005573D03*
X003340Y005575D03*
X003340Y005576D03*
X003340Y005648D03*
X003340Y005650D03*
X003340Y005651D03*
X003340Y005653D03*
X003340Y005654D03*
X003340Y005656D03*
X003340Y005659D03*
X003340Y005660D03*
X003340Y005662D03*
X003340Y005663D03*
X003340Y005665D03*
X003340Y005666D03*
X003340Y005668D03*
X003340Y005669D03*
X003340Y005671D03*
X003340Y005674D03*
X003340Y005675D03*
X003340Y005677D03*
X003340Y005678D03*
X003340Y005680D03*
X003340Y005681D03*
X003340Y005683D03*
X003340Y005684D03*
X003340Y005686D03*
X003340Y005689D03*
X003340Y005690D03*
X003340Y005692D03*
X003340Y005693D03*
X003340Y005695D03*
X003340Y005696D03*
X003340Y005698D03*
X003340Y005699D03*
X003340Y005701D03*
X003340Y005704D03*
X003340Y005705D03*
X003340Y005707D03*
X003340Y005708D03*
X003340Y005710D03*
X003340Y005711D03*
X003340Y005714D03*
X003340Y005716D03*
X003340Y005719D03*
X003464Y005588D03*
X003466Y005584D03*
X003466Y005581D03*
X003466Y005579D03*
X003466Y005578D03*
X003466Y005576D03*
X003466Y005575D03*
X003466Y005573D03*
X003553Y005573D03*
X003553Y005575D03*
X003553Y005576D03*
X003553Y005578D03*
X003554Y005584D03*
X003554Y005585D03*
X003556Y005587D03*
X003556Y005588D03*
X003553Y005480D03*
X003553Y005479D03*
X003553Y005476D03*
X003679Y005426D03*
X003767Y005431D03*
X003767Y005434D03*
X003895Y005579D03*
X003895Y005581D03*
X004109Y005722D03*
X004175Y005633D03*
X004175Y005632D03*
X004175Y005630D03*
X004175Y005629D03*
X004175Y005626D03*
X004175Y005624D03*
X004175Y005623D03*
X004175Y005621D03*
X004175Y005620D03*
X004175Y005618D03*
X004175Y005617D03*
X004175Y005615D03*
X004175Y005614D03*
X004175Y005611D03*
X004175Y005609D03*
X004175Y005608D03*
X004175Y005606D03*
X004175Y005605D03*
X004175Y005603D03*
X004175Y005602D03*
X004175Y005600D03*
X004175Y005599D03*
X004175Y005596D03*
X004175Y005594D03*
X004175Y005593D03*
X004175Y005591D03*
X004175Y005590D03*
X004175Y005588D03*
X004175Y005587D03*
X004175Y005585D03*
X004175Y005584D03*
X004175Y005581D03*
X004175Y005579D03*
X004175Y005578D03*
X004175Y005576D03*
X004175Y005575D03*
X004175Y005573D03*
X004175Y005572D03*
X004175Y005570D03*
X004175Y005569D03*
X004175Y005566D03*
X004175Y005564D03*
X004175Y005563D03*
X004175Y005561D03*
X004175Y005560D03*
X004175Y005558D03*
X004175Y005557D03*
X004175Y005555D03*
X004175Y005554D03*
X004175Y005551D03*
X004175Y005549D03*
X004175Y005548D03*
X004175Y005546D03*
X004175Y005545D03*
X004175Y005543D03*
X004175Y005542D03*
X004175Y005540D03*
X004175Y005539D03*
X004175Y005536D03*
X004175Y005534D03*
X004175Y005533D03*
X004175Y005531D03*
X004175Y005530D03*
X004175Y005528D03*
X004175Y005527D03*
X004175Y005525D03*
X004175Y005524D03*
X004175Y005521D03*
X004175Y005519D03*
X004175Y005518D03*
X004175Y005516D03*
X004175Y005515D03*
X004175Y005513D03*
X004175Y005512D03*
X004175Y005510D03*
X004175Y005509D03*
X004175Y005506D03*
X004175Y005504D03*
X004175Y005503D03*
X004175Y005501D03*
X004175Y005500D03*
X004175Y005498D03*
X004175Y005497D03*
X004175Y005495D03*
X004175Y005494D03*
X004175Y005491D03*
X004175Y005489D03*
X004175Y005488D03*
X004175Y005486D03*
X004175Y005485D03*
X004175Y005483D03*
X004175Y005482D03*
X004175Y005480D03*
X004175Y005479D03*
X004175Y005476D03*
X004259Y005543D03*
X004259Y005545D03*
X004259Y005546D03*
X004259Y005548D03*
X004259Y005549D03*
X004259Y005551D03*
X004259Y005554D03*
X004259Y005555D03*
X004259Y005557D03*
X004259Y005558D03*
X004259Y005560D03*
X004259Y005561D03*
X004259Y005563D03*
X004259Y005564D03*
X004259Y005566D03*
X004259Y005569D03*
X004259Y005570D03*
X004259Y005572D03*
X004259Y005573D03*
X004259Y005575D03*
X004259Y005576D03*
X004259Y005578D03*
X004259Y005579D03*
X004259Y005581D03*
X004259Y005584D03*
X004259Y005585D03*
X004259Y005587D03*
X004259Y005588D03*
X004259Y005590D03*
X004259Y005591D03*
X004259Y005593D03*
X004259Y005594D03*
X004259Y005596D03*
X004259Y005599D03*
X004259Y005600D03*
X004259Y005602D03*
X004259Y005603D03*
X004259Y005605D03*
X004259Y005606D03*
X004259Y005608D03*
X004259Y005609D03*
X004259Y005611D03*
X004259Y005614D03*
X004259Y005615D03*
X004259Y005617D03*
X004259Y005618D03*
X004259Y005620D03*
X004259Y005621D03*
X004259Y005623D03*
X004259Y005624D03*
X004259Y005626D03*
X004259Y005629D03*
X004259Y005630D03*
X004259Y005632D03*
X004259Y005633D03*
X004259Y005635D03*
X004259Y005636D03*
X004409Y005575D03*
X004409Y005573D03*
X004535Y005573D03*
X004535Y005575D03*
X004535Y005584D03*
X004535Y005585D03*
X004535Y005587D03*
X004535Y005528D03*
X004535Y005527D03*
X004535Y005525D03*
X004624Y005579D03*
X004624Y005581D03*
X004625Y005585D03*
X004625Y005587D03*
X004750Y005575D03*
X004750Y005573D03*
X004963Y005585D03*
X004964Y005581D03*
X004964Y005579D03*
X004966Y005495D03*
X004966Y005494D03*
X004966Y005491D03*
X004966Y005489D03*
X004966Y005488D03*
X004964Y005486D03*
X004964Y005485D03*
X004964Y005483D03*
X004963Y005480D03*
X003386Y005975D03*
X002815Y005668D03*
X002882Y005515D03*
X002969Y005428D03*
X003085Y007330D03*
D95*
X003367Y005998D03*
X003617Y005641D03*
X003653Y005548D03*
X003593Y005441D03*
X003830Y005641D03*
X004045Y005426D03*
X004451Y005440D03*
X004507Y005546D03*
X004210Y005933D03*
X004901Y005641D03*
X002854Y005569D03*
D96*
X002581Y005455D03*
X004259Y005426D03*
X003627Y007522D03*
D97*
X004175Y007318D03*
X004211Y005929D03*
X004087Y005620D03*
X004460Y005426D03*
X002542Y005464D03*
D98*
X002775Y005524D03*
X002814Y005431D03*
X003078Y005915D03*
X003366Y005999D03*
X003919Y006007D03*
X004444Y005449D03*
X004446Y005446D03*
X004449Y005443D03*
X004451Y005441D03*
X004901Y005426D03*
X003087Y007306D03*
D99*
X003368Y005995D03*
X002814Y005428D03*
X002589Y005659D03*
X002363Y005428D03*
X004509Y005549D03*
D100*
X003617Y005621D03*
X003388Y005636D03*
X002567Y005428D03*
X004172Y007298D03*
D101*
X003983Y005588D03*
X003983Y005587D03*
X003893Y005584D03*
X003982Y005485D03*
X003982Y005483D03*
X003983Y005480D03*
X003983Y005479D03*
X004177Y005474D03*
X004177Y005473D03*
X004342Y005476D03*
X003097Y005428D03*
D102*
X003602Y005428D03*
X003598Y005524D03*
X004454Y005524D03*
X004861Y005516D03*
D103*
X004962Y005479D03*
X004964Y005482D03*
X004965Y005578D03*
X004964Y005584D03*
X004962Y005587D03*
X004962Y005588D03*
X004751Y005578D03*
X004751Y005576D03*
X004534Y005572D03*
X004534Y005588D03*
X004534Y005590D03*
X004534Y005530D03*
X004410Y005576D03*
X004410Y005578D03*
X004410Y005579D03*
X004410Y005581D03*
X004411Y005587D03*
X004411Y005588D03*
X004411Y005590D03*
X004413Y005591D03*
X004413Y005593D03*
X004414Y005594D03*
X004259Y005542D03*
X004259Y005540D03*
X004259Y005539D03*
X004259Y005536D03*
X004259Y005534D03*
X004259Y005533D03*
X004259Y005531D03*
X004259Y005530D03*
X004259Y005528D03*
X004259Y005527D03*
X004259Y005521D03*
X004259Y005516D03*
X004259Y005515D03*
X004259Y005513D03*
X004259Y005510D03*
X004259Y005509D03*
X004259Y005506D03*
X004259Y005501D03*
X004259Y005498D03*
X004259Y005497D03*
X004259Y005495D03*
X004259Y005491D03*
X004259Y005486D03*
X004259Y005485D03*
X004259Y005483D03*
X004259Y005482D03*
X004259Y005480D03*
X004259Y005479D03*
X004109Y005491D03*
X004109Y005494D03*
X004109Y005495D03*
X004109Y005497D03*
X004109Y005500D03*
X004109Y005501D03*
X004109Y005504D03*
X004109Y005512D03*
X004109Y005513D03*
X004109Y005515D03*
X004109Y005516D03*
X004109Y005519D03*
X004109Y005524D03*
X004109Y005525D03*
X004109Y005527D03*
X004109Y005528D03*
X004109Y005530D03*
X004109Y005533D03*
X004109Y005534D03*
X004109Y005536D03*
X004109Y005540D03*
X004109Y005543D03*
X004109Y005545D03*
X004109Y005548D03*
X004109Y005551D03*
X004109Y005554D03*
X004109Y005555D03*
X004109Y005557D03*
X004109Y005558D03*
X004109Y005561D03*
X004109Y005563D03*
X004109Y005564D03*
X004109Y005566D03*
X004109Y005570D03*
X004109Y005572D03*
X004109Y005573D03*
X004109Y005575D03*
X004109Y005660D03*
X004109Y005662D03*
X004109Y005663D03*
X004109Y005665D03*
X004109Y005668D03*
X004109Y005669D03*
X004109Y005674D03*
X004109Y005677D03*
X004109Y005681D03*
X004109Y005683D03*
X004109Y005686D03*
X004109Y005689D03*
X004109Y005692D03*
X004109Y005693D03*
X004109Y005695D03*
X004109Y005698D03*
X004109Y005701D03*
X004109Y005704D03*
X004109Y005705D03*
X004109Y005707D03*
X004109Y005719D03*
X004109Y005720D03*
X003986Y005591D03*
X003986Y005474D03*
X004107Y005479D03*
X003768Y005479D03*
X003768Y005480D03*
X003768Y005482D03*
X003768Y005483D03*
X003768Y005485D03*
X003768Y005486D03*
X003768Y005488D03*
X003768Y005489D03*
X003768Y005491D03*
X003768Y005494D03*
X003768Y005495D03*
X003768Y005497D03*
X003768Y005498D03*
X003768Y005500D03*
X003768Y005501D03*
X003768Y005503D03*
X003768Y005504D03*
X003768Y005506D03*
X003768Y005509D03*
X003768Y005510D03*
X003768Y005512D03*
X003768Y005513D03*
X003768Y005515D03*
X003768Y005516D03*
X003768Y005518D03*
X003768Y005519D03*
X003768Y005521D03*
X003768Y005524D03*
X003768Y005525D03*
X003768Y005527D03*
X003768Y005528D03*
X003768Y005530D03*
X003768Y005531D03*
X003768Y005533D03*
X003768Y005534D03*
X003768Y005536D03*
X003768Y005539D03*
X003768Y005540D03*
X003768Y005542D03*
X003768Y005543D03*
X003768Y005545D03*
X003768Y005546D03*
X003768Y005548D03*
X003768Y005549D03*
X003768Y005551D03*
X003768Y005554D03*
X003768Y005555D03*
X003768Y005557D03*
X003768Y005558D03*
X003768Y005560D03*
X003768Y005561D03*
X003768Y005563D03*
X003768Y005564D03*
X003768Y005566D03*
X003768Y005569D03*
X003768Y005570D03*
X003768Y005572D03*
X003768Y005573D03*
X003768Y005575D03*
X003768Y005576D03*
X003768Y005578D03*
X003768Y005476D03*
X003768Y005474D03*
X003768Y005473D03*
X003768Y005471D03*
X003768Y005470D03*
X003768Y005468D03*
X003768Y005467D03*
X003768Y005465D03*
X003768Y005464D03*
X003768Y005461D03*
X003768Y005459D03*
X003768Y005458D03*
X003768Y005456D03*
X003768Y005455D03*
X003768Y005453D03*
X003768Y005452D03*
X003768Y005450D03*
X003768Y005449D03*
X003768Y005446D03*
X003768Y005444D03*
X003768Y005443D03*
X003768Y005441D03*
X003768Y005440D03*
X003768Y005438D03*
X003768Y005437D03*
X003768Y005435D03*
X003679Y005429D03*
X003679Y005428D03*
X003554Y005473D03*
X003554Y005474D03*
X003554Y005482D03*
X003554Y005483D03*
X003556Y005590D03*
X003465Y005587D03*
X003465Y005585D03*
X003464Y005590D03*
X003341Y005587D03*
X003341Y005585D03*
X003341Y005584D03*
X003341Y005581D03*
X003341Y005579D03*
X003341Y005578D03*
X003341Y005647D03*
X003075Y005894D03*
X003900Y005983D03*
D104*
X004211Y005935D03*
X004046Y005428D03*
X004901Y005428D03*
X004901Y005639D03*
X003364Y006001D03*
X003078Y005917D03*
X002851Y005566D03*
X004174Y007312D03*
X003616Y007523D03*
D105*
X004259Y005428D03*
D106*
X002363Y005429D03*
D107*
X002568Y005429D03*
X002588Y005641D03*
X003040Y005641D03*
X003081Y005932D03*
X003831Y005621D03*
X004060Y005636D03*
X003933Y006026D03*
X004902Y005621D03*
D108*
X004864Y005521D03*
X004469Y005531D03*
X004452Y005438D03*
X004454Y005437D03*
X003654Y005549D03*
X003609Y005530D03*
X003594Y005440D03*
X003594Y005438D03*
X003596Y005437D03*
X002814Y005429D03*
X004174Y007313D03*
D109*
X004178Y007334D03*
X003984Y005590D03*
X003983Y005585D03*
X003983Y005584D03*
X003981Y005581D03*
X003981Y005579D03*
X003981Y005578D03*
X003981Y005576D03*
X003981Y005575D03*
X003981Y005573D03*
X003981Y005494D03*
X003981Y005491D03*
X003981Y005489D03*
X003981Y005488D03*
X003981Y005486D03*
X003983Y005482D03*
X003984Y005476D03*
X003893Y005585D03*
X003893Y005587D03*
X004178Y005471D03*
X004178Y005470D03*
X004341Y005473D03*
X004341Y005474D03*
X004626Y005588D03*
X004626Y005590D03*
X004628Y005591D03*
X003339Y005713D03*
X003098Y005429D03*
D110*
X003601Y005429D03*
X003918Y006004D03*
X004458Y005431D03*
X004919Y005543D03*
X003087Y007310D03*
D111*
X003040Y005654D03*
X002363Y005654D03*
X003831Y005638D03*
X004045Y005429D03*
X004688Y005638D03*
X004900Y005638D03*
X004900Y005429D03*
D112*
X004258Y005429D03*
X003083Y005944D03*
D113*
X003593Y005443D03*
X004448Y005444D03*
X004688Y005641D03*
X002363Y005431D03*
D114*
X002569Y005431D03*
X002813Y005449D03*
X002795Y005542D03*
X002815Y005639D03*
X003353Y006016D03*
X004060Y005635D03*
X004207Y005951D03*
X004172Y007297D03*
D115*
X004107Y005647D03*
X004107Y005645D03*
X004107Y005591D03*
X003989Y005599D03*
X003987Y005596D03*
X003987Y005594D03*
X003987Y005471D03*
X004259Y005471D03*
X004259Y005470D03*
X004259Y005473D03*
X004259Y005474D03*
X004410Y005474D03*
X004410Y005473D03*
X004410Y005471D03*
X004410Y005470D03*
X004410Y005468D03*
X004411Y005465D03*
X004410Y005476D03*
X004410Y005479D03*
X004410Y005480D03*
X004410Y005482D03*
X004410Y005483D03*
X004410Y005485D03*
X004410Y005486D03*
X004410Y005488D03*
X004533Y005569D03*
X004531Y005596D03*
X004530Y005599D03*
X004842Y005596D03*
X004844Y005599D03*
X004964Y005575D03*
X003678Y005590D03*
X003678Y005591D03*
X003678Y005593D03*
X003676Y005594D03*
X003676Y005596D03*
X003558Y005596D03*
X003558Y005594D03*
X003462Y005593D03*
X003342Y005593D03*
X003342Y005594D03*
X003555Y005488D03*
X003556Y005489D03*
X003556Y005491D03*
X003555Y005468D03*
X003556Y005467D03*
X003556Y005465D03*
X002971Y005431D03*
X002880Y005512D03*
D116*
X003602Y005525D03*
X003656Y005551D03*
X003601Y005431D03*
X004459Y005525D03*
X004862Y005518D03*
X004924Y005545D03*
X004934Y005551D03*
D117*
X004960Y005473D03*
X004838Y005483D03*
X004838Y005485D03*
X004838Y005486D03*
X004838Y005488D03*
X004838Y005489D03*
X004838Y005491D03*
X004838Y005545D03*
X004838Y005546D03*
X004838Y005548D03*
X004838Y005549D03*
X004838Y005551D03*
X004838Y005554D03*
X004838Y005555D03*
X004838Y005557D03*
X004838Y005558D03*
X004838Y005560D03*
X004838Y005561D03*
X004838Y005563D03*
X004838Y005564D03*
X004838Y005566D03*
X004838Y005569D03*
X004838Y005570D03*
X004838Y005572D03*
X004838Y005573D03*
X004838Y005575D03*
X004838Y005576D03*
X004838Y005578D03*
X004838Y005579D03*
X004838Y005581D03*
X004838Y005584D03*
X004840Y005588D03*
X004840Y005590D03*
X004840Y005591D03*
X004750Y005585D03*
X004750Y005584D03*
X004750Y005581D03*
X004750Y005579D03*
X004748Y005591D03*
X004628Y005593D03*
X004628Y005594D03*
X004417Y005599D03*
X004415Y005596D03*
X004340Y005471D03*
X004340Y005470D03*
X004340Y005468D03*
X004178Y005468D03*
X004178Y005467D03*
X004178Y005465D03*
X004105Y005473D03*
X004105Y005474D03*
X003980Y005495D03*
X003980Y005497D03*
X003980Y005498D03*
X003980Y005500D03*
X003980Y005501D03*
X003980Y005503D03*
X003980Y005504D03*
X003980Y005506D03*
X003980Y005509D03*
X003980Y005510D03*
X003980Y005512D03*
X003980Y005513D03*
X003980Y005515D03*
X003980Y005516D03*
X003980Y005518D03*
X003980Y005519D03*
X003980Y005521D03*
X003980Y005524D03*
X003980Y005525D03*
X003980Y005527D03*
X003980Y005528D03*
X003980Y005530D03*
X003980Y005531D03*
X003980Y005533D03*
X003980Y005534D03*
X003980Y005536D03*
X003980Y005539D03*
X003980Y005540D03*
X003980Y005542D03*
X003980Y005543D03*
X003980Y005545D03*
X003980Y005546D03*
X003980Y005548D03*
X003980Y005549D03*
X003980Y005551D03*
X003980Y005554D03*
X003980Y005555D03*
X003980Y005557D03*
X003980Y005558D03*
X003980Y005560D03*
X003980Y005561D03*
X003980Y005563D03*
X003980Y005564D03*
X003980Y005566D03*
X003980Y005569D03*
X003980Y005570D03*
X003980Y005572D03*
X003892Y005588D03*
X003892Y005590D03*
X003890Y005591D03*
X003890Y005593D03*
X003770Y005593D03*
X003680Y005581D03*
X003680Y005579D03*
X003680Y005578D03*
X003680Y005576D03*
X003680Y005575D03*
X003680Y005521D03*
X003680Y005519D03*
X003680Y005518D03*
X003680Y005516D03*
X003680Y005515D03*
X003680Y005513D03*
X003680Y005512D03*
X003680Y005510D03*
X003680Y005509D03*
X003680Y005506D03*
X003680Y005504D03*
X003680Y005503D03*
X003680Y005501D03*
X003680Y005500D03*
X003680Y005498D03*
X003680Y005497D03*
X003680Y005495D03*
X003680Y005494D03*
X003680Y005491D03*
X003680Y005489D03*
X003680Y005488D03*
X003680Y005486D03*
X003680Y005485D03*
X003680Y005483D03*
X003680Y005482D03*
X003680Y005480D03*
X003680Y005479D03*
X003680Y005476D03*
X003680Y005474D03*
X003680Y005473D03*
X003680Y005471D03*
X003680Y005470D03*
X003680Y005468D03*
X003680Y005467D03*
X003680Y005465D03*
X003680Y005464D03*
X003680Y005461D03*
X003680Y005459D03*
X003680Y005458D03*
X003680Y005456D03*
X003680Y005455D03*
X003680Y005453D03*
X003680Y005452D03*
X003680Y005450D03*
X003680Y005449D03*
X003680Y005446D03*
X003680Y005444D03*
X003680Y005443D03*
X003680Y005441D03*
X003680Y005440D03*
X003680Y005438D03*
X003680Y005437D03*
X003680Y005435D03*
X003680Y005434D03*
X003680Y005431D03*
X002588Y005668D03*
X002363Y005668D03*
X003085Y007328D03*
D118*
X004209Y005938D03*
X003831Y005636D03*
X004045Y005431D03*
X004688Y005636D03*
X004900Y005636D03*
X002814Y005434D03*
X002589Y005653D03*
D119*
X002813Y005557D03*
X004205Y005965D03*
X004258Y005431D03*
D120*
X004474Y005636D03*
X004210Y005936D03*
X003922Y006011D03*
X003649Y005543D03*
X003079Y005920D03*
X004174Y007310D03*
X004900Y005431D03*
D121*
X002813Y005432D03*
X002363Y005432D03*
D122*
X002570Y005432D03*
X003353Y006017D03*
D123*
X003558Y005462D03*
X003100Y005432D03*
X002973Y005432D03*
X004098Y005462D03*
X004413Y005462D03*
X004848Y005462D03*
X004955Y005462D03*
D124*
X004623Y005462D03*
X004623Y005447D03*
X004623Y005432D03*
X004623Y005477D03*
X004623Y005492D03*
X004623Y005507D03*
X004623Y005522D03*
X004623Y005537D03*
X004623Y005552D03*
X004623Y005567D03*
X004536Y005582D03*
X004536Y005522D03*
X004536Y005507D03*
X004536Y005492D03*
X004536Y005477D03*
X004536Y005462D03*
X004536Y005447D03*
X004536Y005432D03*
X003466Y005447D03*
X003466Y005462D03*
X003466Y005477D03*
X003466Y005492D03*
X003466Y005507D03*
X003466Y005522D03*
X003466Y005537D03*
X003466Y005552D03*
X003466Y005567D03*
X003339Y005432D03*
D125*
X003466Y005432D03*
X003551Y005567D03*
D126*
X003599Y005432D03*
X004456Y005432D03*
D127*
X004750Y005582D03*
X004838Y005582D03*
X004838Y005567D03*
X004838Y005552D03*
X004840Y005477D03*
X003980Y005507D03*
X003980Y005522D03*
X003980Y005537D03*
X003980Y005552D03*
X003980Y005567D03*
X003680Y005582D03*
X003680Y005522D03*
X003680Y005507D03*
X003680Y005492D03*
X003680Y005477D03*
X003680Y005462D03*
X003680Y005447D03*
X003680Y005432D03*
D128*
X003767Y005432D03*
X003553Y005477D03*
X003554Y005582D03*
X003466Y005582D03*
X003340Y005567D03*
X003340Y005552D03*
X003340Y005537D03*
X003340Y005522D03*
X003340Y005507D03*
X003340Y005492D03*
X003340Y005477D03*
X003340Y005462D03*
X003340Y005447D03*
X003340Y005657D03*
X003340Y005672D03*
X003340Y005687D03*
X003340Y005702D03*
X003340Y005717D03*
X004175Y005627D03*
X004175Y005612D03*
X004175Y005597D03*
X004175Y005582D03*
X004175Y005567D03*
X004175Y005552D03*
X004175Y005537D03*
X004175Y005522D03*
X004175Y005507D03*
X004175Y005492D03*
X004175Y005477D03*
X004259Y005552D03*
X004259Y005567D03*
X004259Y005582D03*
X004259Y005597D03*
X004259Y005612D03*
X004259Y005627D03*
X004624Y005582D03*
X004966Y005492D03*
D129*
X004900Y005432D03*
X004045Y005432D03*
D130*
X004259Y005432D03*
D131*
X004474Y005635D03*
X004210Y005939D03*
X003617Y005635D03*
X003040Y005653D03*
X002815Y005653D03*
X002780Y005527D03*
X002363Y005434D03*
X002363Y005653D03*
X003088Y007303D03*
X004174Y007309D03*
X004901Y005635D03*
X004871Y005525D03*
D132*
X004208Y005953D03*
X004058Y005632D03*
X003392Y005630D03*
X003040Y005638D03*
X002815Y005636D03*
X002798Y005543D03*
X002814Y005452D03*
X002589Y005636D03*
X002589Y005638D03*
X002571Y005434D03*
X002363Y005450D03*
X003081Y005933D03*
X003351Y006019D03*
D133*
X003079Y005923D03*
X003040Y005651D03*
X002783Y005531D03*
X002363Y005435D03*
X002363Y005651D03*
X003617Y005632D03*
X003830Y005633D03*
X004045Y005434D03*
X004498Y005540D03*
X004687Y005633D03*
X003925Y006014D03*
X004174Y007306D03*
D134*
X003091Y007274D03*
X004259Y005434D03*
D135*
X004209Y005941D03*
X004873Y005527D03*
X004900Y005434D03*
X002845Y005561D03*
X002783Y005530D03*
X002814Y005435D03*
X002815Y005651D03*
X002589Y005651D03*
D136*
X002573Y005435D03*
X002800Y005545D03*
X003040Y005633D03*
X003394Y005626D03*
X004207Y005954D03*
D137*
X003919Y006005D03*
X003596Y005435D03*
X002855Y005570D03*
X002815Y005659D03*
X004454Y005435D03*
X004465Y005530D03*
X004474Y005641D03*
X004864Y005519D03*
X004930Y005548D03*
X004931Y005549D03*
X003086Y007309D03*
D138*
X003926Y006016D03*
X004045Y005435D03*
X004496Y005539D03*
X004687Y005632D03*
X002843Y005560D03*
X002785Y005533D03*
X002815Y005650D03*
X002363Y005650D03*
D139*
X004204Y005969D03*
X004259Y005435D03*
D140*
X004475Y005632D03*
X004902Y005632D03*
X004900Y005435D03*
X002814Y005437D03*
D141*
X002814Y005438D03*
X002841Y005558D03*
X002815Y005648D03*
X003040Y005650D03*
X003080Y005924D03*
X002589Y005650D03*
X002363Y005437D03*
X003831Y005632D03*
X004475Y005630D03*
D142*
X004055Y005626D03*
X003395Y005624D03*
X003395Y005623D03*
X003040Y005632D03*
X002815Y005633D03*
X002814Y005455D03*
X002589Y005632D03*
X002574Y005437D03*
X002363Y005453D03*
X002363Y005633D03*
D143*
X004045Y005437D03*
X004495Y005536D03*
X004687Y005630D03*
X004900Y005437D03*
D144*
X004259Y005437D03*
X004169Y007280D03*
D145*
X004209Y005944D03*
X003831Y005630D03*
X002814Y005440D03*
X002589Y005648D03*
X002363Y005648D03*
X002363Y005438D03*
D146*
X002363Y005455D03*
X002363Y005632D03*
X002575Y005438D03*
X002588Y005630D03*
X002815Y005632D03*
X003082Y005936D03*
X003395Y005621D03*
D147*
X003674Y005564D03*
X003104Y005564D03*
X003104Y005563D03*
X003104Y005561D03*
X003104Y005560D03*
X003104Y005558D03*
X003104Y005557D03*
X003104Y005555D03*
X003104Y005554D03*
X003104Y005551D03*
X003104Y005549D03*
X003104Y005548D03*
X003104Y005546D03*
X003104Y005545D03*
X003104Y005543D03*
X003104Y005542D03*
X003104Y005540D03*
X003104Y005539D03*
X003104Y005536D03*
X003104Y005534D03*
X003104Y005533D03*
X003104Y005531D03*
X003104Y005530D03*
X003104Y005528D03*
X003104Y005527D03*
X003104Y005525D03*
X003104Y005524D03*
X003104Y005521D03*
X003104Y005519D03*
X003104Y005518D03*
X003104Y005516D03*
X003104Y005515D03*
X003104Y005513D03*
X003104Y005512D03*
X003104Y005510D03*
X003104Y005509D03*
X003104Y005506D03*
X003104Y005504D03*
X003104Y005503D03*
X003104Y005501D03*
X003104Y005500D03*
X003104Y005498D03*
X003104Y005497D03*
X003104Y005495D03*
X003104Y005494D03*
X003104Y005491D03*
X003104Y005489D03*
X003104Y005488D03*
X003104Y005486D03*
X003104Y005485D03*
X003104Y005483D03*
X003104Y005482D03*
X003104Y005480D03*
X003104Y005479D03*
X003104Y005476D03*
X003104Y005474D03*
X003104Y005473D03*
X003104Y005471D03*
X003104Y005470D03*
X003104Y005468D03*
X003104Y005467D03*
X003104Y005465D03*
X003104Y005464D03*
X003104Y005461D03*
X003104Y005459D03*
X003104Y005458D03*
X003104Y005456D03*
X003104Y005455D03*
X003104Y005453D03*
X003104Y005452D03*
X003104Y005450D03*
X003104Y005449D03*
X003104Y005446D03*
X003104Y005444D03*
X003104Y005443D03*
X003104Y005441D03*
X003104Y005440D03*
X003104Y005438D03*
X003104Y005566D03*
X003104Y005569D03*
X003104Y005570D03*
X003104Y005572D03*
X003104Y005573D03*
X003104Y005575D03*
X003104Y005576D03*
X003104Y005578D03*
X003104Y005579D03*
X003104Y005581D03*
X003104Y005584D03*
X003104Y005585D03*
X003104Y005587D03*
X003104Y005588D03*
X003104Y005590D03*
X003104Y005591D03*
X004844Y005503D03*
D148*
X004900Y005438D03*
X004901Y005629D03*
X004474Y005629D03*
X004045Y005438D03*
X003640Y005536D03*
X003358Y006010D03*
X003080Y005926D03*
X002788Y005534D03*
X003928Y006020D03*
X004172Y007303D03*
D149*
X003091Y007273D03*
X004204Y005971D03*
X004259Y005438D03*
D150*
X002363Y005440D03*
X002363Y005647D03*
D151*
X002576Y005441D03*
X002576Y005440D03*
X002802Y005546D03*
X003041Y005630D03*
X004053Y005621D03*
X003090Y007285D03*
D152*
X003358Y006011D03*
X003040Y005645D03*
X002588Y005645D03*
X003638Y005534D03*
X004045Y005440D03*
X004208Y005945D03*
X003929Y006022D03*
X004880Y005534D03*
X004900Y005441D03*
D153*
X004259Y005440D03*
X003083Y005951D03*
X004169Y007279D03*
D154*
X003089Y007295D03*
X003041Y005647D03*
X002816Y005645D03*
X002814Y005441D03*
X003618Y005626D03*
X003831Y005629D03*
X004901Y005440D03*
D155*
X004688Y005626D03*
X002363Y005645D03*
X002363Y005441D03*
D156*
X003091Y007271D03*
X004259Y005443D03*
X004259Y005441D03*
D157*
X003831Y005624D03*
X003636Y005533D03*
X004208Y005948D03*
X002814Y005444D03*
X002363Y005443D03*
D158*
X002576Y005443D03*
X002815Y005629D03*
X002815Y005630D03*
X003041Y005629D03*
D159*
X002816Y005644D03*
X002790Y005536D03*
X002814Y005443D03*
X003618Y005624D03*
X003831Y005626D03*
X004474Y005626D03*
X004491Y005533D03*
X004901Y005443D03*
X004902Y005626D03*
D160*
X004883Y005536D03*
X004687Y005623D03*
X004045Y005443D03*
X003080Y005930D03*
X002363Y005444D03*
D161*
X002364Y005458D03*
X002577Y005444D03*
X002814Y005459D03*
X002814Y005461D03*
X002804Y005548D03*
D162*
X002588Y005656D03*
X003592Y005444D03*
X003652Y005546D03*
D163*
X003634Y005531D03*
X004045Y005446D03*
X004045Y005444D03*
X004061Y005638D03*
X004687Y005621D03*
X004901Y005446D03*
X002815Y005641D03*
X002794Y005540D03*
X002363Y005446D03*
X002363Y005641D03*
D164*
X004259Y005444D03*
D165*
X004206Y005959D03*
X003041Y005626D03*
X002816Y005624D03*
X002579Y005446D03*
D166*
X002814Y005446D03*
X003354Y006014D03*
X003831Y005623D03*
X004208Y005950D03*
X004475Y005621D03*
D167*
X004474Y005639D03*
X004505Y005545D03*
X003920Y006008D03*
X003617Y005639D03*
X003590Y005446D03*
X003040Y005656D03*
X002815Y005656D03*
D168*
X004259Y005446D03*
D169*
X004045Y005447D03*
X004901Y005447D03*
X002363Y005447D03*
D170*
X002579Y005447D03*
D171*
X002814Y005447D03*
D172*
X002875Y005492D03*
X002976Y005492D03*
X002976Y005477D03*
X002976Y005462D03*
X002976Y005447D03*
X002976Y005507D03*
X002976Y005522D03*
X002976Y005537D03*
X002976Y005552D03*
X002976Y005567D03*
X002976Y005582D03*
X002979Y005597D03*
X002652Y005492D03*
X002526Y005492D03*
X002425Y005507D03*
X002425Y005522D03*
X002425Y005537D03*
X002425Y005552D03*
X002425Y005567D03*
X002425Y005582D03*
X003665Y005612D03*
X003783Y005612D03*
X003998Y005612D03*
X004521Y005612D03*
X004854Y005612D03*
X004948Y005612D03*
D173*
X003104Y005582D03*
X003104Y005567D03*
X003104Y005552D03*
X003104Y005537D03*
X003104Y005522D03*
X003104Y005507D03*
X003104Y005492D03*
X003104Y005477D03*
X003104Y005462D03*
X003104Y005447D03*
D174*
X003589Y005447D03*
D175*
X003768Y005447D03*
X003768Y005462D03*
X003768Y005477D03*
X003768Y005492D03*
X003768Y005507D03*
X003768Y005522D03*
X003768Y005537D03*
X003768Y005552D03*
X003768Y005567D03*
X004109Y005567D03*
X004109Y005552D03*
X004109Y005537D03*
X004109Y005522D03*
X004109Y005507D03*
X004109Y005492D03*
X004259Y005492D03*
X004259Y005537D03*
X004109Y005672D03*
X004109Y005687D03*
X004109Y005702D03*
X004109Y005717D03*
X003341Y005582D03*
X004964Y005582D03*
X004962Y005477D03*
D176*
X004259Y005447D03*
D177*
X004446Y005447D03*
X004866Y005522D03*
X003041Y005657D03*
X002853Y005567D03*
D178*
X002815Y005638D03*
X002814Y005450D03*
X002589Y005639D03*
X002363Y005639D03*
X002363Y005449D03*
X003040Y005639D03*
X003933Y006028D03*
X004059Y005633D03*
D179*
X003041Y005624D03*
X002580Y005450D03*
X002580Y005449D03*
D180*
X002531Y005476D03*
X002417Y005474D03*
X002416Y005473D03*
X002309Y005474D03*
X002309Y005614D03*
X002414Y005615D03*
X002537Y005615D03*
X002641Y005615D03*
X002761Y005614D03*
X002761Y005473D03*
X002866Y005471D03*
X003440Y005618D03*
X003580Y005618D03*
X003617Y005650D03*
X003569Y005506D03*
X003571Y005449D03*
X003791Y005617D03*
X003871Y005617D03*
X004006Y005450D03*
X004085Y005450D03*
X004511Y005617D03*
X004648Y005617D03*
X004727Y005617D03*
X004861Y005617D03*
X004940Y005617D03*
X004954Y005564D03*
X003086Y007321D03*
D181*
X004747Y005569D03*
X003622Y005449D03*
D182*
X004259Y005449D03*
X004169Y007274D03*
D183*
X003076Y005902D03*
X002759Y005611D03*
X002758Y005609D03*
X002642Y005614D03*
X002642Y005473D03*
X002869Y005474D03*
X002419Y005611D03*
X002306Y005479D03*
X003568Y005450D03*
X003659Y005615D03*
X004006Y005617D03*
X004099Y005611D03*
X004474Y005650D03*
D184*
X004515Y005615D03*
X004425Y005450D03*
X004259Y005455D03*
X004002Y005452D03*
X003873Y005615D03*
X003672Y005563D03*
X003567Y005504D03*
X003404Y005650D03*
X002985Y005611D03*
X002757Y005608D03*
X002757Y005479D03*
X002643Y005474D03*
X002532Y005608D03*
X002534Y005609D03*
X002534Y005611D03*
X002307Y005611D03*
X004214Y005918D03*
X004859Y005615D03*
X004846Y005504D03*
D185*
X004942Y005450D03*
X004955Y005566D03*
X004943Y005615D03*
X004900Y005650D03*
X004730Y005615D03*
X004045Y005650D03*
X003830Y005650D03*
X003788Y005615D03*
X003907Y005992D03*
X003380Y005983D03*
X003350Y005611D03*
X002872Y005606D03*
X002870Y005609D03*
X002870Y005476D03*
X002530Y005480D03*
X002530Y005482D03*
X002420Y005480D03*
X002420Y005479D03*
X002420Y005608D03*
X002420Y005609D03*
D186*
X002363Y005635D03*
X002363Y005452D03*
X002589Y005633D03*
X002589Y005635D03*
X002815Y005635D03*
X002814Y005453D03*
X003040Y005635D03*
X003081Y005935D03*
X004056Y005629D03*
D187*
X002581Y005453D03*
X002581Y005452D03*
X003091Y007282D03*
X004171Y007288D03*
D188*
X004176Y007327D03*
X004100Y005609D03*
X004089Y005452D03*
X004434Y005617D03*
X004645Y005615D03*
X003099Y005605D03*
X003098Y005608D03*
X003098Y005609D03*
X003096Y005611D03*
X002873Y005605D03*
X002873Y005584D03*
X002755Y005504D03*
X002645Y005476D03*
X002529Y005483D03*
X002530Y005605D03*
X002421Y005606D03*
X002363Y005665D03*
X002305Y005480D03*
X002645Y005611D03*
D189*
X003345Y005602D03*
X003345Y005600D03*
X003780Y005608D03*
X004335Y005453D03*
X004635Y005606D03*
D190*
X004630Y005600D03*
X004630Y005599D03*
X004744Y005600D03*
X004745Y005599D03*
X004840Y005540D03*
X004840Y005495D03*
X004841Y005473D03*
X004841Y005471D03*
X004957Y005464D03*
X004958Y005467D03*
X004960Y005596D03*
X004958Y005599D03*
X004958Y005600D03*
X004420Y005603D03*
X004418Y005602D03*
X004339Y005461D03*
X004339Y005459D03*
X004339Y005458D03*
X004181Y005455D03*
X004180Y005456D03*
X004180Y005458D03*
X004102Y005468D03*
X004100Y005467D03*
X004100Y005465D03*
X004106Y005593D03*
X004106Y005594D03*
X003889Y005599D03*
X003775Y005600D03*
X003773Y005599D03*
X003679Y005572D03*
X003679Y005528D03*
X003679Y005527D03*
X003560Y005600D03*
X003460Y005599D03*
X003458Y005602D03*
X003085Y007327D03*
X004177Y007333D03*
D191*
X003901Y005984D03*
X003990Y005603D03*
X003990Y005464D03*
X004259Y005464D03*
X004336Y005455D03*
X004529Y005603D03*
X004740Y005605D03*
X004741Y005603D03*
X004844Y005468D03*
X004845Y005467D03*
X004846Y005465D03*
X004846Y005464D03*
X003075Y005896D03*
X002879Y005510D03*
X002879Y005509D03*
D192*
X002588Y005629D03*
X002363Y005629D03*
X002363Y005630D03*
X002363Y005456D03*
X003082Y005938D03*
X003937Y006035D03*
D193*
X004171Y007286D03*
X003091Y007280D03*
X002582Y005458D03*
X002582Y005456D03*
D194*
X002814Y005456D03*
X002814Y005458D03*
X003936Y006034D03*
X004206Y005956D03*
D195*
X003884Y005605D03*
X003886Y005603D03*
X003779Y005606D03*
X004259Y005461D03*
X004531Y005566D03*
X004739Y005606D03*
X004949Y005456D03*
X004951Y005458D03*
X003344Y005599D03*
D196*
X003075Y005899D03*
X004095Y005458D03*
D197*
X003082Y005939D03*
X002815Y005626D03*
X002804Y005549D03*
X002363Y005626D03*
X002363Y005461D03*
X002363Y005459D03*
X003091Y007283D03*
X004171Y007291D03*
D198*
X002810Y005554D03*
X002583Y005459D03*
D199*
X002584Y005461D03*
X004205Y005963D03*
D200*
X002363Y005462D03*
D201*
X002585Y005462D03*
D202*
X002814Y005462D03*
D203*
X003991Y005462D03*
D204*
X004179Y005462D03*
X004340Y005462D03*
X004416Y005597D03*
X004629Y005597D03*
X004746Y005597D03*
X004839Y005492D03*
X003773Y005597D03*
X003560Y005597D03*
X003460Y005597D03*
D205*
X003344Y005597D03*
X004259Y005462D03*
X004531Y005567D03*
D206*
X004855Y005512D03*
X003832Y005645D03*
X003664Y005557D03*
X003083Y005623D03*
X002857Y005623D03*
X002764Y005513D03*
X002632Y005464D03*
X002321Y005464D03*
X002320Y005623D03*
X003086Y007315D03*
D207*
X003375Y005989D03*
X003076Y005906D03*
X002865Y005579D03*
X002772Y005464D03*
X002536Y005470D03*
X003357Y005617D03*
X003404Y005645D03*
X004212Y005924D03*
X004473Y005645D03*
X004518Y005555D03*
D208*
X003913Y005998D03*
X003617Y005645D03*
X002864Y005578D03*
X002773Y005623D03*
X002537Y005468D03*
D209*
X002419Y005477D03*
X002308Y005477D03*
X002308Y005612D03*
X002534Y005612D03*
X002758Y005477D03*
D210*
X002645Y005477D03*
D211*
X002871Y005477D03*
X003095Y005612D03*
X003085Y007322D03*
X004956Y005567D03*
D212*
X003984Y005477D03*
X003981Y005492D03*
D213*
X004106Y005477D03*
X004108Y005582D03*
X004108Y005657D03*
X004258Y005522D03*
X004258Y005507D03*
X004258Y005477D03*
X004411Y005582D03*
X004214Y005912D03*
X003769Y005582D03*
D214*
X004343Y005582D03*
X004343Y005567D03*
X004343Y005552D03*
X004343Y005537D03*
X004343Y005522D03*
X004343Y005507D03*
X004343Y005492D03*
X004343Y005477D03*
X004343Y005597D03*
X004343Y005612D03*
X004343Y005627D03*
D215*
X004410Y005477D03*
X004842Y005597D03*
X003675Y005597D03*
D216*
X003557Y005492D03*
X003988Y005597D03*
X004412Y005492D03*
X004531Y005597D03*
D217*
X004428Y005507D03*
X002759Y005507D03*
D218*
X002750Y005567D03*
X002878Y005507D03*
X004105Y005597D03*
D219*
X003571Y005507D03*
D220*
X004851Y005507D03*
D221*
X004975Y005507D03*
D222*
X004975Y005509D03*
X004180Y007342D03*
D223*
X003914Y005999D03*
X003584Y005515D03*
X003359Y005618D03*
X002999Y005623D03*
X002864Y005576D03*
X003076Y005908D03*
X003374Y005990D03*
X004516Y005554D03*
D224*
X004439Y005515D03*
X003586Y005516D03*
D225*
X004859Y005515D03*
D226*
X002858Y005572D03*
X002814Y005660D03*
X002770Y005519D03*
X002363Y005660D03*
D227*
X002587Y005669D03*
X002887Y005521D03*
X003548Y005564D03*
X003892Y005569D03*
D228*
X002774Y005522D03*
X002589Y005657D03*
X003087Y007307D03*
D229*
X002888Y005522D03*
D230*
X003594Y005522D03*
D231*
X004450Y005522D03*
X004513Y005552D03*
D232*
X004868Y005524D03*
X003920Y006010D03*
X003650Y005545D03*
X002815Y005654D03*
X002588Y005654D03*
D233*
X002778Y005525D03*
X003087Y007304D03*
D234*
X003367Y005996D03*
X003607Y005528D03*
X004462Y005527D03*
X004463Y005528D03*
X004508Y005548D03*
X004927Y005546D03*
X002363Y005659D03*
D235*
X002782Y005528D03*
X003361Y006004D03*
X003617Y005633D03*
X003646Y005542D03*
X003923Y006013D03*
X004474Y005633D03*
X004901Y005633D03*
X003088Y007301D03*
D236*
X004874Y005528D03*
D237*
X004875Y005530D03*
X003644Y005540D03*
X003360Y006005D03*
D238*
X003360Y006007D03*
X003618Y005630D03*
X003642Y005539D03*
X004876Y005531D03*
X004173Y007304D03*
X003089Y007298D03*
D239*
X003089Y007297D03*
X003927Y006019D03*
X003618Y005629D03*
X003041Y005648D03*
X002816Y005647D03*
X004878Y005533D03*
D240*
X004687Y005629D03*
X004493Y005534D03*
X003382Y005644D03*
X002588Y005647D03*
D241*
X002791Y005537D03*
D242*
X003641Y005537D03*
X003926Y006017D03*
D243*
X004495Y005537D03*
D244*
X004885Y005537D03*
D245*
X004902Y005623D03*
X004062Y005639D03*
X003931Y006025D03*
X003387Y005638D03*
X002793Y005539D03*
D246*
X004175Y007315D03*
X004915Y005542D03*
X004912Y005540D03*
D247*
X004500Y005542D03*
D248*
X004504Y005543D03*
X004474Y005638D03*
X003617Y005638D03*
X003079Y005918D03*
X002851Y005564D03*
D249*
X002806Y005551D03*
X004205Y005960D03*
X004171Y007289D03*
D250*
X002807Y005552D03*
D251*
X003659Y005552D03*
D252*
X003617Y005642D03*
X003077Y005912D03*
X004937Y005552D03*
D253*
X002812Y005555D03*
D254*
X002871Y005608D03*
X003443Y005617D03*
X003578Y005617D03*
X004524Y005561D03*
X004176Y007325D03*
D255*
X002849Y005563D03*
D256*
X003886Y005563D03*
X004352Y005650D03*
D257*
X004404Y005564D03*
X004745Y005566D03*
X004115Y005728D03*
X002814Y005669D03*
X002364Y005669D03*
X003084Y007333D03*
X004178Y007339D03*
D258*
X003677Y005567D03*
X002751Y005582D03*
D259*
X004407Y005567D03*
D260*
X004097Y005612D03*
X002870Y005582D03*
X002869Y005612D03*
D261*
X003893Y005582D03*
X003982Y005582D03*
D262*
X002874Y005597D03*
D263*
X003889Y005597D03*
X004960Y005597D03*
D264*
X002643Y005612D03*
D265*
X003075Y005897D03*
X003570Y005612D03*
D266*
X003353Y005614D03*
D267*
X003618Y005623D03*
X004064Y005641D03*
X003930Y006023D03*
X003356Y006013D03*
X004474Y005624D03*
X004902Y005624D03*
D268*
X004054Y005624D03*
X004054Y005623D03*
D269*
X003938Y006037D03*
X002363Y005624D03*
D270*
X002589Y005624D03*
D271*
X002588Y005644D03*
X002363Y005644D03*
X004208Y005947D03*
X004687Y005624D03*
D272*
X003082Y005941D03*
X002588Y005626D03*
D273*
X002588Y005627D03*
X002815Y005627D03*
X003041Y005627D03*
X002363Y005627D03*
D274*
X003393Y005627D03*
D275*
X003618Y005627D03*
D276*
X003830Y005627D03*
X003383Y005642D03*
X003080Y005927D03*
X004474Y005627D03*
X004901Y005627D03*
D277*
X004055Y005627D03*
X003935Y006032D03*
D278*
X004688Y005627D03*
D279*
X004057Y005630D03*
X003934Y006031D03*
X003392Y005629D03*
X003040Y005636D03*
X002362Y005636D03*
D280*
X003359Y006008D03*
X004901Y005630D03*
D281*
X003390Y005632D03*
X003090Y007291D03*
D282*
X003389Y005633D03*
D283*
X003389Y005635D03*
D284*
X003080Y005921D03*
X003831Y005635D03*
X004688Y005635D03*
D285*
X003617Y005636D03*
D286*
X003934Y006029D03*
X004172Y007295D03*
X002362Y005638D03*
D287*
X002363Y005656D03*
X003831Y005639D03*
X004688Y005639D03*
D288*
X002815Y005642D03*
X002588Y005642D03*
X002363Y005642D03*
D289*
X003040Y005642D03*
D290*
X003831Y005642D03*
X004688Y005642D03*
X004900Y005642D03*
D291*
X004065Y005642D03*
D292*
X004180Y005642D03*
D293*
X004264Y005642D03*
X004346Y005642D03*
X003389Y005972D03*
D294*
X004474Y005642D03*
D295*
X004349Y005644D03*
X004214Y005906D03*
X003345Y005729D03*
D296*
X003075Y005890D03*
X004350Y005645D03*
D297*
X004687Y005650D03*
D298*
X002815Y005657D03*
X002363Y005657D03*
D299*
X004118Y005732D03*
D300*
X004214Y005917D03*
X003075Y005900D03*
D301*
X004211Y005927D03*
D302*
X003083Y005942D03*
D303*
X004209Y005942D03*
D304*
X003083Y005945D03*
D305*
X003083Y005947D03*
D306*
X003084Y005948D03*
X004205Y005968D03*
D307*
X003084Y005950D03*
D308*
X003085Y005953D03*
D309*
X003085Y005954D03*
X003093Y007267D03*
D310*
X003093Y007265D03*
X003635Y007520D03*
X004203Y005977D03*
X003085Y005956D03*
D311*
X003085Y005957D03*
D312*
X004206Y005957D03*
D313*
X003085Y005959D03*
X003093Y007264D03*
D314*
X004168Y007270D03*
X004202Y005981D03*
X003086Y005960D03*
D315*
X003086Y005962D03*
X003094Y007261D03*
D316*
X004206Y005962D03*
D317*
X003087Y005963D03*
D318*
X003088Y005965D03*
X004201Y005986D03*
D319*
X003088Y005966D03*
D320*
X004205Y005966D03*
D321*
X003088Y005968D03*
D322*
X003088Y005969D03*
X003095Y007253D03*
X003636Y007516D03*
D323*
X004199Y005992D03*
X003089Y005971D03*
D324*
X003089Y005972D03*
D325*
X004204Y005972D03*
X004169Y007277D03*
D326*
X004199Y005996D03*
X003090Y005974D03*
D327*
X004204Y005974D03*
D328*
X004199Y005998D03*
X003090Y005975D03*
X004164Y007253D03*
D329*
X004204Y005975D03*
D330*
X004198Y005999D03*
X003091Y005977D03*
X003635Y007508D03*
D331*
X004198Y006001D03*
X003091Y005978D03*
D332*
X004203Y005978D03*
X004168Y007273D03*
D333*
X003091Y005980D03*
D334*
X004202Y005980D03*
X004168Y007271D03*
D335*
X004163Y007249D03*
X003635Y007483D03*
X003635Y007484D03*
X003635Y007486D03*
X003635Y007489D03*
X003092Y005981D03*
D336*
X003092Y005983D03*
X004196Y006005D03*
X004162Y007246D03*
X003635Y007475D03*
D337*
X004167Y007267D03*
X004201Y005983D03*
D338*
X003093Y005984D03*
D339*
X004201Y005984D03*
X004166Y007265D03*
X003094Y007258D03*
D340*
X003100Y007234D03*
X003634Y007454D03*
X003634Y007456D03*
X004195Y006010D03*
X003094Y005986D03*
D341*
X003094Y005987D03*
X003634Y007442D03*
D342*
X003376Y005987D03*
D343*
X004201Y005987D03*
D344*
X003094Y005989D03*
X003634Y007432D03*
X003634Y007433D03*
X003634Y007435D03*
X003634Y007436D03*
X003634Y007438D03*
D345*
X004200Y005989D03*
D346*
X003094Y005990D03*
X003634Y007424D03*
D347*
X004200Y005990D03*
D348*
X003095Y005992D03*
X003100Y007231D03*
X004160Y007238D03*
D349*
X003634Y007408D03*
X003634Y007409D03*
X003101Y007228D03*
X003095Y005993D03*
D350*
X004199Y005993D03*
D351*
X004193Y006019D03*
X003095Y005995D03*
X003101Y007225D03*
X003634Y007387D03*
X003634Y007388D03*
X003634Y007390D03*
X003634Y007391D03*
X003634Y007393D03*
X003634Y007394D03*
X003634Y007396D03*
X004159Y007234D03*
D352*
X004199Y005995D03*
D353*
X004193Y006020D03*
X003096Y005996D03*
D354*
X003096Y005998D03*
D355*
X003097Y005999D03*
D356*
X003097Y006001D03*
X003632Y007351D03*
X003632Y007354D03*
X003632Y007355D03*
X004157Y007229D03*
D357*
X003098Y006002D03*
D358*
X003363Y006002D03*
D359*
X003916Y006002D03*
D360*
X004197Y006002D03*
D361*
X003098Y006004D03*
X003634Y007327D03*
X003634Y007328D03*
X003634Y007330D03*
D362*
X003635Y007481D03*
X004196Y006004D03*
D363*
X004190Y006031D03*
X003099Y006005D03*
X003633Y007310D03*
X003633Y007312D03*
X003633Y007313D03*
X003633Y007315D03*
X003633Y007316D03*
D364*
X003632Y007304D03*
X003632Y007303D03*
X003099Y006007D03*
D365*
X004195Y006007D03*
X004161Y007244D03*
X003635Y007465D03*
X003635Y007466D03*
X003635Y007468D03*
X003099Y007237D03*
D366*
X003099Y006008D03*
D367*
X004196Y006008D03*
X003634Y007459D03*
X003634Y007460D03*
X003634Y007462D03*
D368*
X003100Y006010D03*
D369*
X003100Y006011D03*
D370*
X004195Y006011D03*
X003634Y007439D03*
X003634Y007441D03*
X003634Y007444D03*
X003634Y007445D03*
D371*
X003633Y007276D03*
X003101Y006013D03*
D372*
X004194Y006013D03*
D373*
X003101Y006014D03*
X003106Y007205D03*
D374*
X003634Y007414D03*
X003634Y007415D03*
X004193Y006014D03*
D375*
X003101Y006016D03*
X003634Y007273D03*
D376*
X003633Y007405D03*
X003633Y007406D03*
X004160Y007235D03*
X004193Y006016D03*
D377*
X003101Y006017D03*
D378*
X004193Y006017D03*
X003633Y007397D03*
D379*
X003101Y006019D03*
D380*
X003174Y006020D03*
X003213Y006125D03*
X003216Y006433D03*
X003192Y006460D03*
X004045Y006194D03*
X004047Y006191D03*
X004107Y006038D03*
D381*
X004055Y006176D03*
X004054Y006179D03*
X004054Y006181D03*
X004052Y006184D03*
X004048Y006427D03*
X004046Y006803D03*
X004045Y006805D03*
X004043Y006806D03*
X003191Y006770D03*
X003217Y006431D03*
X003218Y006430D03*
X003208Y006118D03*
X003206Y006115D03*
X003205Y006112D03*
X003173Y006022D03*
D382*
X004192Y006022D03*
D383*
X004108Y006041D03*
X004057Y006173D03*
X004004Y006313D03*
X004042Y006809D03*
X003226Y006808D03*
X003220Y006427D03*
X003221Y006425D03*
X003271Y006296D03*
X003271Y006295D03*
X003203Y006109D03*
X003173Y006023D03*
D384*
X004191Y006023D03*
X003633Y007357D03*
D385*
X003228Y006811D03*
X003227Y006809D03*
X003188Y006461D03*
X003201Y006106D03*
X003201Y006104D03*
X003173Y006025D03*
X004003Y006314D03*
X004058Y006172D03*
X004059Y006170D03*
X004108Y006043D03*
X004040Y006811D03*
D386*
X004189Y006025D03*
X003104Y007220D03*
D387*
X003188Y006769D03*
X003223Y006424D03*
X003200Y006103D03*
X003199Y006100D03*
X003172Y006026D03*
X004060Y006169D03*
X004061Y006166D03*
X004061Y006164D03*
X004063Y006163D03*
D388*
X004189Y006026D03*
X004156Y007226D03*
X003633Y007342D03*
X003633Y007343D03*
X003633Y007345D03*
X003104Y007219D03*
D389*
X003230Y006815D03*
X003172Y006029D03*
X003172Y006028D03*
X004070Y006149D03*
X004040Y006418D03*
D390*
X004190Y006028D03*
D391*
X004190Y006029D03*
X003633Y007318D03*
X003633Y007319D03*
X003633Y007321D03*
X003633Y007324D03*
X003633Y007325D03*
D392*
X003233Y006818D03*
X003232Y006817D03*
X003190Y006085D03*
X003190Y006083D03*
X003188Y006082D03*
X003172Y006031D03*
X004072Y006145D03*
X004073Y006143D03*
D393*
X003172Y006032D03*
D394*
X004189Y006032D03*
D395*
X003187Y006079D03*
X003172Y006035D03*
X003172Y006034D03*
D396*
X004188Y006034D03*
X004155Y007220D03*
X003631Y007286D03*
X003631Y007288D03*
X003631Y007289D03*
X003631Y007291D03*
D397*
X003631Y007280D03*
X003105Y007210D03*
X004186Y006035D03*
D398*
X003233Y006412D03*
X003173Y006037D03*
D399*
X003106Y007207D03*
X004154Y007216D03*
X004186Y006037D03*
D400*
X004085Y006121D03*
X004084Y006124D03*
X004084Y006125D03*
X004004Y006326D03*
X004004Y006328D03*
X004004Y006329D03*
X004004Y006331D03*
X004034Y006409D03*
X004028Y006824D03*
X003233Y006410D03*
X003269Y006316D03*
X003184Y006073D03*
X003184Y006071D03*
X003182Y006070D03*
X003182Y006068D03*
X003172Y006040D03*
X003172Y006038D03*
D401*
X003204Y006110D03*
X003205Y006113D03*
X003207Y006116D03*
X003219Y006428D03*
X004003Y006311D03*
X004045Y006424D03*
X004047Y006425D03*
X004055Y006178D03*
X004056Y006175D03*
X004107Y006040D03*
X004053Y006799D03*
X004043Y006808D03*
X003633Y007246D03*
D402*
X003173Y006044D03*
X003173Y006043D03*
X003173Y006041D03*
D403*
X003270Y006301D03*
X003270Y006304D03*
X004064Y006161D03*
X004065Y006160D03*
X004066Y006158D03*
X004066Y006157D03*
X004109Y006044D03*
D404*
X004088Y006115D03*
X004087Y006116D03*
X004027Y006826D03*
X003173Y006052D03*
X003173Y006050D03*
X003173Y006049D03*
X003173Y006046D03*
D405*
X003196Y006094D03*
X003197Y006095D03*
X003269Y006305D03*
X003269Y006307D03*
X003226Y006421D03*
X004067Y006155D03*
X004109Y006046D03*
D406*
X003173Y006047D03*
D407*
X004004Y006317D03*
X004109Y006047D03*
D408*
X004110Y006049D03*
X004036Y006815D03*
X004035Y006817D03*
X003633Y007244D03*
X003226Y006419D03*
X003228Y006418D03*
X003228Y006416D03*
X003270Y006308D03*
X003194Y006091D03*
D409*
X003193Y006089D03*
X003191Y006088D03*
X003269Y006310D03*
X003269Y006311D03*
X004004Y006319D03*
X004004Y006320D03*
X004037Y006413D03*
X004039Y006415D03*
X004109Y006050D03*
X004034Y006818D03*
D410*
X004034Y006820D03*
X004032Y006821D03*
X004064Y006794D03*
X004076Y006139D03*
X004077Y006136D03*
X004079Y006134D03*
X004110Y006052D03*
X003229Y006415D03*
D411*
X003236Y006406D03*
X003269Y006319D03*
X003179Y006064D03*
X003176Y006059D03*
X003175Y006056D03*
X003175Y006055D03*
X003175Y006053D03*
X003239Y006824D03*
X004004Y006335D03*
X004004Y006334D03*
D412*
X004035Y006410D03*
X004104Y006484D03*
X004031Y006823D03*
X004081Y006130D03*
X004081Y006128D03*
X004083Y006127D03*
X004111Y006053D03*
X003184Y006074D03*
X003180Y006766D03*
X003237Y006823D03*
D413*
X003234Y006409D03*
X003181Y006067D03*
X003180Y006065D03*
X004086Y006118D03*
X004086Y006119D03*
X004111Y006056D03*
X004111Y006055D03*
X004032Y006406D03*
D414*
X004031Y006404D03*
X004005Y006337D03*
X004091Y006112D03*
X004092Y006109D03*
X004094Y006106D03*
X004095Y006104D03*
X004111Y006058D03*
X004024Y006829D03*
X004023Y006830D03*
X003633Y007243D03*
X003241Y006826D03*
X003237Y006404D03*
X003177Y006061D03*
X003176Y006058D03*
D415*
X003269Y006320D03*
X003269Y006322D03*
X003244Y006829D03*
X004004Y006338D03*
X004091Y006110D03*
X004096Y006103D03*
X004111Y006061D03*
X004111Y006059D03*
D416*
X004025Y006827D03*
X003235Y006407D03*
X003269Y006317D03*
X003178Y006062D03*
D417*
X004111Y006062D03*
D418*
X004111Y006064D03*
X004111Y006065D03*
X003269Y006325D03*
X003269Y006326D03*
X003239Y006403D03*
D419*
X003269Y006329D03*
X003269Y006328D03*
X004005Y006341D03*
X004110Y006485D03*
X004110Y006071D03*
X004110Y006070D03*
X004110Y006068D03*
X004110Y006067D03*
D420*
X004109Y006073D03*
X004109Y006074D03*
X004109Y006076D03*
X004004Y006343D03*
X004019Y006833D03*
X003241Y006401D03*
X003269Y006331D03*
D421*
X003269Y006314D03*
X003269Y006313D03*
X003181Y006463D03*
X003235Y006821D03*
X003185Y006076D03*
X004004Y006322D03*
X004004Y006323D03*
X004004Y006325D03*
X004036Y006412D03*
X004075Y006140D03*
X004079Y006133D03*
X004081Y006131D03*
D422*
X003186Y006077D03*
D423*
X004109Y006077D03*
D424*
X004108Y006079D03*
X004108Y006080D03*
X004106Y006082D03*
X004106Y006083D03*
X004105Y006085D03*
X004103Y006086D03*
X004102Y006089D03*
X004025Y006400D03*
X004027Y006401D03*
X003248Y006833D03*
D425*
X003234Y006820D03*
X003231Y006413D03*
X003188Y006080D03*
X004074Y006142D03*
D426*
X004071Y006146D03*
X004071Y006148D03*
X004070Y006151D03*
X004040Y006416D03*
X003190Y006086D03*
D427*
X004100Y006094D03*
X004101Y006091D03*
X004103Y006088D03*
D428*
X003195Y006092D03*
D429*
X004100Y006092D03*
D430*
X004099Y006095D03*
X004099Y006097D03*
X004072Y006793D03*
X003247Y006832D03*
X003173Y006464D03*
D431*
X003230Y006814D03*
X003200Y006101D03*
X003198Y006098D03*
X003198Y006097D03*
X004068Y006154D03*
X004041Y006419D03*
X004043Y006421D03*
X004059Y006796D03*
X004038Y006814D03*
D432*
X004021Y006832D03*
X004005Y006340D03*
X004096Y006101D03*
X004098Y006100D03*
X004098Y006098D03*
X003269Y006323D03*
D433*
X003203Y006107D03*
X004096Y006482D03*
X004055Y006797D03*
D434*
X004094Y006107D03*
D435*
X004089Y006113D03*
D436*
X004004Y006308D03*
X004004Y006310D03*
X004049Y006428D03*
X003271Y006293D03*
X003209Y006119D03*
X003224Y006805D03*
D437*
X003224Y006803D03*
X003271Y006292D03*
X003210Y006121D03*
X004004Y006305D03*
X004004Y006307D03*
X004049Y006190D03*
X004049Y006188D03*
X004050Y006187D03*
X004051Y006185D03*
X004050Y006430D03*
X004051Y006431D03*
X004050Y006800D03*
X004049Y006802D03*
D438*
X003211Y006122D03*
D439*
X004005Y006332D03*
X004034Y006407D03*
X004084Y006122D03*
D440*
X004004Y006304D03*
X004052Y006433D03*
X003212Y006124D03*
D441*
X003214Y006127D03*
X003214Y006128D03*
X003215Y006131D03*
X003215Y006434D03*
X003221Y006802D03*
X004043Y006199D03*
X004045Y006196D03*
X004046Y006193D03*
D442*
X004043Y006200D03*
X004043Y006202D03*
X003216Y006133D03*
X003215Y006130D03*
X003215Y006436D03*
X003220Y006800D03*
D443*
X003218Y006796D03*
X003218Y006134D03*
X004041Y006203D03*
D444*
X004057Y006439D03*
X003218Y006136D03*
X003217Y006794D03*
D445*
X003218Y006137D03*
D446*
X004076Y006137D03*
D447*
X004040Y006205D03*
X004039Y006208D03*
X004037Y006211D03*
X004036Y006214D03*
X004034Y006215D03*
X004003Y006298D03*
X004090Y006481D03*
X003271Y006284D03*
X003271Y006283D03*
X003221Y006143D03*
X003220Y006140D03*
X003220Y006139D03*
X003211Y006442D03*
X003197Y006457D03*
X003215Y006793D03*
X003634Y007249D03*
D448*
X003210Y006443D03*
X003225Y006148D03*
X003224Y006146D03*
X003222Y006145D03*
X003221Y006142D03*
X004002Y006295D03*
X004002Y006296D03*
X004031Y006221D03*
X004032Y006220D03*
X004032Y006218D03*
X004034Y006217D03*
D449*
X004030Y006223D03*
X004030Y006224D03*
X004058Y006442D03*
X004058Y006443D03*
X003271Y006281D03*
X003271Y006280D03*
X003229Y006155D03*
X003227Y006151D03*
X003226Y006149D03*
X003209Y006445D03*
X003208Y006448D03*
X003200Y006455D03*
X003212Y006790D03*
X003214Y006791D03*
D450*
X003227Y006152D03*
X004028Y006227D03*
D451*
X004069Y006152D03*
D452*
X004029Y006226D03*
X004002Y006293D03*
X004059Y006445D03*
X004061Y006446D03*
X004061Y006448D03*
X003271Y006278D03*
X003229Y006158D03*
X003229Y006157D03*
X003228Y006154D03*
X003209Y006446D03*
X003207Y006449D03*
X003210Y006785D03*
X003211Y006787D03*
X003211Y006788D03*
D453*
X003209Y006784D03*
X003206Y006451D03*
X003272Y006277D03*
X003230Y006160D03*
X004003Y006292D03*
X004061Y006449D03*
X003634Y007250D03*
D454*
X004027Y006232D03*
X003232Y006161D03*
D455*
X003233Y006163D03*
X003203Y006773D03*
X004086Y006479D03*
D456*
X003233Y006164D03*
D457*
X003234Y006166D03*
X003235Y006169D03*
X003204Y006775D03*
X003205Y006776D03*
X004015Y006250D03*
X004015Y006248D03*
D458*
X003235Y006167D03*
D459*
X003229Y006812D03*
X004039Y006812D03*
X004060Y006167D03*
D460*
X004015Y006251D03*
X004015Y006253D03*
X004013Y006256D03*
X003274Y006271D03*
X003236Y006170D03*
D461*
X003237Y006172D03*
X004017Y006247D03*
X004064Y006454D03*
D462*
X004064Y006455D03*
X004066Y006457D03*
X004066Y006458D03*
X004082Y006478D03*
X004003Y006286D03*
X004003Y006284D03*
X003239Y006175D03*
X003238Y006173D03*
D463*
X003240Y006176D03*
X003241Y006178D03*
X004066Y006460D03*
D464*
X004067Y006461D03*
X004003Y006281D03*
X004003Y006280D03*
X004003Y006277D03*
X004009Y006263D03*
X004012Y006259D03*
X003274Y006265D03*
X003274Y006266D03*
X003274Y006268D03*
X003245Y006185D03*
X003244Y006184D03*
X003242Y006179D03*
D465*
X003243Y006181D03*
X003273Y006269D03*
X004002Y006283D03*
X004011Y006260D03*
X004014Y006254D03*
X003635Y007252D03*
D466*
X003244Y006182D03*
D467*
X004053Y006182D03*
D468*
X004010Y006262D03*
X004008Y006265D03*
X004007Y006266D03*
X004003Y006274D03*
X004003Y006275D03*
X004002Y006278D03*
X004068Y006463D03*
X004070Y006464D03*
X003246Y006188D03*
X003246Y006187D03*
D469*
X003247Y006190D03*
X003274Y006262D03*
X003274Y006263D03*
X004070Y006466D03*
X004072Y006469D03*
X004073Y006470D03*
X004075Y006472D03*
X004076Y006473D03*
X004078Y006475D03*
D470*
X003249Y006193D03*
X003248Y006191D03*
D471*
X003250Y006194D03*
X003250Y006196D03*
X003251Y006199D03*
X003274Y006260D03*
D472*
X003251Y006197D03*
D473*
X004045Y006197D03*
D474*
X003252Y006200D03*
D475*
X003254Y006202D03*
X003255Y006203D03*
D476*
X003256Y006205D03*
X003257Y006206D03*
X003257Y006208D03*
D477*
X003271Y006286D03*
X003211Y006440D03*
X003196Y006772D03*
X004038Y006209D03*
X004039Y006206D03*
D478*
X003258Y006209D03*
D479*
X003259Y006211D03*
X003274Y006259D03*
D480*
X003275Y006257D03*
X003260Y006212D03*
D481*
X004036Y006212D03*
D482*
X003262Y006215D03*
X003260Y006214D03*
D483*
X003263Y006217D03*
D484*
X003263Y006218D03*
X003263Y006220D03*
D485*
X003264Y006221D03*
X003266Y006224D03*
X003274Y006250D03*
X003274Y006251D03*
D486*
X003275Y006253D03*
X003265Y006223D03*
D487*
X003266Y006226D03*
X003268Y006229D03*
X003269Y006230D03*
X003275Y006247D03*
X003275Y006248D03*
D488*
X003267Y006227D03*
D489*
X003203Y006454D03*
X004028Y006230D03*
X004028Y006229D03*
D490*
X003274Y006241D03*
X003274Y006244D03*
X003274Y006245D03*
X003273Y006238D03*
X003273Y006236D03*
X003271Y006233D03*
X003270Y006232D03*
D491*
X003207Y006779D03*
X003209Y006781D03*
X004062Y006451D03*
X004002Y006290D03*
X004019Y006244D03*
X004021Y006239D03*
X004023Y006236D03*
X004024Y006235D03*
X004024Y006233D03*
D492*
X003274Y006239D03*
X003272Y006235D03*
D493*
X003272Y006274D03*
X003272Y006275D03*
X003206Y006778D03*
X004003Y006289D03*
X004018Y006245D03*
X004021Y006241D03*
X004022Y006238D03*
D494*
X003274Y006242D03*
D495*
X004020Y006242D03*
D496*
X003274Y006254D03*
X003274Y006256D03*
D497*
X004013Y006257D03*
D498*
X004006Y006268D03*
D499*
X004005Y006269D03*
X004005Y006271D03*
X004080Y006476D03*
D500*
X003273Y006272D03*
D501*
X004004Y006272D03*
D502*
X003271Y006287D03*
X003214Y006437D03*
D503*
X004003Y006287D03*
X004063Y006452D03*
D504*
X004004Y006301D03*
X003271Y006290D03*
X003271Y006289D03*
D505*
X003270Y006298D03*
X003270Y006299D03*
D506*
X003212Y006439D03*
X003196Y006458D03*
X004003Y006299D03*
X004054Y006434D03*
D507*
X003270Y006302D03*
D508*
X004004Y006302D03*
X003633Y007247D03*
D509*
X004004Y006316D03*
D510*
X003268Y006332D03*
D511*
X003268Y006334D03*
X003633Y007241D03*
D512*
X003169Y006466D03*
X003242Y006400D03*
X003268Y006335D03*
X004004Y006346D03*
X004024Y006398D03*
D513*
X004016Y006836D03*
X003253Y006836D03*
X003245Y006397D03*
X003268Y006338D03*
X003268Y006337D03*
D514*
X003267Y006340D03*
X003246Y006395D03*
X004014Y006838D03*
X003633Y007240D03*
D515*
X003255Y006841D03*
X003267Y006343D03*
X003267Y006341D03*
X004005Y006358D03*
X004005Y006359D03*
X004083Y006790D03*
D516*
X004004Y006361D03*
X003268Y006344D03*
D517*
X004005Y006344D03*
D518*
X004005Y006364D03*
X004121Y006490D03*
X003267Y006346D03*
X003162Y006469D03*
X003633Y007238D03*
D519*
X003268Y006347D03*
D520*
X004005Y006347D03*
D521*
X004015Y006391D03*
X003268Y006349D03*
X003253Y006391D03*
D522*
X004004Y006350D03*
X004004Y006349D03*
D523*
X004005Y006365D03*
X004008Y006844D03*
X003633Y007237D03*
X003159Y006470D03*
X003269Y006352D03*
X003269Y006350D03*
D524*
X003254Y006838D03*
X004020Y006394D03*
X004005Y006353D03*
X004005Y006352D03*
D525*
X004006Y006367D03*
X004010Y006386D03*
X003268Y006353D03*
X003257Y006386D03*
X003256Y006388D03*
X003254Y006389D03*
X003260Y006844D03*
D526*
X003159Y006761D03*
X003269Y006356D03*
X003269Y006355D03*
X004005Y006368D03*
X004009Y006385D03*
X004089Y006787D03*
X004006Y006845D03*
D527*
X004004Y006356D03*
X004004Y006355D03*
X003254Y006839D03*
X003166Y006763D03*
D528*
X003259Y006385D03*
X003268Y006359D03*
X003268Y006358D03*
D529*
X003267Y006361D03*
X004005Y006370D03*
X004005Y006371D03*
X004008Y006383D03*
X004125Y006491D03*
X004005Y006847D03*
X003633Y007235D03*
D530*
X003268Y006362D03*
D531*
X003251Y006392D03*
X004005Y006362D03*
D532*
X004005Y006373D03*
X004005Y006374D03*
X004005Y006376D03*
X004005Y006379D03*
X004006Y006382D03*
X003267Y006365D03*
X003267Y006364D03*
D533*
X003267Y006367D03*
X003267Y006368D03*
X003264Y006382D03*
X003155Y006760D03*
X003267Y006850D03*
D534*
X003265Y006380D03*
X003266Y006371D03*
X003266Y006370D03*
X003998Y006851D03*
X003634Y007234D03*
D535*
X003265Y006379D03*
X003267Y006374D03*
X003267Y006373D03*
D536*
X003266Y006376D03*
X003151Y006758D03*
D537*
X003266Y006377D03*
D538*
X004005Y006377D03*
D539*
X004006Y006380D03*
D540*
X004000Y006850D03*
X003265Y006848D03*
X003264Y006847D03*
X003155Y006472D03*
X003261Y006383D03*
D541*
X004013Y006388D03*
D542*
X004013Y006389D03*
X004087Y006788D03*
D543*
X004017Y006392D03*
D544*
X004117Y006488D03*
X004013Y006839D03*
X003248Y006394D03*
D545*
X003245Y006398D03*
X003250Y006835D03*
X004017Y006835D03*
X004078Y006791D03*
X004115Y006487D03*
X004023Y006397D03*
X004022Y006395D03*
D546*
X004029Y006403D03*
X003245Y006830D03*
D547*
X003224Y006422D03*
D548*
X004044Y006422D03*
D549*
X004055Y006436D03*
X003220Y006799D03*
D550*
X004056Y006437D03*
D551*
X004058Y006440D03*
D552*
X003205Y006452D03*
X003209Y006782D03*
D553*
X003165Y006467D03*
D554*
X004071Y006467D03*
D555*
X003146Y006473D03*
D556*
X003140Y006475D03*
X004141Y006494D03*
D557*
X003634Y007229D03*
X003137Y006754D03*
X003136Y006476D03*
D558*
X003132Y006478D03*
X003633Y007228D03*
D559*
X004118Y006778D03*
X003130Y006479D03*
D560*
X003126Y006481D03*
X003633Y007225D03*
X004122Y006776D03*
D561*
X003121Y006482D03*
D562*
X003113Y006484D03*
X003633Y007220D03*
D563*
X003108Y006485D03*
D564*
X003104Y006487D03*
X003953Y006866D03*
X004148Y006769D03*
D565*
X003101Y006488D03*
D566*
X003099Y006490D03*
D567*
X003094Y006491D03*
X004159Y006764D03*
X004184Y006508D03*
D568*
X003632Y007208D03*
X003086Y006493D03*
D569*
X003995Y006853D03*
X004098Y006784D03*
X004133Y006493D03*
D570*
X003634Y007205D03*
X003055Y006673D03*
X003055Y006671D03*
X003055Y006670D03*
X003055Y006668D03*
X003055Y006667D03*
X003055Y006665D03*
X003053Y006656D03*
X003053Y006655D03*
X003053Y006653D03*
X003053Y006578D03*
X003053Y006577D03*
X003053Y006575D03*
X003053Y006574D03*
X003053Y006571D03*
X003053Y006569D03*
X003053Y006568D03*
X003053Y006566D03*
X003053Y006565D03*
X003080Y006494D03*
D571*
X003077Y006496D03*
X003055Y006545D03*
X003055Y006547D03*
X003055Y006548D03*
X003057Y006685D03*
X003057Y006686D03*
X003078Y006736D03*
X004209Y006695D03*
X004210Y006691D03*
X004212Y006541D03*
X004212Y006539D03*
X004206Y006520D03*
X004205Y006518D03*
D572*
X004147Y006496D03*
D573*
X003073Y006497D03*
X003058Y006692D03*
D574*
X004150Y006497D03*
D575*
X004208Y006524D03*
X004208Y006526D03*
X004210Y006529D03*
X004210Y006530D03*
X004210Y006532D03*
X004202Y006719D03*
X004180Y006758D03*
X003073Y006733D03*
X003073Y006499D03*
D576*
X004154Y006499D03*
D577*
X003070Y006500D03*
X003063Y006715D03*
D578*
X004126Y006775D03*
X004156Y006500D03*
D579*
X003070Y006502D03*
X003068Y006503D03*
X003064Y006716D03*
X003068Y006725D03*
X003070Y006730D03*
X003071Y006731D03*
D580*
X004162Y006502D03*
D581*
X004170Y006503D03*
X004140Y006772D03*
D582*
X003069Y006728D03*
X003069Y006727D03*
X003068Y006724D03*
X003066Y006721D03*
X003066Y006719D03*
X003065Y006718D03*
X003068Y006505D03*
D583*
X004177Y006505D03*
D584*
X003067Y006506D03*
X003065Y006508D03*
X003065Y006509D03*
D585*
X004181Y006506D03*
D586*
X004188Y006509D03*
D587*
X004198Y006734D03*
X004184Y006755D03*
X003064Y006511D03*
D588*
X004193Y006511D03*
D589*
X003063Y006512D03*
D590*
X004199Y006512D03*
X004218Y006632D03*
X004216Y006647D03*
D591*
X004200Y006727D03*
X004200Y006728D03*
X004199Y006731D03*
X004199Y006733D03*
X003063Y006514D03*
X003061Y006515D03*
D592*
X004201Y006514D03*
X004214Y006547D03*
X004214Y006548D03*
X004214Y006550D03*
X004215Y006554D03*
X004215Y006556D03*
X004215Y006559D03*
X004215Y006560D03*
X004215Y006562D03*
X004214Y006676D03*
X004214Y006679D03*
X004214Y006680D03*
D593*
X004212Y006683D03*
X004212Y006685D03*
X004212Y006686D03*
X004203Y006515D03*
X003054Y006556D03*
X003054Y006559D03*
X003054Y006560D03*
X003054Y006562D03*
X003054Y006563D03*
X003055Y006674D03*
X003055Y006676D03*
X003055Y006679D03*
X003055Y006680D03*
D594*
X003062Y006713D03*
X003061Y006520D03*
X003061Y006518D03*
X003061Y006517D03*
X004183Y006757D03*
X004199Y006730D03*
X004201Y006725D03*
X004201Y006724D03*
D595*
X004211Y006689D03*
X004211Y006688D03*
X004213Y006545D03*
X004213Y006544D03*
X004204Y006517D03*
X003055Y006550D03*
X003055Y006551D03*
X003055Y006553D03*
X003055Y006554D03*
X003056Y006682D03*
X003056Y006683D03*
D596*
X003061Y006710D03*
X003061Y006712D03*
X003060Y006526D03*
X003060Y006524D03*
X003060Y006523D03*
X003060Y006521D03*
X004201Y006721D03*
D597*
X004205Y006713D03*
X004205Y006712D03*
X004205Y006710D03*
X004207Y006709D03*
X004207Y006706D03*
X004207Y006704D03*
X004207Y006703D03*
X004208Y006701D03*
X004208Y006700D03*
X004208Y006698D03*
X004208Y006697D03*
X004210Y006694D03*
X004177Y006760D03*
X004211Y006538D03*
X004211Y006536D03*
X004207Y006521D03*
X003058Y006539D03*
X003056Y006544D03*
X003058Y006688D03*
X003058Y006689D03*
X003059Y006694D03*
X003076Y006734D03*
D598*
X003058Y006691D03*
X003057Y006541D03*
X003058Y006538D03*
X003058Y006536D03*
X003058Y006535D03*
X004208Y006523D03*
X004210Y006533D03*
X004210Y006535D03*
X004205Y006715D03*
X004205Y006716D03*
X004203Y006718D03*
D599*
X004201Y006722D03*
X003060Y006527D03*
D600*
X004210Y006527D03*
D601*
X003059Y006529D03*
X003059Y006530D03*
X003059Y006532D03*
X003059Y006533D03*
X003061Y006703D03*
X003061Y006704D03*
X003061Y006706D03*
X003061Y006709D03*
D602*
X003056Y006542D03*
X004207Y006707D03*
D603*
X004213Y006542D03*
X003080Y006737D03*
D604*
X004214Y006553D03*
X004214Y006551D03*
D605*
X003054Y006557D03*
X003055Y006677D03*
D606*
X004214Y006677D03*
X004215Y006557D03*
D607*
X004216Y006563D03*
X004216Y006565D03*
X004216Y006566D03*
X004216Y006568D03*
X004216Y006569D03*
X004214Y006668D03*
X004214Y006670D03*
X004214Y006671D03*
X004214Y006673D03*
X004214Y006674D03*
X004213Y006682D03*
D608*
X004215Y006667D03*
X004215Y006665D03*
X004215Y006664D03*
X004215Y006661D03*
X004215Y006659D03*
X004216Y006580D03*
X004216Y006578D03*
X004216Y006577D03*
X004216Y006575D03*
X004216Y006574D03*
X004216Y006571D03*
X004173Y006761D03*
D609*
X003053Y006572D03*
D610*
X004216Y006572D03*
X004215Y006662D03*
D611*
X003083Y006739D03*
X003054Y006664D03*
X003054Y006661D03*
X003054Y006659D03*
X003054Y006658D03*
X003053Y006652D03*
X003053Y006650D03*
X003053Y006649D03*
X003053Y006646D03*
X003053Y006644D03*
X003053Y006643D03*
X003053Y006641D03*
X003053Y006589D03*
X003053Y006586D03*
X003053Y006584D03*
X003053Y006583D03*
X003053Y006581D03*
X003053Y006580D03*
D612*
X004217Y006581D03*
X004217Y006583D03*
X004217Y006584D03*
X004217Y006586D03*
X004217Y006589D03*
X004217Y006640D03*
X004217Y006641D03*
X004217Y006643D03*
X004216Y006649D03*
X004216Y006650D03*
X004216Y006652D03*
X004216Y006653D03*
X004216Y006655D03*
X004216Y006656D03*
X004216Y006658D03*
D613*
X003054Y006662D03*
X003053Y006647D03*
X003053Y006587D03*
D614*
X004217Y006587D03*
D615*
X003052Y006590D03*
X003052Y006592D03*
X003052Y006593D03*
X003052Y006595D03*
X003052Y006596D03*
X003052Y006598D03*
X003050Y006599D03*
X003050Y006601D03*
X003050Y006604D03*
X003050Y006605D03*
X003050Y006607D03*
X003050Y006608D03*
X003052Y006631D03*
X003052Y006634D03*
X003052Y006635D03*
X003052Y006637D03*
X003052Y006638D03*
X003052Y006640D03*
D616*
X003049Y006613D03*
X003049Y006611D03*
X003049Y006610D03*
X004216Y006644D03*
X004216Y006646D03*
X004218Y006638D03*
X004218Y006637D03*
X004218Y006635D03*
X004218Y006634D03*
X004218Y006631D03*
X004218Y006629D03*
X004218Y006599D03*
X004218Y006598D03*
X004218Y006596D03*
X004218Y006595D03*
X004218Y006593D03*
X004218Y006592D03*
X004218Y006590D03*
D617*
X004219Y006601D03*
X004219Y006604D03*
X004219Y006605D03*
X004219Y006607D03*
X004219Y006608D03*
X004219Y006610D03*
X004219Y006611D03*
X004219Y006613D03*
X004219Y006614D03*
X004219Y006616D03*
X004219Y006619D03*
X004219Y006620D03*
X004219Y006622D03*
X004219Y006623D03*
X004219Y006625D03*
X004219Y006626D03*
X004219Y006628D03*
X003086Y006740D03*
X003050Y006620D03*
X003050Y006619D03*
X003050Y006616D03*
X003050Y006614D03*
D618*
X003050Y006602D03*
X003052Y006632D03*
D619*
X003050Y006617D03*
X004219Y006617D03*
X004219Y006602D03*
D620*
X003051Y006622D03*
X003051Y006623D03*
X003051Y006625D03*
X003051Y006626D03*
X003051Y006628D03*
X003051Y006629D03*
D621*
X004210Y006692D03*
D622*
X003060Y006695D03*
X003060Y006697D03*
X003060Y006698D03*
X003060Y006700D03*
X003060Y006701D03*
D623*
X003061Y006707D03*
D624*
X003068Y006722D03*
D625*
X004186Y006754D03*
X004197Y006736D03*
D626*
X004197Y006737D03*
X004188Y006752D03*
D627*
X004190Y006751D03*
X004195Y006742D03*
X004196Y006739D03*
D628*
X004196Y006740D03*
X004194Y006743D03*
X004194Y006745D03*
D629*
X003633Y007210D03*
X003091Y006742D03*
D630*
X003099Y006743D03*
X003633Y007213D03*
D631*
X003633Y007216D03*
X004144Y006770D03*
X003106Y006745D03*
D632*
X003111Y006746D03*
D633*
X004192Y006749D03*
X004193Y006746D03*
D634*
X003115Y006748D03*
D635*
X004193Y006748D03*
D636*
X003118Y006749D03*
D637*
X003121Y006751D03*
D638*
X003128Y006752D03*
D639*
X003143Y006755D03*
D640*
X003149Y006757D03*
D641*
X004167Y006763D03*
D642*
X003175Y006764D03*
D643*
X004154Y006766D03*
D644*
X003185Y006767D03*
D645*
X004151Y006767D03*
D646*
X004133Y006773D03*
D647*
X004115Y006779D03*
X003979Y006862D03*
X003289Y006862D03*
D648*
X004111Y006781D03*
D649*
X004106Y006782D03*
D650*
X004093Y006785D03*
X004003Y006848D03*
D651*
X003218Y006797D03*
D652*
X003225Y006806D03*
D653*
X003242Y006827D03*
D654*
X004013Y006841D03*
D655*
X003257Y006842D03*
D656*
X004011Y006842D03*
D657*
X003262Y006845D03*
D658*
X003270Y006851D03*
D659*
X003273Y006853D03*
D660*
X003277Y006854D03*
D661*
X003989Y006854D03*
D662*
X003280Y006856D03*
D663*
X003987Y006856D03*
D664*
X003281Y006857D03*
D665*
X003986Y006857D03*
D666*
X003633Y007231D03*
X003284Y006859D03*
D667*
X003983Y006859D03*
D668*
X003285Y006860D03*
D669*
X003982Y006860D03*
D670*
X003970Y006863D03*
X003298Y006863D03*
D671*
X003305Y006865D03*
D672*
X003959Y006865D03*
D673*
X003310Y006866D03*
D674*
X003634Y006868D03*
D675*
X003633Y006869D03*
D676*
X003634Y006871D03*
X003631Y007051D03*
D677*
X003634Y006872D03*
D678*
X003633Y006874D03*
D679*
X003633Y006875D03*
X003630Y007048D03*
D680*
X003631Y007046D03*
X003632Y006877D03*
D681*
X003633Y006878D03*
X003630Y007045D03*
D682*
X003633Y006881D03*
X003633Y006880D03*
D683*
X003634Y006883D03*
X003631Y007042D03*
D684*
X003633Y006884D03*
D685*
X003634Y006886D03*
X003634Y006889D03*
D686*
X003634Y006887D03*
D687*
X003634Y006890D03*
X003634Y006892D03*
X003634Y006893D03*
D688*
X003634Y006895D03*
X003631Y007036D03*
D689*
X003633Y006896D03*
D690*
X003634Y006898D03*
D691*
X003634Y006899D03*
D692*
X003633Y006901D03*
X003630Y007030D03*
D693*
X003634Y006902D03*
D694*
X003634Y006904D03*
X003634Y006905D03*
X003631Y007027D03*
D695*
X003631Y007025D03*
X003634Y006910D03*
X003634Y006908D03*
X003634Y006907D03*
D696*
X003633Y006911D03*
X003630Y007024D03*
D697*
X003634Y006913D03*
D698*
X003633Y006914D03*
D699*
X003634Y006916D03*
D700*
X003633Y006917D03*
D701*
X003633Y006919D03*
X003633Y006920D03*
D702*
X003633Y006922D03*
D703*
X003634Y006923D03*
D704*
X003633Y006925D03*
D705*
X003634Y006926D03*
X003634Y006928D03*
D706*
X003634Y006929D03*
X003634Y006931D03*
D707*
X003633Y006932D03*
D708*
X003634Y006934D03*
D709*
X003633Y006935D03*
X003630Y007009D03*
D710*
X003630Y007006D03*
X003633Y006937D03*
D711*
X003632Y006938D03*
X003629Y007004D03*
D712*
X003630Y007003D03*
X003633Y006940D03*
D713*
X003633Y006941D03*
X003630Y007000D03*
D714*
X003634Y006943D03*
D715*
X003633Y006944D03*
X003630Y006998D03*
D716*
X003634Y006946D03*
D717*
X003634Y006947D03*
D718*
X003634Y006949D03*
X003634Y006950D03*
D719*
X003634Y006952D03*
X003629Y006994D03*
D720*
X003633Y006953D03*
D721*
X003633Y006955D03*
D722*
X003633Y006956D03*
D723*
X003634Y006958D03*
X003629Y006986D03*
D724*
X003630Y006985D03*
X003633Y006959D03*
D725*
X003634Y006961D03*
D726*
X003634Y006962D03*
D727*
X003634Y006964D03*
D728*
X003633Y006965D03*
X003633Y006967D03*
D729*
X003633Y006968D03*
X003633Y006970D03*
X003630Y006980D03*
D730*
X003629Y006979D03*
X003631Y006974D03*
X003631Y006973D03*
X003632Y006971D03*
D731*
X003630Y006976D03*
D732*
X003630Y006977D03*
D733*
X003629Y006982D03*
D734*
X003630Y006983D03*
D735*
X003629Y006988D03*
X003629Y006989D03*
D736*
X003629Y006991D03*
D737*
X003629Y006992D03*
D738*
X003629Y006995D03*
D739*
X003630Y006997D03*
D740*
X003629Y007001D03*
D741*
X003630Y007007D03*
D742*
X003630Y007010D03*
D743*
X003630Y007012D03*
D744*
X003630Y007013D03*
D745*
X003630Y007015D03*
D746*
X003629Y007016D03*
D747*
X003630Y007018D03*
D748*
X003629Y007019D03*
D749*
X003630Y007021D03*
D750*
X003630Y007022D03*
D751*
X003631Y007028D03*
D752*
X003631Y007031D03*
D753*
X003630Y007033D03*
D754*
X003630Y007034D03*
D755*
X003631Y007037D03*
D756*
X003631Y007039D03*
D757*
X003631Y007040D03*
D758*
X003631Y007043D03*
D759*
X003631Y007049D03*
D760*
X003631Y007052D03*
D761*
X003631Y007054D03*
D762*
X003632Y007055D03*
D763*
X003631Y007057D03*
D764*
X003631Y007058D03*
D765*
X003630Y007060D03*
D766*
X003631Y007061D03*
D767*
X003631Y007063D03*
D768*
X003631Y007064D03*
D769*
X003631Y007066D03*
D770*
X003632Y007067D03*
D771*
X003631Y007069D03*
D772*
X003631Y007070D03*
D773*
X003631Y007072D03*
D774*
X003631Y007073D03*
D775*
X003631Y007075D03*
D776*
X003631Y007076D03*
D777*
X003632Y007078D03*
D778*
X003632Y007079D03*
D779*
X003632Y007081D03*
D780*
X003632Y007082D03*
D781*
X003631Y007084D03*
D782*
X003631Y007085D03*
D783*
X003631Y007087D03*
D784*
X003631Y007088D03*
X003631Y007090D03*
D785*
X003631Y007091D03*
D786*
X003632Y007093D03*
D787*
X003632Y007094D03*
X003632Y007096D03*
D788*
X003632Y007097D03*
D789*
X003632Y007099D03*
D790*
X003632Y007100D03*
D791*
X003631Y007102D03*
X003631Y007103D03*
D792*
X003631Y007105D03*
D793*
X003631Y007106D03*
D794*
X003632Y007108D03*
D795*
X003632Y007109D03*
X003632Y007111D03*
D796*
X003632Y007112D03*
D797*
X003632Y007114D03*
D798*
X003631Y007115D03*
D799*
X003631Y007117D03*
X003631Y007118D03*
D800*
X003632Y007120D03*
D801*
X003632Y007121D03*
D802*
X003632Y007123D03*
D803*
X003633Y007124D03*
D804*
X003633Y007126D03*
D805*
X003632Y007127D03*
D806*
X003632Y007129D03*
D807*
X003631Y007130D03*
D808*
X003632Y007132D03*
D809*
X003632Y007133D03*
D810*
X003632Y007135D03*
D811*
X003633Y007136D03*
D812*
X003633Y007138D03*
X003633Y007139D03*
D813*
X003633Y007141D03*
D814*
X003632Y007142D03*
D815*
X003632Y007144D03*
D816*
X003632Y007145D03*
D817*
X003633Y007147D03*
D818*
X003633Y007148D03*
X003634Y007196D03*
D819*
X003634Y007150D03*
D820*
X003633Y007151D03*
X003634Y007195D03*
D821*
X003633Y007154D03*
X003633Y007153D03*
D822*
X003633Y007156D03*
D823*
X003632Y007157D03*
D824*
X003632Y007159D03*
D825*
X003633Y007160D03*
D826*
X003632Y007162D03*
X003634Y007186D03*
D827*
X003633Y007163D03*
D828*
X003633Y007165D03*
X003635Y007183D03*
D829*
X003634Y007181D03*
X003634Y007180D03*
X003634Y007171D03*
X003634Y007169D03*
X003634Y007168D03*
X003634Y007166D03*
D830*
X003635Y007172D03*
D831*
X003635Y007174D03*
X003635Y007175D03*
X003635Y007177D03*
X003635Y007178D03*
D832*
X003634Y007184D03*
D833*
X003635Y007187D03*
D834*
X003635Y007189D03*
D835*
X003634Y007190D03*
D836*
X003634Y007192D03*
D837*
X003634Y007193D03*
D838*
X003634Y007198D03*
D839*
X003634Y007199D03*
D840*
X004152Y007210D03*
X003108Y007201D03*
D841*
X003811Y007201D03*
D842*
X003107Y007202D03*
D843*
X003811Y007202D03*
D844*
X003106Y007204D03*
D845*
X003813Y007204D03*
D846*
X004150Y007205D03*
D847*
X003632Y007207D03*
D848*
X004152Y007207D03*
D849*
X004154Y007219D03*
X003632Y007279D03*
X003106Y007208D03*
D850*
X004152Y007208D03*
D851*
X003106Y007211D03*
D852*
X003632Y007211D03*
D853*
X004152Y007211D03*
D854*
X003105Y007213D03*
D855*
X004153Y007213D03*
D856*
X003104Y007214D03*
D857*
X003633Y007214D03*
D858*
X004154Y007214D03*
D859*
X004156Y007225D03*
X003104Y007216D03*
D860*
X003104Y007217D03*
X003633Y007337D03*
D861*
X003633Y007217D03*
D862*
X003632Y007277D03*
X004154Y007217D03*
D863*
X003632Y007219D03*
D864*
X003632Y007358D03*
X003632Y007360D03*
X003632Y007361D03*
X004157Y007231D03*
X003103Y007222D03*
D865*
X003633Y007222D03*
D866*
X003631Y007294D03*
X003631Y007295D03*
X003631Y007297D03*
X003631Y007298D03*
X003631Y007300D03*
X004155Y007222D03*
D867*
X003633Y007370D03*
X003633Y007372D03*
X003633Y007373D03*
X003102Y007223D03*
D868*
X003633Y007223D03*
D869*
X004155Y007223D03*
D870*
X003634Y007400D03*
X003634Y007402D03*
X003634Y007403D03*
X003101Y007226D03*
D871*
X003633Y007226D03*
D872*
X003632Y007346D03*
X003632Y007348D03*
X003632Y007349D03*
X004157Y007228D03*
D873*
X004160Y007237D03*
X003633Y007411D03*
X003100Y007229D03*
D874*
X003100Y007232D03*
X003634Y007427D03*
D875*
X003633Y007232D03*
D876*
X004158Y007232D03*
D877*
X003100Y007235D03*
D878*
X003099Y007238D03*
X003635Y007471D03*
X003635Y007474D03*
D879*
X003635Y007477D03*
X003635Y007478D03*
X003635Y007480D03*
X003099Y007240D03*
D880*
X004160Y007240D03*
D881*
X003635Y007490D03*
X003098Y007241D03*
D882*
X003634Y007426D03*
X003634Y007429D03*
X003634Y007430D03*
X004160Y007241D03*
D883*
X003635Y007504D03*
X003098Y007243D03*
D884*
X003634Y007447D03*
X003634Y007448D03*
X003634Y007450D03*
X003634Y007451D03*
X003634Y007453D03*
X004161Y007243D03*
D885*
X003098Y007244D03*
D886*
X003097Y007246D03*
X003635Y007510D03*
D887*
X003097Y007247D03*
D888*
X004163Y007247D03*
D889*
X004165Y007256D03*
X003097Y007249D03*
D890*
X003096Y007250D03*
X003635Y007513D03*
D891*
X003635Y007501D03*
X003635Y007499D03*
X003635Y007498D03*
X003635Y007496D03*
X003635Y007495D03*
X003635Y007493D03*
X003635Y007492D03*
X004163Y007250D03*
D892*
X004165Y007259D03*
X003635Y007514D03*
X003095Y007252D03*
D893*
X003635Y007505D03*
X003635Y007507D03*
X004163Y007252D03*
D894*
X003634Y007253D03*
D895*
X003095Y007255D03*
D896*
X003634Y007255D03*
D897*
X003635Y007511D03*
X004165Y007255D03*
D898*
X003094Y007256D03*
D899*
X003633Y007256D03*
D900*
X003634Y007258D03*
D901*
X004165Y007258D03*
D902*
X003637Y007519D03*
X003094Y007259D03*
D903*
X003634Y007259D03*
D904*
X003634Y007261D03*
D905*
X004165Y007261D03*
D906*
X003094Y007262D03*
D907*
X003633Y007262D03*
D908*
X004166Y007262D03*
D909*
X003634Y007264D03*
D910*
X004167Y007264D03*
D911*
X003635Y007265D03*
D912*
X003635Y007267D03*
D913*
X003092Y007268D03*
D914*
X003634Y007268D03*
D915*
X004167Y007268D03*
D916*
X004169Y007276D03*
X003092Y007270D03*
D917*
X003634Y007270D03*
D918*
X003634Y007271D03*
D919*
X003633Y007274D03*
D920*
X003091Y007276D03*
D921*
X003091Y007277D03*
D922*
X003091Y007279D03*
D923*
X003632Y007282D03*
X003632Y007283D03*
X003632Y007285D03*
D924*
X004169Y007282D03*
D925*
X004170Y007283D03*
D926*
X004170Y007285D03*
D927*
X003089Y007286D03*
D928*
X003090Y007288D03*
X004171Y007294D03*
D929*
X003090Y007289D03*
D930*
X003089Y007292D03*
D931*
X003631Y007292D03*
D932*
X004171Y007292D03*
D933*
X003088Y007300D03*
D934*
X003632Y007301D03*
D935*
X003632Y007306D03*
X003632Y007309D03*
D936*
X003632Y007307D03*
D937*
X004174Y007307D03*
D938*
X003633Y007322D03*
D939*
X004175Y007322D03*
D940*
X003633Y007331D03*
X003633Y007333D03*
X003633Y007334D03*
X003633Y007336D03*
X003633Y007339D03*
D941*
X003632Y007340D03*
D942*
X003632Y007352D03*
D943*
X003633Y007363D03*
X003633Y007364D03*
X003633Y007366D03*
D944*
X003634Y007367D03*
D945*
X003634Y007369D03*
D946*
X003634Y007375D03*
X003634Y007376D03*
X003634Y007378D03*
X003634Y007379D03*
X003634Y007381D03*
X003634Y007384D03*
X003634Y007385D03*
D947*
X003634Y007382D03*
D948*
X003633Y007399D03*
D949*
X003633Y007412D03*
D950*
X003633Y007417D03*
D951*
X003634Y007418D03*
X003634Y007420D03*
X003634Y007421D03*
X003634Y007423D03*
D952*
X003634Y007457D03*
D953*
X003634Y007463D03*
D954*
X003635Y007469D03*
D955*
X003635Y007472D03*
D956*
X003635Y007487D03*
D957*
X003635Y007502D03*
D958*
X003636Y007517D03*
M02*
