G75*
%MOIN*%
%OFA0B0*%
%FSLAX24Y24*%
%IPPOS*%
%LPD*%
%AMOC8*
5,1,8,0,0,1.08239X$1,22.5*
%
%ADD10C,0.0000*%
%ADD11R,0.0220X0.0500*%
%ADD12R,0.0500X0.0220*%
%ADD13C,0.0088*%
%ADD14R,0.0800X0.0700*%
%ADD15R,0.0250X0.0650*%
%ADD16C,0.0075*%
%ADD17R,0.1000X0.0600*%
%ADD18R,0.0900X0.0450*%
%ADD19R,0.0900X0.0500*%
%ADD20R,0.0850X0.1400*%
D10*
X000180Y002280D02*
X000180Y017280D01*
X019680Y017280D01*
X019680Y002280D01*
X000180Y002280D01*
D11*
X008728Y008080D03*
X009043Y008080D03*
X009358Y008080D03*
X009673Y008080D03*
X009987Y008080D03*
X010302Y008080D03*
X010617Y008080D03*
X010932Y008080D03*
X010932Y011460D03*
X010617Y011460D03*
X010302Y011460D03*
X009987Y011460D03*
X009673Y011460D03*
X009358Y011460D03*
X009043Y011460D03*
X008728Y011460D03*
D12*
X008140Y010872D03*
X008140Y010557D03*
X008140Y010242D03*
X008140Y009927D03*
X008140Y009612D03*
X008140Y009297D03*
X008140Y008983D03*
X008140Y008668D03*
X011520Y008668D03*
X011520Y008983D03*
X011520Y009297D03*
X011520Y009612D03*
X011520Y009927D03*
X011520Y010242D03*
X011520Y010557D03*
X011520Y010872D03*
D13*
X012189Y009751D02*
X012189Y009489D01*
X012189Y009751D02*
X012451Y009751D01*
X012451Y009489D01*
X012189Y009489D01*
X012189Y009576D02*
X012451Y009576D01*
X012451Y009663D02*
X012189Y009663D01*
X012189Y009750D02*
X012451Y009750D01*
X012189Y009151D02*
X012189Y008889D01*
X012189Y009151D02*
X012451Y009151D01*
X012451Y008889D01*
X012189Y008889D01*
X012189Y008976D02*
X012451Y008976D01*
X012451Y009063D02*
X012189Y009063D01*
X012189Y009150D02*
X012451Y009150D01*
X015369Y007001D02*
X015631Y007001D01*
X015631Y006739D01*
X015369Y006739D01*
X015369Y007001D01*
X015369Y006826D02*
X015631Y006826D01*
X015631Y006913D02*
X015369Y006913D01*
X015369Y007000D02*
X015631Y007000D01*
X015969Y007001D02*
X016231Y007001D01*
X016231Y006739D01*
X015969Y006739D01*
X015969Y007001D01*
X015969Y006826D02*
X016231Y006826D01*
X016231Y006913D02*
X015969Y006913D01*
X015969Y007000D02*
X016231Y007000D01*
X015969Y007899D02*
X015969Y008161D01*
X016231Y008161D01*
X016231Y007899D01*
X015969Y007899D01*
X015969Y007986D02*
X016231Y007986D01*
X016231Y008073D02*
X015969Y008073D01*
X015969Y008160D02*
X016231Y008160D01*
X015969Y008499D02*
X015969Y008761D01*
X016231Y008761D01*
X016231Y008499D01*
X015969Y008499D01*
X015969Y008586D02*
X016231Y008586D01*
X016231Y008673D02*
X015969Y008673D01*
X015969Y008760D02*
X016231Y008760D01*
X012361Y003841D02*
X012361Y003579D01*
X012099Y003579D01*
X012099Y003841D01*
X012361Y003841D01*
X012361Y003666D02*
X012099Y003666D01*
X012099Y003753D02*
X012361Y003753D01*
X012361Y003840D02*
X012099Y003840D01*
X012361Y003241D02*
X012361Y002979D01*
X012099Y002979D01*
X012099Y003241D01*
X012361Y003241D01*
X012361Y003066D02*
X012099Y003066D01*
X012099Y003153D02*
X012361Y003153D01*
X012361Y003240D02*
X012099Y003240D01*
X009261Y006429D02*
X008999Y006429D01*
X008999Y006691D01*
X009261Y006691D01*
X009261Y006429D01*
X009261Y006516D02*
X008999Y006516D01*
X008999Y006603D02*
X009261Y006603D01*
X009261Y006690D02*
X008999Y006690D01*
X008661Y006429D02*
X008399Y006429D01*
X008399Y006691D01*
X008661Y006691D01*
X008661Y006429D01*
X008661Y006516D02*
X008399Y006516D01*
X008399Y006603D02*
X008661Y006603D01*
X008661Y006690D02*
X008399Y006690D01*
X007141Y009319D02*
X007141Y009581D01*
X007141Y009319D02*
X006879Y009319D01*
X006879Y009581D01*
X007141Y009581D01*
X007141Y009406D02*
X006879Y009406D01*
X006879Y009493D02*
X007141Y009493D01*
X007141Y009580D02*
X006879Y009580D01*
X007141Y009919D02*
X007141Y010181D01*
X007141Y009919D02*
X006879Y009919D01*
X006879Y010181D01*
X007141Y010181D01*
X007141Y010006D02*
X006879Y010006D01*
X006879Y010093D02*
X007141Y010093D01*
X007141Y010180D02*
X006879Y010180D01*
X008619Y012439D02*
X008881Y012439D01*
X008619Y012439D02*
X008619Y012701D01*
X008881Y012701D01*
X008881Y012439D01*
X008881Y012526D02*
X008619Y012526D01*
X008619Y012613D02*
X008881Y012613D01*
X008881Y012700D02*
X008619Y012700D01*
X009219Y012439D02*
X009481Y012439D01*
X009219Y012439D02*
X009219Y012701D01*
X009481Y012701D01*
X009481Y012439D01*
X009481Y012526D02*
X009219Y012526D01*
X009219Y012613D02*
X009481Y012613D01*
X009481Y012700D02*
X009219Y012700D01*
X004111Y010259D02*
X003849Y010259D01*
X003849Y010521D01*
X004111Y010521D01*
X004111Y010259D01*
X004111Y010346D02*
X003849Y010346D01*
X003849Y010433D02*
X004111Y010433D01*
X004111Y010520D02*
X003849Y010520D01*
X003511Y010259D02*
X003249Y010259D01*
X003249Y010521D01*
X003511Y010521D01*
X003511Y010259D01*
X003511Y010346D02*
X003249Y010346D01*
X003249Y010433D02*
X003511Y010433D01*
X003511Y010520D02*
X003249Y010520D01*
X003239Y009339D02*
X003501Y009339D01*
X003239Y009339D02*
X003239Y009601D01*
X003501Y009601D01*
X003501Y009339D01*
X003501Y009426D02*
X003239Y009426D01*
X003239Y009513D02*
X003501Y009513D01*
X003501Y009600D02*
X003239Y009600D01*
X003839Y009339D02*
X004101Y009339D01*
X003839Y009339D02*
X003839Y009601D01*
X004101Y009601D01*
X004101Y009339D01*
X004101Y009426D02*
X003839Y009426D01*
X003839Y009513D02*
X004101Y009513D01*
X004101Y009600D02*
X003839Y009600D01*
D14*
X005380Y008980D03*
X005380Y010680D03*
D15*
X011710Y006610D03*
X012210Y006610D03*
X012710Y006610D03*
X013210Y006610D03*
X013210Y004550D03*
X012710Y004550D03*
X012210Y004550D03*
X011710Y004550D03*
D16*
X014008Y003823D02*
X014008Y003597D01*
X013732Y003597D01*
X013732Y003823D01*
X014008Y003823D01*
X014008Y003671D02*
X013732Y003671D01*
X013732Y003745D02*
X014008Y003745D01*
X014008Y003819D02*
X013732Y003819D01*
X014008Y003223D02*
X014008Y002997D01*
X013732Y002997D01*
X013732Y003223D01*
X014008Y003223D01*
X014008Y003071D02*
X013732Y003071D01*
X013732Y003145D02*
X014008Y003145D01*
X014008Y003219D02*
X013732Y003219D01*
D17*
X006710Y013190D03*
X006710Y015390D03*
D18*
X013330Y014415D03*
X013330Y013265D03*
D19*
X009050Y013500D03*
X009050Y014400D03*
X009050Y015300D03*
D20*
X011550Y014400D03*
M02*
