%
M48
M72
T01C0.0276
T02C0.0350
T03C0.0394
T04C0.0460
%
T01
X6410Y8190
X7160Y8690
X7860Y8140
X8450Y7220
X8540Y5910
X9980Y7060
X12310Y8110
X10400Y9900
X10310Y10810
X9010Y10890
X11550Y12950
X7900Y14420
X2700Y9930
X9970Y4650
X12300Y5550
X12910Y3560
X14200Y4550
X14530Y3680
T02
X6120Y5300
X6120Y6300
X6120Y7300
X7120Y7300
X7120Y6300
X7120Y5300
X15110Y13900
X15110Y14900
X15110Y15900
X16110Y15900
X16110Y14900
X16110Y13900
X17890Y12640
X17890Y11640
X17890Y10640
X17890Y9640
X17890Y8640
X17890Y7640
T03
X14310Y8021
X14310Y9399
T04
X2570Y13450
X2570Y15450
M30
