G75*
%MOIN*%
%OFA0B0*%
%FSLAX24Y24*%
%IPPOS*%
%LPD*%
%AMOC8*
5,1,8,0,0,1.08239X$1,22.5*
%
%ADD10C,0.0000*%
%ADD11R,0.0650X0.0650*%
%ADD12C,0.0650*%
%ADD13R,0.0728X0.0728*%
%ADD14C,0.0728*%
%ADD15R,0.0800X0.0800*%
%ADD16C,0.0800*%
%ADD17C,0.0160*%
%ADD18C,0.0436*%
%ADD19R,0.0436X0.0436*%
D10*
X000180Y002280D02*
X000180Y017280D01*
X019680Y017280D01*
X019680Y002280D01*
X000180Y002280D01*
D11*
X007120Y005300D03*
X015110Y015900D03*
X017890Y012640D03*
D12*
X017890Y011640D03*
X017890Y010640D03*
X017890Y009640D03*
X017890Y008640D03*
X017890Y007640D03*
X016110Y013900D03*
X016110Y014900D03*
X016110Y015900D03*
X015110Y014900D03*
X015110Y013900D03*
X007120Y007300D03*
X006120Y007300D03*
X006120Y006300D03*
X007120Y006300D03*
X006120Y005300D03*
D13*
X014310Y009399D03*
D14*
X014310Y008021D03*
D15*
X002570Y013450D03*
D16*
X002570Y015450D03*
D17*
X005335Y012685D01*
X002700Y010050D01*
X002700Y009930D01*
X004440Y008190D01*
X006410Y008190D01*
X006593Y007986D02*
X000660Y007986D01*
X000660Y008144D02*
X006752Y008144D01*
X006840Y008232D02*
X006355Y007747D01*
X006314Y007768D01*
X006238Y007792D01*
X006160Y007805D01*
X006128Y007805D01*
X006128Y007307D01*
X006112Y007307D01*
X006112Y007292D01*
X005615Y007292D01*
X005615Y007260D01*
X005627Y007182D01*
X005652Y007106D01*
X005688Y007035D01*
X005735Y006971D01*
X005791Y006915D01*
X005855Y006868D01*
X005926Y006832D01*
X005927Y006832D01*
X005800Y006779D01*
X005641Y006620D01*
X005555Y006412D01*
X005555Y006188D01*
X005641Y005980D01*
X005800Y005821D01*
X005851Y005800D01*
X005800Y005779D01*
X005641Y005620D01*
X005555Y005412D01*
X005555Y005188D01*
X005641Y004980D01*
X005800Y004821D01*
X006008Y004735D01*
X006232Y004735D01*
X006440Y004821D01*
X006555Y004936D01*
X006555Y004927D01*
X006592Y004839D01*
X006659Y004771D01*
X006747Y004735D01*
X007460Y004735D01*
X007460Y004096D01*
X007509Y003979D01*
X007599Y003889D01*
X008199Y003289D01*
X008316Y003240D01*
X012583Y003240D01*
X012651Y003172D01*
X012819Y003102D01*
X013001Y003102D01*
X013169Y003172D01*
X013298Y003301D01*
X013368Y003469D01*
X013368Y003651D01*
X013298Y003819D01*
X013169Y003948D01*
X013001Y004018D01*
X012819Y004018D01*
X012651Y003948D01*
X012583Y003880D01*
X008513Y003880D01*
X008100Y004292D01*
X008100Y006417D01*
X008445Y006762D01*
X008716Y006762D01*
X008804Y006799D01*
X008871Y006866D01*
X008908Y006954D01*
X008908Y007485D01*
X008871Y007574D01*
X008804Y007641D01*
X008716Y007678D01*
X008630Y007678D01*
X010395Y009442D01*
X010491Y009442D01*
X010659Y009512D01*
X010788Y009641D01*
X010858Y009809D01*
X010858Y009980D01*
X010904Y009980D01*
X011021Y010029D01*
X011563Y010570D01*
X013024Y010570D01*
X013141Y010619D01*
X014843Y012320D01*
X017325Y012320D01*
X017325Y012267D01*
X017362Y012179D01*
X017429Y012111D01*
X017517Y012075D01*
X017526Y012075D01*
X017411Y011960D01*
X017325Y011752D01*
X017325Y011528D01*
X017411Y011320D01*
X017570Y011161D01*
X017621Y011140D01*
X017570Y011119D01*
X017411Y010960D01*
X017325Y010752D01*
X017325Y010528D01*
X017411Y010320D01*
X017570Y010161D01*
X017621Y010140D01*
X017570Y010119D01*
X017411Y009960D01*
X017325Y009752D01*
X017325Y009528D01*
X017411Y009320D01*
X017570Y009161D01*
X017621Y009140D01*
X017570Y009119D01*
X017411Y008960D01*
X017325Y008752D01*
X017325Y008528D01*
X017411Y008320D01*
X017570Y008161D01*
X017621Y008140D01*
X017570Y008119D01*
X017411Y007960D01*
X017325Y007752D01*
X017325Y007528D01*
X017411Y007320D01*
X017570Y007161D01*
X017778Y007075D01*
X018002Y007075D01*
X018210Y007161D01*
X018369Y007320D01*
X018455Y007528D01*
X018455Y007752D01*
X018369Y007960D01*
X018210Y008119D01*
X018159Y008140D01*
X018210Y008161D01*
X018369Y008320D01*
X018455Y008528D01*
X018455Y008752D01*
X018369Y008960D01*
X018210Y009119D01*
X018159Y009140D01*
X018210Y009161D01*
X018369Y009320D01*
X018455Y009528D01*
X018455Y009752D01*
X018369Y009960D01*
X018210Y010119D01*
X018159Y010140D01*
X018210Y010161D01*
X018369Y010320D01*
X018455Y010528D01*
X018455Y010752D01*
X018369Y010960D01*
X018210Y011119D01*
X018159Y011140D01*
X018210Y011161D01*
X018369Y011320D01*
X018455Y011528D01*
X018455Y011752D01*
X018369Y011960D01*
X018254Y012075D01*
X018263Y012075D01*
X018351Y012111D01*
X018418Y012179D01*
X018455Y012267D01*
X018455Y013013D01*
X018418Y013101D01*
X018351Y013168D01*
X018263Y013205D01*
X017517Y013205D01*
X017429Y013168D01*
X017362Y013101D01*
X017325Y013013D01*
X017325Y012960D01*
X014646Y012960D01*
X014529Y012911D01*
X012827Y011210D01*
X011366Y011210D01*
X011249Y011161D01*
X011159Y011071D01*
X010707Y010620D01*
X009733Y010620D01*
X009468Y010885D01*
X009468Y010981D01*
X009398Y011149D01*
X009269Y011278D01*
X009101Y011348D01*
X008919Y011348D01*
X008751Y011278D01*
X008622Y011149D01*
X008552Y010981D01*
X008552Y010799D01*
X008622Y010631D01*
X008751Y010502D01*
X008919Y010432D01*
X009015Y010432D01*
X009329Y010119D01*
X009329Y010119D01*
X009419Y010029D01*
X009536Y009980D01*
X009942Y009980D01*
X009942Y009895D01*
X008318Y008270D01*
X008318Y008405D01*
X008281Y008494D01*
X008214Y008561D01*
X008126Y008598D01*
X007618Y008598D01*
X007618Y008955D01*
X007581Y009044D01*
X007514Y009111D01*
X007426Y009148D01*
X006894Y009148D01*
X006806Y009111D01*
X006739Y009044D01*
X006702Y008955D01*
X006702Y008424D01*
X006739Y008336D01*
X006806Y008269D01*
X006840Y008255D01*
X006840Y008232D01*
X006772Y008303D02*
X000660Y008303D01*
X000660Y008461D02*
X006702Y008461D01*
X006702Y008620D02*
X000660Y008620D01*
X000660Y008778D02*
X006702Y008778D01*
X006702Y008937D02*
X000660Y008937D01*
X000660Y009095D02*
X006791Y009095D01*
X007160Y008690D02*
X007160Y008100D01*
X006620Y007560D01*
X006620Y006800D01*
X006120Y006300D01*
X005598Y006084D02*
X000660Y006084D01*
X000660Y006242D02*
X005555Y006242D01*
X005555Y006401D02*
X000660Y006401D01*
X000660Y006559D02*
X005616Y006559D01*
X005739Y006718D02*
X000660Y006718D01*
X000660Y006876D02*
X005844Y006876D01*
X005688Y007035D02*
X000660Y007035D01*
X000660Y007193D02*
X005626Y007193D01*
X005615Y007307D02*
X006112Y007307D01*
X006112Y007805D01*
X006080Y007805D01*
X006002Y007792D01*
X005926Y007768D01*
X005855Y007732D01*
X005791Y007685D01*
X005735Y007629D01*
X005688Y007565D01*
X005652Y007494D01*
X005627Y007418D01*
X005615Y007340D01*
X005615Y007307D01*
X005617Y007352D02*
X000660Y007352D01*
X000660Y007510D02*
X005660Y007510D01*
X005775Y007669D02*
X000660Y007669D01*
X000660Y007827D02*
X006435Y007827D01*
X006128Y007669D02*
X006112Y007669D01*
X006112Y007510D02*
X006128Y007510D01*
X006112Y007352D02*
X006128Y007352D01*
X007120Y007300D02*
X007800Y007300D01*
X010400Y009900D01*
X010718Y009571D02*
X013766Y009571D01*
X013766Y009417D02*
X014292Y009417D01*
X014292Y009380D01*
X014328Y009380D01*
X014328Y008855D01*
X014698Y008855D01*
X014744Y008867D01*
X014785Y008891D01*
X014818Y008924D01*
X014842Y008965D01*
X014854Y009011D01*
X014854Y009380D01*
X014328Y009380D01*
X014328Y009417D01*
X014292Y009417D01*
X014292Y009943D01*
X013922Y009943D01*
X013876Y009931D01*
X013835Y009907D01*
X013802Y009874D01*
X013778Y009833D01*
X013766Y009787D01*
X013766Y009417D01*
X013766Y009380D02*
X013766Y009011D01*
X013778Y008965D01*
X013802Y008924D01*
X013835Y008891D01*
X013876Y008867D01*
X013922Y008855D01*
X014292Y008855D01*
X014292Y009380D01*
X013766Y009380D01*
X013766Y009254D02*
X010207Y009254D01*
X010365Y009412D02*
X014292Y009412D01*
X014310Y009399D02*
X015460Y009399D01*
X015460Y003680D01*
X014530Y003680D01*
X014200Y004550D02*
X010070Y004550D01*
X009970Y004650D01*
X009980Y004660D01*
X009980Y005910D01*
X008540Y005910D01*
X008100Y005925D02*
X011990Y005925D01*
X011990Y005887D02*
X011912Y005809D01*
X011842Y005641D01*
X011842Y005459D01*
X011912Y005291D01*
X012041Y005162D01*
X012209Y005092D01*
X012391Y005092D01*
X012559Y005162D01*
X012688Y005291D01*
X012758Y005459D01*
X012758Y005641D01*
X012688Y005809D01*
X012630Y005867D01*
X012630Y007783D01*
X012698Y007851D01*
X012768Y008019D01*
X012768Y008201D01*
X012698Y008369D01*
X012569Y008498D01*
X012401Y008568D01*
X012219Y008568D01*
X012051Y008498D01*
X011922Y008369D01*
X011852Y008201D01*
X011852Y008019D01*
X011922Y007851D01*
X011990Y007783D01*
X011990Y005887D01*
X011894Y005767D02*
X008100Y005767D01*
X008100Y005608D02*
X011842Y005608D01*
X011846Y005450D02*
X008100Y005450D01*
X008100Y005291D02*
X011912Y005291D01*
X012110Y005133D02*
X008100Y005133D01*
X008100Y004974D02*
X019200Y004974D01*
X019200Y004816D02*
X008100Y004816D01*
X008100Y004657D02*
X019200Y004657D01*
X019200Y004499D02*
X008100Y004499D01*
X008100Y004340D02*
X019200Y004340D01*
X019200Y004182D02*
X008211Y004182D01*
X008369Y004023D02*
X019200Y004023D01*
X019200Y003865D02*
X013252Y003865D01*
X013345Y003706D02*
X019200Y003706D01*
X019200Y003548D02*
X013368Y003548D01*
X013335Y003389D02*
X019200Y003389D01*
X019200Y003231D02*
X013228Y003231D01*
X012910Y003560D02*
X008380Y003560D01*
X007780Y004160D01*
X007780Y006550D01*
X007530Y006300D01*
X007120Y006300D01*
X007780Y006550D02*
X008450Y007220D01*
X008908Y007193D02*
X011990Y007193D01*
X011990Y007035D02*
X008908Y007035D01*
X008876Y006876D02*
X011990Y006876D01*
X011990Y006718D02*
X008401Y006718D01*
X008242Y006559D02*
X011990Y006559D01*
X011990Y006401D02*
X008100Y006401D01*
X008100Y006242D02*
X011990Y006242D01*
X011990Y006084D02*
X008100Y006084D01*
X008908Y007352D02*
X011990Y007352D01*
X011990Y007510D02*
X008897Y007510D01*
X008737Y007669D02*
X011990Y007669D01*
X011945Y007827D02*
X008780Y007827D01*
X008939Y007986D02*
X011866Y007986D01*
X011852Y008144D02*
X009097Y008144D01*
X009256Y008303D02*
X011894Y008303D01*
X012014Y008461D02*
X009414Y008461D01*
X009573Y008620D02*
X014177Y008620D01*
X014190Y008625D02*
X013968Y008533D01*
X013798Y008363D01*
X013706Y008141D01*
X013706Y007901D01*
X013798Y007679D01*
X013968Y007509D01*
X014190Y007417D01*
X014430Y007417D01*
X014652Y007509D01*
X014822Y007679D01*
X014914Y007901D01*
X014914Y008141D01*
X014822Y008363D01*
X014652Y008533D01*
X014430Y008625D01*
X014190Y008625D01*
X014443Y008620D02*
X017325Y008620D01*
X017336Y008778D02*
X009731Y008778D01*
X009890Y008937D02*
X013794Y008937D01*
X013766Y009095D02*
X010048Y009095D01*
X009618Y009571D02*
X000660Y009571D01*
X000660Y009729D02*
X009777Y009729D01*
X009935Y009888D02*
X000660Y009888D01*
X000660Y010046D02*
X009401Y010046D01*
X009242Y010205D02*
X000660Y010205D01*
X000660Y010363D02*
X009084Y010363D01*
X008731Y010522D02*
X000660Y010522D01*
X000660Y010680D02*
X008601Y010680D01*
X008552Y010839D02*
X000660Y010839D01*
X000660Y010997D02*
X008559Y010997D01*
X008629Y011156D02*
X000660Y011156D01*
X000660Y011314D02*
X008839Y011314D01*
X009181Y011314D02*
X012932Y011314D01*
X013090Y011473D02*
X000660Y011473D01*
X000660Y011631D02*
X013249Y011631D01*
X013407Y011790D02*
X000660Y011790D01*
X000660Y011948D02*
X013566Y011948D01*
X013724Y012107D02*
X000660Y012107D01*
X000660Y012265D02*
X013883Y012265D01*
X014041Y012424D02*
X000660Y012424D01*
X000660Y012582D02*
X011142Y012582D01*
X011129Y012596D02*
X011196Y012529D01*
X011284Y012492D01*
X011816Y012492D01*
X011904Y012529D01*
X011971Y012596D01*
X012008Y012684D01*
X012008Y013215D01*
X011971Y013304D01*
X011904Y013371D01*
X011870Y013385D01*
X011870Y014484D01*
X011821Y014601D01*
X011731Y014691D01*
X011614Y014740D01*
X008335Y014740D01*
X008321Y014774D01*
X008254Y014841D01*
X008166Y014878D01*
X007634Y014878D01*
X007546Y014841D01*
X007479Y014774D01*
X007442Y014685D01*
X007442Y014154D01*
X007479Y014066D01*
X007546Y013999D01*
X007634Y013962D01*
X008166Y013962D01*
X008254Y013999D01*
X008321Y014066D01*
X008335Y014100D01*
X011230Y014100D01*
X011230Y013385D01*
X011196Y013371D01*
X011129Y013304D01*
X011092Y013215D01*
X011092Y012684D01*
X011129Y012596D01*
X011092Y012741D02*
X000660Y012741D01*
X000660Y012899D02*
X001981Y012899D01*
X001967Y012914D02*
X002034Y012846D01*
X002122Y012810D01*
X003018Y012810D01*
X003106Y012846D01*
X003173Y012914D01*
X003210Y013002D01*
X003210Y013898D01*
X003173Y013986D01*
X003106Y014053D01*
X003018Y014090D01*
X002122Y014090D01*
X002034Y014053D01*
X001967Y013986D01*
X001930Y013898D01*
X001930Y013002D01*
X001967Y012914D01*
X001930Y013058D02*
X000660Y013058D01*
X000660Y013216D02*
X001930Y013216D01*
X001930Y013375D02*
X000660Y013375D01*
X000660Y013533D02*
X001930Y013533D01*
X001930Y013692D02*
X000660Y013692D01*
X000660Y013850D02*
X001930Y013850D01*
X001990Y014009D02*
X000660Y014009D01*
X000660Y014167D02*
X007442Y014167D01*
X007442Y014326D02*
X000660Y014326D01*
X000660Y014484D02*
X007442Y014484D01*
X007442Y014643D02*
X000660Y014643D01*
X000660Y014801D02*
X007507Y014801D01*
X007900Y014420D02*
X011550Y014420D01*
X011550Y012950D01*
X012008Y012899D02*
X014517Y012899D01*
X014358Y012741D02*
X012008Y012741D01*
X011958Y012582D02*
X014200Y012582D01*
X014630Y012107D02*
X017440Y012107D01*
X017406Y011948D02*
X014471Y011948D01*
X014313Y011790D02*
X017341Y011790D01*
X017325Y011631D02*
X014154Y011631D01*
X013996Y011473D02*
X017348Y011473D01*
X017416Y011314D02*
X013837Y011314D01*
X013679Y011156D02*
X017582Y011156D01*
X017448Y010997D02*
X013520Y010997D01*
X013362Y010839D02*
X017361Y010839D01*
X017325Y010680D02*
X013203Y010680D01*
X012960Y010890D02*
X011430Y010890D01*
X010840Y010300D01*
X009600Y010300D01*
X009010Y010890D01*
X009461Y010997D02*
X011085Y010997D01*
X010926Y010839D02*
X009514Y010839D01*
X009672Y010680D02*
X010768Y010680D01*
X011198Y010205D02*
X017526Y010205D01*
X017497Y010046D02*
X011039Y010046D01*
X010858Y009888D02*
X013816Y009888D01*
X013766Y009729D02*
X010825Y009729D01*
X011356Y010363D02*
X017393Y010363D01*
X017327Y010522D02*
X011515Y010522D01*
X011243Y011156D02*
X009391Y011156D01*
X010310Y010810D02*
X008680Y012440D01*
X008264Y014009D02*
X011230Y014009D01*
X011230Y013850D02*
X003210Y013850D01*
X003210Y013692D02*
X011230Y013692D01*
X011230Y013533D02*
X003210Y013533D01*
X003210Y013375D02*
X011205Y013375D01*
X011093Y013216D02*
X003210Y013216D01*
X003210Y013058D02*
X011092Y013058D01*
X011092Y012899D02*
X003159Y012899D01*
X003150Y014009D02*
X007536Y014009D01*
X008293Y014801D02*
X014545Y014801D01*
X014545Y014788D02*
X014631Y014580D01*
X014790Y014421D01*
X014917Y014368D01*
X014916Y014368D01*
X014845Y014332D01*
X014781Y014285D01*
X014725Y014229D01*
X014678Y014165D01*
X014642Y014094D01*
X014617Y014018D01*
X014605Y013940D01*
X014605Y013907D01*
X015102Y013907D01*
X015102Y013892D01*
X015118Y013892D01*
X015118Y013907D01*
X016102Y013907D01*
X016102Y013892D01*
X016118Y013892D01*
X016118Y013907D01*
X016615Y013907D01*
X016615Y013940D01*
X016603Y014018D01*
X016578Y014094D01*
X016542Y014165D01*
X016495Y014229D01*
X016439Y014285D01*
X016375Y014332D01*
X016304Y014368D01*
X016303Y014368D01*
X016430Y014421D01*
X016589Y014580D01*
X016675Y014788D01*
X016675Y015012D01*
X016589Y015220D01*
X016430Y015379D01*
X016379Y015400D01*
X016430Y015421D01*
X016589Y015580D01*
X016675Y015788D01*
X016675Y016012D01*
X016589Y016220D01*
X016430Y016379D01*
X016222Y016465D01*
X015998Y016465D01*
X015790Y016379D01*
X015675Y016264D01*
X015675Y016273D01*
X015638Y016361D01*
X015571Y016428D01*
X015483Y016465D01*
X014737Y016465D01*
X014649Y016428D01*
X014582Y016361D01*
X014545Y016273D01*
X014545Y015527D01*
X014582Y015439D01*
X014649Y015371D01*
X014737Y015335D01*
X014746Y015335D01*
X014631Y015220D01*
X014545Y015012D01*
X014545Y014788D01*
X014605Y014643D02*
X011780Y014643D01*
X011870Y014484D02*
X014726Y014484D01*
X014837Y014326D02*
X011870Y014326D01*
X011870Y014167D02*
X014680Y014167D01*
X014616Y014009D02*
X011870Y014009D01*
X011870Y013850D02*
X014607Y013850D01*
X014605Y013860D02*
X014617Y013782D01*
X014642Y013706D01*
X014678Y013635D01*
X014725Y013571D01*
X014781Y013515D01*
X014845Y013468D01*
X014916Y013432D01*
X014992Y013407D01*
X015070Y013395D01*
X015102Y013395D01*
X015102Y013892D01*
X014605Y013892D01*
X014605Y013860D01*
X014649Y013692D02*
X011870Y013692D01*
X011870Y013533D02*
X014762Y013533D01*
X015102Y013533D02*
X015118Y013533D01*
X015118Y013395D02*
X015150Y013395D01*
X015228Y013407D01*
X015304Y013432D01*
X015375Y013468D01*
X015439Y013515D01*
X015495Y013571D01*
X015542Y013635D01*
X015578Y013706D01*
X015603Y013782D01*
X015610Y013829D01*
X015617Y013782D01*
X015642Y013706D01*
X015678Y013635D01*
X015725Y013571D01*
X015781Y013515D01*
X015845Y013468D01*
X015916Y013432D01*
X015992Y013407D01*
X016070Y013395D01*
X016102Y013395D01*
X016102Y013892D01*
X015615Y013892D01*
X015118Y013892D01*
X015118Y013395D01*
X015102Y013692D02*
X015118Y013692D01*
X015102Y013850D02*
X015118Y013850D01*
X015110Y013900D02*
X013400Y013900D01*
X010310Y010810D01*
X009460Y009412D02*
X000660Y009412D01*
X000660Y009254D02*
X009301Y009254D01*
X009143Y009095D02*
X007529Y009095D01*
X007618Y008937D02*
X008984Y008937D01*
X008826Y008778D02*
X007618Y008778D01*
X007618Y008620D02*
X008667Y008620D01*
X008509Y008461D02*
X008295Y008461D01*
X008318Y008303D02*
X008350Y008303D01*
X009980Y007060D02*
X009980Y005910D01*
X012300Y005550D02*
X012310Y005550D01*
X012310Y008110D01*
X012606Y008461D02*
X013896Y008461D01*
X013773Y008303D02*
X012726Y008303D01*
X012768Y008144D02*
X013707Y008144D01*
X013706Y007986D02*
X012754Y007986D01*
X012675Y007827D02*
X013736Y007827D01*
X013808Y007669D02*
X012630Y007669D01*
X012630Y007510D02*
X013966Y007510D01*
X014654Y007510D02*
X017332Y007510D01*
X017325Y007669D02*
X014812Y007669D01*
X014884Y007827D02*
X017356Y007827D01*
X017437Y007986D02*
X014914Y007986D01*
X014913Y008144D02*
X017610Y008144D01*
X017428Y008303D02*
X014847Y008303D01*
X014724Y008461D02*
X017352Y008461D01*
X017401Y008937D02*
X014826Y008937D01*
X014854Y009095D02*
X017546Y009095D01*
X017477Y009254D02*
X014854Y009254D01*
X014854Y009417D02*
X014854Y009787D01*
X014842Y009833D01*
X014818Y009874D01*
X014785Y009907D01*
X014744Y009931D01*
X014698Y009943D01*
X014328Y009943D01*
X014328Y009417D01*
X014854Y009417D01*
X014854Y009571D02*
X017325Y009571D01*
X017325Y009729D02*
X014854Y009729D01*
X014804Y009888D02*
X017381Y009888D01*
X017373Y009412D02*
X014328Y009412D01*
X014328Y009254D02*
X014292Y009254D01*
X014292Y009095D02*
X014328Y009095D01*
X014328Y008937D02*
X014292Y008937D01*
X014292Y009571D02*
X014328Y009571D01*
X014328Y009729D02*
X014292Y009729D01*
X014292Y009888D02*
X014328Y009888D01*
X012960Y010890D02*
X014710Y012640D01*
X017890Y012640D01*
X018455Y012582D02*
X019200Y012582D01*
X019200Y012424D02*
X018455Y012424D01*
X018454Y012265D02*
X019200Y012265D01*
X019200Y012107D02*
X018340Y012107D01*
X018374Y011948D02*
X019200Y011948D01*
X019200Y011790D02*
X018439Y011790D01*
X018455Y011631D02*
X019200Y011631D01*
X019200Y011473D02*
X018432Y011473D01*
X018364Y011314D02*
X019200Y011314D01*
X019200Y011156D02*
X018198Y011156D01*
X018332Y010997D02*
X019200Y010997D01*
X019200Y010839D02*
X018419Y010839D01*
X018455Y010680D02*
X019200Y010680D01*
X019200Y010522D02*
X018453Y010522D01*
X018387Y010363D02*
X019200Y010363D01*
X019200Y010205D02*
X018254Y010205D01*
X018283Y010046D02*
X019200Y010046D01*
X019200Y009888D02*
X018399Y009888D01*
X018455Y009729D02*
X019200Y009729D01*
X019200Y009571D02*
X018455Y009571D01*
X018407Y009412D02*
X019200Y009412D01*
X019200Y009254D02*
X018303Y009254D01*
X018234Y009095D02*
X019200Y009095D01*
X019200Y008937D02*
X018379Y008937D01*
X018444Y008778D02*
X019200Y008778D01*
X019200Y008620D02*
X018455Y008620D01*
X018428Y008461D02*
X019200Y008461D01*
X019200Y008303D02*
X018352Y008303D01*
X018170Y008144D02*
X019200Y008144D01*
X019200Y007986D02*
X018343Y007986D01*
X018424Y007827D02*
X019200Y007827D01*
X019200Y007669D02*
X018455Y007669D01*
X018448Y007510D02*
X019200Y007510D01*
X019200Y007352D02*
X018382Y007352D01*
X018243Y007193D02*
X019200Y007193D01*
X019200Y007035D02*
X012630Y007035D01*
X012630Y007193D02*
X017537Y007193D01*
X017398Y007352D02*
X012630Y007352D01*
X012630Y006876D02*
X019200Y006876D01*
X019200Y006718D02*
X012630Y006718D01*
X012630Y006559D02*
X019200Y006559D01*
X019200Y006401D02*
X012630Y006401D01*
X012630Y006242D02*
X019200Y006242D01*
X019200Y006084D02*
X012630Y006084D01*
X012630Y005925D02*
X019200Y005925D01*
X019200Y005767D02*
X012706Y005767D01*
X012758Y005608D02*
X019200Y005608D01*
X019200Y005450D02*
X012754Y005450D01*
X012688Y005291D02*
X019200Y005291D01*
X019200Y005133D02*
X012490Y005133D01*
X012592Y003231D02*
X000660Y003231D01*
X000660Y003389D02*
X008098Y003389D01*
X007939Y003548D02*
X000660Y003548D01*
X000660Y003706D02*
X007781Y003706D01*
X007622Y003865D02*
X000660Y003865D01*
X000660Y004023D02*
X007490Y004023D01*
X007460Y004182D02*
X000660Y004182D01*
X000660Y004340D02*
X007460Y004340D01*
X007460Y004499D02*
X000660Y004499D01*
X000660Y004657D02*
X007460Y004657D01*
X006615Y004816D02*
X006428Y004816D01*
X005812Y004816D02*
X000660Y004816D01*
X000660Y004974D02*
X005646Y004974D01*
X005578Y005133D02*
X000660Y005133D01*
X000660Y005291D02*
X005555Y005291D01*
X005571Y005450D02*
X000660Y005450D01*
X000660Y005608D02*
X005636Y005608D01*
X005788Y005767D02*
X000660Y005767D01*
X000660Y005925D02*
X005695Y005925D01*
X000660Y003072D02*
X019200Y003072D01*
X019200Y002914D02*
X000660Y002914D01*
X000660Y002760D02*
X000660Y016800D01*
X019200Y016800D01*
X019200Y002760D01*
X000660Y002760D01*
X011895Y013375D02*
X019200Y013375D01*
X019200Y013533D02*
X016458Y013533D01*
X016439Y013515D02*
X016495Y013571D01*
X016542Y013635D01*
X016578Y013706D01*
X016603Y013782D01*
X016615Y013860D01*
X016615Y013892D01*
X016118Y013892D01*
X016118Y013395D01*
X016150Y013395D01*
X016228Y013407D01*
X016304Y013432D01*
X016375Y013468D01*
X016439Y013515D01*
X016571Y013692D02*
X019200Y013692D01*
X019200Y013850D02*
X016613Y013850D01*
X016604Y014009D02*
X019200Y014009D01*
X019200Y014167D02*
X016540Y014167D01*
X016383Y014326D02*
X019200Y014326D01*
X019200Y014484D02*
X016494Y014484D01*
X016615Y014643D02*
X019200Y014643D01*
X019200Y014801D02*
X016675Y014801D01*
X016675Y014960D02*
X019200Y014960D01*
X019200Y015118D02*
X016631Y015118D01*
X016532Y015277D02*
X019200Y015277D01*
X019200Y015435D02*
X016445Y015435D01*
X016595Y015594D02*
X019200Y015594D01*
X019200Y015752D02*
X016660Y015752D01*
X016675Y015911D02*
X019200Y015911D01*
X019200Y016069D02*
X016651Y016069D01*
X016581Y016228D02*
X019200Y016228D01*
X019200Y016386D02*
X016412Y016386D01*
X015808Y016386D02*
X015613Y016386D01*
X014607Y016386D02*
X000660Y016386D01*
X000660Y016228D02*
X014545Y016228D01*
X014545Y016069D02*
X000660Y016069D01*
X000660Y015911D02*
X002218Y015911D01*
X002192Y015892D02*
X002266Y015946D01*
X002347Y015987D01*
X002434Y016016D01*
X002524Y016030D01*
X002535Y016030D01*
X002535Y015485D01*
X002605Y015485D01*
X002605Y016030D01*
X002616Y016030D01*
X002706Y016016D01*
X002793Y015987D01*
X002874Y015946D01*
X002948Y015892D01*
X003012Y015828D01*
X003066Y015754D01*
X003108Y015673D01*
X003136Y015586D01*
X003150Y015496D01*
X003150Y015485D01*
X002605Y015485D01*
X002605Y015415D01*
X003150Y015415D01*
X003150Y015404D01*
X003136Y015314D01*
X003108Y015227D01*
X003066Y015146D01*
X003012Y015072D01*
X002948Y015008D01*
X002874Y014954D01*
X002793Y014912D01*
X002706Y014884D01*
X002616Y014870D01*
X002605Y014870D01*
X002605Y015415D01*
X002535Y015415D01*
X001990Y015415D01*
X001990Y015404D01*
X002004Y015314D01*
X002032Y015227D01*
X002074Y015146D01*
X002128Y015072D01*
X002192Y015008D01*
X002266Y014954D01*
X002347Y014912D01*
X002434Y014884D01*
X002524Y014870D01*
X002535Y014870D01*
X002535Y015415D01*
X002535Y015485D01*
X001990Y015485D01*
X001990Y015496D01*
X002004Y015586D01*
X002032Y015673D01*
X002074Y015754D01*
X002128Y015828D01*
X002192Y015892D01*
X002073Y015752D02*
X000660Y015752D01*
X000660Y015594D02*
X002007Y015594D01*
X002016Y015277D02*
X000660Y015277D01*
X000660Y015435D02*
X002535Y015435D01*
X002605Y015435D02*
X014585Y015435D01*
X014545Y015594D02*
X003133Y015594D01*
X003067Y015752D02*
X014545Y015752D01*
X014545Y015911D02*
X002922Y015911D01*
X002605Y015911D02*
X002535Y015911D01*
X002535Y015752D02*
X002605Y015752D01*
X002605Y015594D02*
X002535Y015594D01*
X002535Y015277D02*
X002605Y015277D01*
X002605Y015118D02*
X002535Y015118D01*
X002535Y014960D02*
X002605Y014960D01*
X002882Y014960D02*
X014545Y014960D01*
X014589Y015118D02*
X003046Y015118D01*
X003124Y015277D02*
X014688Y015277D01*
X015571Y013692D02*
X015649Y013692D01*
X015762Y013533D02*
X015458Y013533D01*
X016102Y013533D02*
X016118Y013533D01*
X016102Y013692D02*
X016118Y013692D01*
X016102Y013850D02*
X016118Y013850D01*
X017344Y013058D02*
X012008Y013058D01*
X012007Y013216D02*
X019200Y013216D01*
X019200Y013058D02*
X018436Y013058D01*
X018455Y012899D02*
X019200Y012899D01*
X019200Y012741D02*
X018455Y012741D01*
X017326Y012265D02*
X014788Y012265D01*
X019200Y016545D02*
X000660Y016545D01*
X000660Y016703D02*
X019200Y016703D01*
X002258Y014960D02*
X000660Y014960D01*
X000660Y015118D02*
X002094Y015118D01*
D18*
X009010Y010890D03*
X010400Y009900D03*
X012310Y008110D03*
X012300Y005550D03*
X012910Y003560D03*
X014530Y003680D03*
D19*
X014200Y004550D03*
X009970Y004650D03*
X008540Y005910D03*
X008450Y007220D03*
X007860Y008140D03*
X007160Y008690D03*
X006410Y008190D03*
X009980Y007060D03*
X010310Y010810D03*
X011550Y012950D03*
X007900Y014420D03*
X002700Y009930D03*
M02*
