G75*
%MOIN*%
%OFA0B0*%
%FSLAX24Y24*%
%IPPOS*%
%LPD*%
%AMOC8*
5,1,8,0,0,1.08239X$1,22.5*
%
%ADD10C,0.0000*%
%ADD11R,0.0300X0.0580*%
%ADD12R,0.0580X0.0300*%
%ADD13C,0.0107*%
%ADD14R,0.0880X0.0780*%
%ADD15R,0.0730X0.0730*%
%ADD16C,0.0730*%
%ADD17R,0.0330X0.0730*%
%ADD18C,0.0095*%
%ADD19R,0.0808X0.0808*%
%ADD20C,0.0808*%
%ADD21R,0.0880X0.0880*%
%ADD22C,0.0880*%
%ADD23R,0.1080X0.0680*%
%ADD24R,0.0980X0.0530*%
%ADD25R,0.0980X0.0580*%
%ADD26R,0.0930X0.1480*%
%ADD27C,0.0516*%
%ADD28R,0.0516X0.0516*%
D10*
X000180Y002280D02*
X000180Y017280D01*
X019680Y017280D01*
X019680Y002280D01*
X000180Y002280D01*
D11*
X008728Y008080D03*
X009043Y008080D03*
X009358Y008080D03*
X009673Y008080D03*
X009987Y008080D03*
X010302Y008080D03*
X010617Y008080D03*
X010932Y008080D03*
X010932Y011460D03*
X010617Y011460D03*
X010302Y011460D03*
X009987Y011460D03*
X009673Y011460D03*
X009358Y011460D03*
X009043Y011460D03*
X008728Y011460D03*
D12*
X008140Y010872D03*
X008140Y010557D03*
X008140Y010242D03*
X008140Y009927D03*
X008140Y009612D03*
X008140Y009297D03*
X008140Y008983D03*
X008140Y008668D03*
X011520Y008668D03*
X011520Y008983D03*
X011520Y009297D03*
X011520Y009612D03*
X011520Y009927D03*
X011520Y010242D03*
X011520Y010557D03*
X011520Y010872D03*
D13*
X012159Y009781D02*
X012159Y009459D01*
X012159Y009781D02*
X012481Y009781D01*
X012481Y009459D01*
X012159Y009459D01*
X012159Y009566D02*
X012481Y009566D01*
X012481Y009673D02*
X012159Y009673D01*
X012159Y009780D02*
X012481Y009780D01*
X012159Y009181D02*
X012159Y008859D01*
X012159Y009181D02*
X012481Y009181D01*
X012481Y008859D01*
X012159Y008859D01*
X012159Y008966D02*
X012481Y008966D01*
X012481Y009073D02*
X012159Y009073D01*
X012159Y009180D02*
X012481Y009180D01*
X015339Y007031D02*
X015661Y007031D01*
X015661Y006709D01*
X015339Y006709D01*
X015339Y007031D01*
X015339Y006816D02*
X015661Y006816D01*
X015661Y006923D02*
X015339Y006923D01*
X015339Y007030D02*
X015661Y007030D01*
X015939Y007031D02*
X016261Y007031D01*
X016261Y006709D01*
X015939Y006709D01*
X015939Y007031D01*
X015939Y006816D02*
X016261Y006816D01*
X016261Y006923D02*
X015939Y006923D01*
X015939Y007030D02*
X016261Y007030D01*
X015939Y007869D02*
X015939Y008191D01*
X016261Y008191D01*
X016261Y007869D01*
X015939Y007869D01*
X015939Y007976D02*
X016261Y007976D01*
X016261Y008083D02*
X015939Y008083D01*
X015939Y008190D02*
X016261Y008190D01*
X015939Y008469D02*
X015939Y008791D01*
X016261Y008791D01*
X016261Y008469D01*
X015939Y008469D01*
X015939Y008576D02*
X016261Y008576D01*
X016261Y008683D02*
X015939Y008683D01*
X015939Y008790D02*
X016261Y008790D01*
X012391Y003871D02*
X012391Y003549D01*
X012069Y003549D01*
X012069Y003871D01*
X012391Y003871D01*
X012391Y003656D02*
X012069Y003656D01*
X012069Y003763D02*
X012391Y003763D01*
X012391Y003870D02*
X012069Y003870D01*
X012391Y003271D02*
X012391Y002949D01*
X012069Y002949D01*
X012069Y003271D01*
X012391Y003271D01*
X012391Y003056D02*
X012069Y003056D01*
X012069Y003163D02*
X012391Y003163D01*
X012391Y003270D02*
X012069Y003270D01*
X009291Y006399D02*
X008969Y006399D01*
X008969Y006721D01*
X009291Y006721D01*
X009291Y006399D01*
X009291Y006506D02*
X008969Y006506D01*
X008969Y006613D02*
X009291Y006613D01*
X009291Y006720D02*
X008969Y006720D01*
X008691Y006399D02*
X008369Y006399D01*
X008369Y006721D01*
X008691Y006721D01*
X008691Y006399D01*
X008691Y006506D02*
X008369Y006506D01*
X008369Y006613D02*
X008691Y006613D01*
X008691Y006720D02*
X008369Y006720D01*
X007171Y009289D02*
X007171Y009611D01*
X007171Y009289D02*
X006849Y009289D01*
X006849Y009611D01*
X007171Y009611D01*
X007171Y009396D02*
X006849Y009396D01*
X006849Y009503D02*
X007171Y009503D01*
X007171Y009610D02*
X006849Y009610D01*
X007171Y009889D02*
X007171Y010211D01*
X007171Y009889D02*
X006849Y009889D01*
X006849Y010211D01*
X007171Y010211D01*
X007171Y009996D02*
X006849Y009996D01*
X006849Y010103D02*
X007171Y010103D01*
X007171Y010210D02*
X006849Y010210D01*
X008589Y012409D02*
X008911Y012409D01*
X008589Y012409D02*
X008589Y012731D01*
X008911Y012731D01*
X008911Y012409D01*
X008911Y012516D02*
X008589Y012516D01*
X008589Y012623D02*
X008911Y012623D01*
X008911Y012730D02*
X008589Y012730D01*
X009189Y012409D02*
X009511Y012409D01*
X009189Y012409D02*
X009189Y012731D01*
X009511Y012731D01*
X009511Y012409D01*
X009511Y012516D02*
X009189Y012516D01*
X009189Y012623D02*
X009511Y012623D01*
X009511Y012730D02*
X009189Y012730D01*
X004141Y010229D02*
X003819Y010229D01*
X003819Y010551D01*
X004141Y010551D01*
X004141Y010229D01*
X004141Y010336D02*
X003819Y010336D01*
X003819Y010443D02*
X004141Y010443D01*
X004141Y010550D02*
X003819Y010550D01*
X003541Y010229D02*
X003219Y010229D01*
X003219Y010551D01*
X003541Y010551D01*
X003541Y010229D01*
X003541Y010336D02*
X003219Y010336D01*
X003219Y010443D02*
X003541Y010443D01*
X003541Y010550D02*
X003219Y010550D01*
X003209Y009309D02*
X003531Y009309D01*
X003209Y009309D02*
X003209Y009631D01*
X003531Y009631D01*
X003531Y009309D01*
X003531Y009416D02*
X003209Y009416D01*
X003209Y009523D02*
X003531Y009523D01*
X003531Y009630D02*
X003209Y009630D01*
X003809Y009309D02*
X004131Y009309D01*
X003809Y009309D02*
X003809Y009631D01*
X004131Y009631D01*
X004131Y009309D01*
X004131Y009416D02*
X003809Y009416D01*
X003809Y009523D02*
X004131Y009523D01*
X004131Y009630D02*
X003809Y009630D01*
D14*
X005380Y008980D03*
X005380Y010680D03*
D15*
X007120Y005300D03*
X015110Y015900D03*
X017890Y012640D03*
D16*
X017890Y011640D03*
X017890Y010640D03*
X017890Y009640D03*
X017890Y008640D03*
X017890Y007640D03*
X016110Y013900D03*
X016110Y014900D03*
X016110Y015900D03*
X015110Y014900D03*
X015110Y013900D03*
X007120Y007300D03*
X006120Y007300D03*
X006120Y006300D03*
X007120Y006300D03*
X006120Y005300D03*
D17*
X011710Y004550D03*
X012210Y004550D03*
X012710Y004550D03*
X013210Y004550D03*
X013210Y006610D03*
X012710Y006610D03*
X012210Y006610D03*
X011710Y006610D03*
D18*
X014038Y003853D02*
X014038Y003567D01*
X013702Y003567D01*
X013702Y003853D01*
X014038Y003853D01*
X014038Y003661D02*
X013702Y003661D01*
X013702Y003755D02*
X014038Y003755D01*
X014038Y003849D02*
X013702Y003849D01*
X014038Y003253D02*
X014038Y002967D01*
X013702Y002967D01*
X013702Y003253D01*
X014038Y003253D01*
X014038Y003061D02*
X013702Y003061D01*
X013702Y003155D02*
X014038Y003155D01*
X014038Y003249D02*
X013702Y003249D01*
D19*
X014310Y009399D03*
D20*
X014310Y008021D03*
D21*
X002570Y013450D03*
D22*
X002570Y015450D03*
D23*
X006710Y015390D03*
X006710Y013190D03*
D24*
X013330Y013265D03*
X013330Y014415D03*
D25*
X009050Y014400D03*
X009050Y013500D03*
X009050Y015300D03*
D26*
X011550Y014400D03*
D27*
X009010Y010890D03*
X010400Y009900D03*
X012310Y008110D03*
X012300Y005550D03*
X012910Y003560D03*
X014530Y003680D03*
D28*
X014200Y004550D03*
X009970Y004650D03*
X008540Y005910D03*
X008450Y007220D03*
X007860Y008140D03*
X007160Y008690D03*
X006410Y008190D03*
X009980Y007060D03*
X010310Y010810D03*
X011550Y012950D03*
X007900Y014420D03*
X002700Y009930D03*
M02*
